{
copyright = "Created by Ivan Drinchev. Additions by Thomas Hollt. OFL license";
customParameters = (
{
name = vendorID;
value = PfEd;
},
{
name = glyphOrder;
value = (
    ".notdef",
    space,
    exclam,
    quotedbl,
    numbersign,
    dollar,
    percent,
    ampersand,
    quotesingle,
    parenleft,
    parenright,
    asterisk,
    plus,
    comma,
    hyphen,
    period,
    slash,
    zero,
    one,
    two,
    three,
    four,
    five,
    six,
    seven,
    eight,
    nine,
    colon,
    semicolon,
    less,
    equal,
    greater,
    question,
    at,
    A,
    B,
    C,
    D,
    E,
    F,
    G,
    H,
    I,
    J,
    K,
    L,
    M,
    N,
    O,
    P,
    Q,
    R,
    S,
    T,
    U,
    V,
    W,
    X,
    Y,
    Z,
    bracketleft,
    backslash,
    bracketright,
    asciicircum,
    underscore,
    grave,
    a,
    b,
    c,
    d,
    e,
    f,
    g,
    h,
    i,
    j,
    k,
    l,
    m,
    n,
    o,
    p,
    q,
    r,
    s,
    t,
    u,
    v,
    w,
    x,
    y,
    z,
    braceleft,
    bar,
    braceright,
    asciitilde,
    fivehundredpx,
    aboutme,
    addme,
    amazon,
    aol,
    appstorealt,
    appstore,
    apple,
    bebo,
    behance,
    bing,
    blip,
    blogger,
    coroflot,
    daytum,
    delicious,
    designbump,
    designfloat,
    deviantart,
    diggalt,
    digg,
    dribble,
    drupal,
    ebay,
    email,
    emberapp,
    etsy,
    facebook,
    feedburner,
    flickr,
    foodspotting,
    forrst,
    foursquare,
    friendsfeed,
    friendstar,
    gdgt,
    github,
    githubalt,
    googlebuzz,
    googleplus,
    googletalk,
    gowallapin,
    gowalla,
    grooveshark,
    heart,
    hyves,
    icondock,
    icq,
    identica,
    imessage,
    itunes,
    lastfm,
    linkedin,
    meetup,
    metacafe,
    mixx,
    mobileme,
    mrwong,
    msn,
    myspace,
    newsvine,
    paypal,
    photobucket,
    picasa,
    pinterest,
    podcast,
    posterous,
    qik,

glyphs = (
{
glyphname = exclam;
layers = (
{
layerId = "1285D0D6-ECBB-4398-A306-ABCA7FA13BF2";
name = Regular;
paths = (
{
closed = 1;
nodes = (
"156 75 OFFCURVE",
"150.333 88.6666 OFFCURVE",
"139 99.9999 CURVE SMOOTH",
"127.667 111.333 OFFCURVE",
"114 117 OFFCURVE",
"97.9999 117 CURVE SMOOTH",
"81.3333 117 OFFCURVE",
"67.3333 111.333 OFFCURVE",
"56 99.9999 CURVE SMOOTH",
"44.6666 88.6666 OFFCURVE",
"39 75 OFFCURVE",
"39 59 CURVE SMOOTH",
"39 42.3333 OFFCURVE",
"44.6666 28.3333 OFFCURVE",
"56 17 CURVE SMOOTH",
"67.3333 5.66667 OFFCURVE",
"81.3333 0 OFFCURVE",
"97.9999 0 CURVE SMOOTH",
"114 0 OFFCURVE",
"127.667 5.66667 OFFCURVE",
"139 17 CURVE SMOOTH",
"150.333 28.3333 OFFCURVE",
"156 42.3333 OFFCURVE",
"156 59 CURVE SMOOTH"
);
},
{
closed = 1;
nodes = (
"59 195 LINE SMOOTH",
"59 184.333 OFFCURVE",
"62.6666 175.333 OFFCURVE",
"70 168 CURVE SMOOTH",
"78 160 OFFCURVE",
"87.3333 156 OFFCURVE",
"97.9999 156 CURVE SMOOTH",
"108.667 156 OFFCURVE",
"117.667 160 OFFCURVE",
"125 168 CURVE",
"133 175.333 OFFCURVE",
"137 184.333 OFFCURVE",
"137 195 CURVE SMOOTH",
"137 742 LINE SMOOTH",
"137 752.666 OFFCURVE",
"133.167 761.833 OFFCURVE",
"125.5 769.5 CURVE SMOOTH",
"117.833 777.166 OFFCURVE",
"108.667 781 OFFCURVE",
"97.9999 781 CURVE SMOOTH",
"87.3333 781 OFFCURVE",
"78.1666 777.166 OFFCURVE",
"70.5 769.5 CURVE SMOOTH",
"62.8333 761.839 OFFCURVE",
"59 752.672 OFFCURVE",
"59 742 CURVE SMOOTH"
);
}
);
width = 195;
}
);
unicode = 0021;
},
{
glyphname = quotedbl;
layers = (
{
layerId = "1285D0D6-ECBB-4398-A306-ABCA7FA13BF2";
name = Regular;
paths = (
{
closed = 1;
nodes = (
"117 738 LINE",
"117 742 LINE SMOOTH",
"117 752.666 OFFCURVE",
"113.167 761.833 OFFCURVE",
"105.5 769.5 CURVE SMOOTH",
"97.8333 777.166 OFFCURVE",
"88.6666 781 OFFCURVE",
"78 781 CURVE SMOOTH",
"67.3333 781 OFFCURVE",
"58.1666 777.166 OFFCURVE",
"50.5 769.5 CURVE SMOOTH",
"42.8333 761.839 OFFCURVE",
"39 752.672 OFFCURVE",
"39 742 CURVE SMOOTH",
"39 738 LINE",
"49 596 LINE",
"49 587.335 OFFCURVE",
"51.8333 580.169 OFFCURVE",
"57.5 574.5 CURVE SMOOTH",
"63.1666 568.833 OFFCURVE",
"70 566 OFFCURVE",
"78 566 CURVE SMOOTH",
"86 566 OFFCURVE",
"92.8333 568.833 OFFCURVE",
"98.4999 574.5 CURVE SMOOTH",
"104.167 580.166 OFFCURVE",
"107 587.333 OFFCURVE",
"107 596 CURVE"
);
},
{
closed = 1;
nodes = (
"234 738 LINE",
"234 742 LINE SMOOTH",
"234 752.666 OFFCURVE",
"230.167 761.833 OFFCURVE",
"222.5 769.5 CURVE SMOOTH",
"214.834 777.166 OFFCURVE",
"205.667 781 OFFCURVE",
"195 781 CURVE SMOOTH",
"184.334 781 OFFCURVE",
"175.167 777.166 OFFCURVE",
"167.5 769.5 CURVE SMOOTH",
"159.833 761.839 OFFCURVE",
"156 752.672 OFFCURVE",
"156 742 CURVE SMOOTH",
"156 738 LINE",
"166 596 LINE",
"166 587.335 OFFCURVE",
"168.833 580.169 OFFCURVE",
"174.5 574.5 CURVE SMOOTH",
"180.167 568.833 OFFCURVE",
"187 566 OFFCURVE",
"195 566 CURVE SMOOTH",
"203.667 566 OFFCURVE",
"210.833 568.833 OFFCURVE",
"216.5 574.5 CURVE SMOOTH",
"222.167 580.166 OFFCURVE",
"225 587.333 OFFCURVE",
"225 596 CURVE"
);
}
);
width = 273;
}
);
unicode = 0022;
},
{
glyphname = numbersign;
layers = (
{
layerId = "1285D0D6-ECBB-4398-A306-ABCA7FA13BF2";
name = Regular;
paths = (
{
closed = 1;
nodes = (
"225 234 LINE",
"342 234 LINE",
"307 39 LINE SMOOTH",
"305 28.3333 OFFCURVE",
"307.167 19.1667 OFFCURVE",
"313.5 11.5 CURVE SMOOTH",
"319.833 3.83333 OFFCURVE",
"328.333 0 OFFCURVE",
"339 0 CURVE SMOOTH",
"349.666 0 OFFCURVE",
"359.5 3.83333 OFFCURVE",
"368.5 11.5 CURVE SMOOTH",
"377.5 19.1667 OFFCURVE",
"383 28.3333 OFFCURVE",
"385 39 CURVE SMOOTH",
"420 234 LINE",
"498 234 LINE SMOOTH",
"508.666 234 OFFCURVE",
"518.5 237.833 OFFCURVE",
"527.5 245.5 CURVE SMOOTH",
"536.5 253.167 OFFCURVE",
"542 262.333 OFFCURVE",
"544 273 CURVE SMOOTH",
"546 284.333 OFFCURVE",
"543.833 293.667 OFFCURVE",
"537.5 301 CURVE SMOOTH",
"531.166 308.333 OFFCURVE",
"522.666 312 OFFCURVE",
"512 312 CURVE SMOOTH",
"434 312 LINE",
"461 469 LINE",
"539 469 LINE SMOOTH",
"549.666 469 OFFCURVE",
"559.666 472.833 OFFCURVE",
"569 480.5 CURVE SMOOTH",
"578.324 488.165 OFFCURVE",
"583.657 497.331 OFFCURVE",
"585 508 CURVE",
"585 515 LINE SMOOTH",
"585 523 OFFCURVE",
"583 530 OFFCURVE",
"579 536 CURVE",
"572.335 543.333 OFFCURVE",
"563.669 547 OFFCURVE",
"553 547 CURVE SMOOTH",
"475 547 LINE",
"509 742 LINE SMOOTH",
"511 752.666 OFFCURVE",
"508.833 761.833 OFFCURVE",
"502.5 769.5 CURVE SMOOTH",
"496.166 777.166 OFFCURVE",
"487.666 781 OFFCURVE",
"477 781 CURVE SMOOTH",
"466.333 781 OFFCURVE",
"456.5 777.166 OFFCURVE",
"447.5 769.5 CURVE SMOOTH",
"438.5 761.839 OFFCURVE",
"433 752.672 OFFCURVE",
"431 742 CURVE SMOOTH",
"397 547 LINE",
"280 547 LINE",
"314 742 LINE SMOOTH",
"316 752.666 OFFCURVE",
"313.833 761.833 OFFCURVE",
"307.5 769.5 CURVE SMOOTH",
"301.167 777.166 OFFCURVE",
"292.667 781 OFFCURVE",
"282 781 CURVE SMOOTH",
"271.333 781 OFFCURVE",
"261.5 777.166 OFFCURVE",
"252.5 769.5 CURVE SMOOTH",
"243.5 761.839 OFFCURVE",
"238 752.672 OFFCURVE",
"236 742 CURVE SMOOTH",
"202 547 LINE",
"124 547 LINE SMOOTH",
"112.667 547 OFFCURVE",
"102.5 543.166 OFFCURVE",
"93.4999 535.5 CURVE SMOOTH",
"84.5 527.837 OFFCURVE",
"79 518.67 OFFCURVE",
"77 508 CURVE",
"75.6666 497.333 OFFCURVE",
"78 488.166 OFFCURVE",
"84 480.5 CURVE SMOOTH",
"90 472.833 OFFCURVE",
"98.3333 469 OFFCURVE",
"109 469 CURVE SMOOTH",
"187 469 LINE",
"160 312 LINE",
"82 312 LINE SMOOTH",
"71.3333 312 OFFCURVE",
"61.5 308.333 OFFCURVE",
"52.5 301 CURVE SMOOTH",
"43.5 293.668 OFFCURVE",
"38 284.334 OFFCURVE",
"36 273 CURVE",
"36 266 LINE SMOOTH",
"36 258 OFFCURVE",
"38.3333 251.333 OFFCURVE",
"43 246 CURVE",
"49 238 OFFCURVE",
"57.3333 234 OFFCURVE",
"68 234 CURVE SMOOTH",
"146 234 LINE",
"112 39 LINE SMOOTH",
"110 28.3333 OFFCURVE",
"112.167 19.1667 OFFCURVE",
"118.5 11.5 CURVE SMOOTH",
"124.833 3.83333 OFFCURVE",
"133.333 0 OFFCURVE",
"144 0 CURVE SMOOTH",
"154.667 0 OFFCURVE",
"164.5 3.83333 OFFCURVE",
"173.5 11.5 CURVE SMOOTH",
"182.5 19.1667 OFFCURVE",
"188 28.3333 OFFCURVE",
"190 39 CURVE SMOOTH"
);
},
{
closed = 1;
nodes = (
"266 469 LINE",
"383 469 LINE",
"355 312 LINE",
"238 312 LINE"
);
}
);
width = 625;
}
);
unicode = 0023;
},
{
glyphname = dollar;
layers = (
{
layerId = "1285D0D6-ECBB-4398-A306-ABCA7FA13BF2";
name = Regular;
paths = (
{
closed = 1;
nodes = (
"234 0 LINE",
"234 -39 LINE SMOOTH",
"234 -50 OFFCURVE",
"237.833 -59 OFFCURVE",
"245.5 -67 CURVE SMOOTH",
"253.167 -74 OFFCURVE",
"262.333 -78 OFFCURVE",
"273 -78 CURVE SMOOTH",
"284.333 -78 OFFCURVE",
"293.667 -74 OFFCURVE",
"301 -67 CURVE SMOOTH",
"308.333 -59 OFFCURVE",
"312 -50 OFFCURVE",
"312 -39 CURVE SMOOTH",
"312 9.99999 LINE",
"342 18.6667 OFFCURVE",
"370 34 OFFCURVE",
"396 56 CURVE SMOOTH",
"445.333 97.9999 OFFCURVE",
"472.666 151 OFFCURVE",
"478 215 CURVE SMOOTH",
"478.666 223 OFFCURVE",
"479 230.667 OFFCURVE",
"479 238 CURVE SMOOTH",
"479 293.333 OFFCURVE",
"460.333 342.666 OFFCURVE",
"423 386 CURVE SMOOTH",
"392.333 422 OFFCURVE",
"355.333 446.333 OFFCURVE",
"312 459 CURVE",
"312 695 LINE",
"331.333 689 OFFCURVE",
"348 677.666 OFFCURVE",
"362 661 CURVE SMOOTH",
"366.666 655.666 OFFCURVE",
"370.666 650.333 OFFCURVE",
"374 645 CURVE",
"375.333 642.353 OFFCURVE",
"377.333 639.686 OFFCURVE",
"380 637 CURVE SMOOTH",
"388 629 OFFCURVE",
"397.333 625 OFFCURVE",
"408 625 CURVE SMOOTH",
"418.665 625 OFFCURVE",
"427.831 628.833 OFFCURVE",
"435.5 636.5 CURVE SMOOTH",
"443.166 644.166 OFFCURVE",
"447 653.333 OFFCURVE",
"447 664 CURVE SMOOTH",
"447 672 OFFCURVE",
"445 679 OFFCURVE",
"441 685 CURVE",
"435.667 694.333 OFFCURVE",
"429.333 703 OFFCURVE",
"422 711 CURVE",
"392 746.333 OFFCURVE",
"355.333 768 OFFCURVE",
"312 776 CURVE",
"312 820 LINE SMOOTH",
"312 830.666 OFFCURVE",
"308.333 839.833 OFFCURVE",
"301 847.5 CURVE SMOOTH",
"293.668 855.166 OFFCURVE",
"284.334 859 OFFCURVE",
"273 859 CURVE SMOOTH",
"262.333 859 OFFCURVE",
"253.167 855.166 OFFCURVE",
"245.5 847.5 CURVE SMOOTH",
"237.833 839.839 OFFCURVE",
"234 830.673 OFFCURVE",
"234 820 CURVE SMOOTH",
"234 777 LINE",
"202.667 771 OFFCURVE",
"173.333 756.666 OFFCURVE",
"146 734 CURVE SMOOTH",
"105.333 699.333 OFFCURVE",
"82.6666 655 OFFCURVE",
"78 601 CURVE SMOOTH",
"74 547 OFFCURVE",
"89.3333 499.333 OFFCURVE",
"124 458 CURVE SMOOTH",
"154 423.333 OFFCURVE",
"190.667 401.666 OFFCURVE",
"234 393 CURVE",
"234 79 LINE",
"189.333 82.3333 OFFCURVE",
"153 100.667 OFFCURVE",
"125 134 CURVE",
"119.667 139.333 OFFCURVE",
"115 145 OFFCURVE",
"111 151 CURVE SMOOTH",
"103 163 OFFCURVE",
"92 169 OFFCURVE",
"78 169 CURVE SMOOTH",
"67.3333 169 OFFCURVE",
"58.1666 165.167 OFFCURVE",
"50.5 157.5 CURVE SMOOTH",
"42.8333 149.834 OFFCURVE",
"39 140.667 OFFCURVE",
"39 130 CURVE SMOOTH",
"39 121.333 OFFCURVE",
"41.6666 113.667 OFFCURVE",
"47 107 CURVE",
"52.3333 98.3333 OFFCURVE",
"58.3333 90.3333 OFFCURVE",
"65 83 CURVE SMOOTH",
"107 33.6667 OFFCURVE",
"160.333 6.33332 OFFCURVE",
"225 0.999999 CURVE",
"227.667 0.333298 OFFCURVE",
"230.667 -3 OFFCURVE",
"0 0 CURVE"
);
},
{
closed = 1;
nodes = (
"234 474 LINE",
"214.667 480.665 OFFCURVE",
"198 492.332 OFFCURVE",
"184 509 CURVE SMOOTH",
"162.667 533.666 OFFCURVE",
"153.333 562.333 OFFCURVE",
"156 595 CURVE SMOOTH",
"158.667 627 OFFCURVE",
"172.333 653.333 OFFCURVE",
"197 674 CURVE SMOOTH",
"208.333 684 OFFCURVE",
"220.666 691.333 OFFCURVE",
"234 696 CURVE"
);
},
{
closed = 1;
nodes = (
"312 375 LINE",
"331.333 366.333 OFFCURVE",
"348.666 353.333 OFFCURVE",
"364 336 CURVE SMOOTH",
"391.333 303.333 OFFCURVE",
"403.333 265.333 OFFCURVE",
"400 222 CURVE SMOOTH",
"396.667 178.667 OFFCURVE",
"378.334 143.333 OFFCURVE",
"345 116 CURVE",
"335 106.667 OFFCURVE",
"324 99.3334 OFFCURVE",
"312 93.9999 CURVE"
);
}
);
width = 518;
}
);
unicode = 0024;
},
{
glyphname = percent;
layers = (
{
layerId = "1285D0D6-ECBB-4398-A306-ABCA7FA13BF2";
name = Regular;
paths = (
{
closed = 1;
nodes = (
"430 640 OFFCURVE",
"410.833 686 OFFCURVE",
"372.5 724 CURVE SMOOTH",
"334.166 762 OFFCURVE",
"288 781 OFFCURVE",
"234 781 CURVE SMOOTH",
"180 781 OFFCURVE",
"134 762 OFFCURVE",
"95.9999 724 CURVE SMOOTH",
"58 686 OFFCURVE",
"39 640 OFFCURVE",
"39 586 CURVE SMOOTH",
"39 532 OFFCURVE",
"58 486 OFFCURVE",
"95.9999 448 CURVE SMOOTH",
"134 410 OFFCURVE",
"180 391 OFFCURVE",
"234 391 CURVE SMOOTH",
"288 391 OFFCURVE",
"334.166 410 OFFCURVE",
"372.5 448 CURVE SMOOTH",
"410.833 486 OFFCURVE",
"430 532 OFFCURVE",
"430 586 CURVE SMOOTH"
);
},
{
closed = 1;
nodes = (
"430 141 OFFCURVE",
"449 94.9999 OFFCURVE",
"487 57 CURVE SMOOTH",
"525 19 OFFCURVE",
"571 0 OFFCURVE",
"625 0 CURVE SMOOTH",
"679 0 OFFCURVE",
"725 19 OFFCURVE",
"763 57 CURVE SMOOTH",
"801 94.9999 OFFCURVE",
"820 141 OFFCURVE",
"820 195 CURVE SMOOTH",
"820 249 OFFCURVE",
"801 295.167 OFFCURVE",
"763 333.5 CURVE SMOOTH",
"725 371.833 OFFCURVE",
"679 391 OFFCURVE",
"625 391 CURVE SMOOTH",
"571 391 OFFCURVE",
"525 371.833 OFFCURVE",
"487 333.5 CURVE SMOOTH",
"449 295.167 OFFCURVE",
"430 249 OFFCURVE",
"430 195 CURVE SMOOTH"
);
},
{
closed = 1;
nodes = (
"266.667 703 OFFCURVE",
"294.5 691.5 OFFCURVE",
"317.5 668.5 CURVE SMOOTH",
"340.5 645.5 OFFCURVE",
"352 618 OFFCURVE",
"352 586 CURVE SMOOTH",
"352 554 OFFCURVE",
"340.5 526.5 OFFCURVE",
"317.5 503.5 CURVE SMOOTH",
"294.5 480.5 OFFCURVE",
"266.667 469 OFFCURVE",
"234 469 CURVE SMOOTH",
"202 469 OFFCURVE",
"174.5 480.5 OFFCURVE",
"151.5 503.5 CURVE SMOOTH",
"128.5 526.5 OFFCURVE",
"117 554 OFFCURVE",
"117 586 CURVE SMOOTH",
"117 618 OFFCURVE",
"128.5 645.5 OFFCURVE",
"151.5 668.5 CURVE SMOOTH",
"174.5 691.5 OFFCURVE",
"202 703 OFFCURVE",
"234 703 CURVE SMOOTH"
);
},
{
closed = 1;
nodes = (
"657 312 OFFCURVE",
"684.5 300.667 OFFCURVE",
"707.5 278 CURVE SMOOTH",
"730.5 255.333 OFFCURVE",
"742 227.667 OFFCURVE",
"742 195 CURVE SMOOTH",
"742 163 OFFCURVE",
"730.5 135.5 OFFCURVE",
"707.5 112.5 CURVE SMOOTH",
"684.5 89.5 OFFCURVE",
"657 78 OFFCURVE",
"625 78 CURVE SMOOTH",
"593 78 OFFCURVE",
"565.5 89.5 OFFCURVE",
"542.5 112.5 CURVE SMOOTH",
"519.5 135.5 OFFCURVE",
"508 163 OFFCURVE",
"508 195 CURVE SMOOTH",
"508 227.667 OFFCURVE",
"519.5 255.333 OFFCURVE",
"542.5 278 CURVE SMOOTH",
"565.5 300.667 OFFCURVE",
"593 312 OFFCURVE",
"625 312 CURVE SMOOTH"
);
},
{
closed = 1;
nodes = (
"166.667 0 OFFCURVE",
"176.667 4.33333 OFFCURVE",
"186 13 CURVE",
"734 719 LINE SMOOTH",
"739.333 725.666 OFFCURVE",
"742 733.333 OFFCURVE",
"742 742 CURVE SMOOTH",
"742 752.666 OFFCURVE",
"738.166 761.833 OFFCURVE",
"730.5 769.5 CURVE SMOOTH",
"722.838 777.166 OFFCURVE",
"713.672 781 OFFCURVE",
"703 781 CURVE SMOOTH",
"691 781 OFFCURVE",
"680.333 775.666 OFFCURVE",
"671 765 CURVE",
"127 65 LINE",
"120.333 57.6666 OFFCURVE",
"117 49 OFFCURVE",
"117 39 CURVE SMOOTH",
"117 28.3333 OFFCURVE",
"120.833 19.1667 OFFCURVE",
"128.5 11.5 CURVE SMOOTH",
"136.167 3.83333 OFFCURVE",
"145.333 0 OFFCURVE",
"156 0 CURVE SMOOTH"
);
}
);
width = 859;
}
);
unicode = 0025;
},
{
glyphname = ampersand;
layers = (
{
layerId = "1285D0D6-ECBB-4398-A306-ABCA7FA13BF2";
name = Regular;
paths = (
{
closed = 1;
nodes = (
"185 537 LINE SMOOTH",
"165.667 555.666 OFFCURVE",
"156 578.333 OFFCURVE",
"156 605 CURVE SMOOTH",
"156 632.333 OFFCURVE",
"165.5 655.5 OFFCURVE",
"184.5 674.5 CURVE SMOOTH",
"203.5 693.5 OFFCURVE",
"226.667 703 OFFCURVE",
"254 703 CURVE SMOOTH",
"280.667 703 OFFCURVE",
"303.667 693.5 OFFCURVE",
"323 674.5 CURVE SMOOTH",
"342.333 655.5 OFFCURVE",
"352 632.333 OFFCURVE",
"352 605 CURVE SMOOTH",
"352 575 OFFCURVE",
"335.666 547 OFFCURVE",
"303 521 CURVE SMOOTH",
"245 476 LINE"
);
},
{
closed = 1;
nodes = (
"418 191 LINE",
"351 118 LINE",
"324.333 91.3333 OFFCURVE",
"292 78 OFFCURVE",
"254 78 CURVE SMOOTH",
"216 78 OFFCURVE",
"183.667 91.3333 OFFCURVE",
"157 118 CURVE SMOOTH",
"130.333 144.667 OFFCURVE",
"117 180.333 OFFCURVE",
"117 225 CURVE SMOOTH",
"117 262.333 OFFCURVE",
"138.667 297.667 OFFCURVE",
"182 331 CURVE SMOOTH",
"237 373 LINE"
);
},
{
closed = 1;
nodes = (
"299 421 LINE",
"358 466 LINE",
"406 507.333 OFFCURVE",
"430 553.666 OFFCURVE",
"430 605 CURVE SMOOTH",
"430 653.666 OFFCURVE",
"412.833 695.166 OFFCURVE",
"378.5 729.5 CURVE SMOOTH",
"344.166 763.833 OFFCURVE",
"302.667 781 OFFCURVE",
"254 781 CURVE SMOOTH",
"205.333 781 OFFCURVE",
"163.833 763.833 OFFCURVE",
"129.5 729.5 CURVE SMOOTH",
"95.1666 695.166 OFFCURVE",
"78 653.666 OFFCURVE",
"78 605 CURVE SMOOTH",
"78 557 OFFCURVE",
"94.9999 515.666 OFFCURVE",
"129 481 CURVE SMOOTH",
"183 427 LINE",
"131 386 LINE SMOOTH",
"69.6666 337.333 OFFCURVE",
"39 283.667 OFFCURVE",
"39 225 CURVE SMOOTH",
"39 159 OFFCURVE",
"60 105 OFFCURVE",
"102 63 CURVE SMOOTH",
"144 21 OFFCURVE",
"194.667 0 OFFCURVE",
"254 0 CURVE SMOOTH",
"313.333 0 OFFCURVE",
"364 21 OFFCURVE",
"406 63 CURVE SMOOTH",
"474 135 LINE",
"598 11 LINE SMOOTH",
"605.333 3.66667 OFFCURVE",
"614.333 0 OFFCURVE",
"625 0 CURVE SMOOTH",
"635.666 0 OFFCURVE",
"644.833 3.83333 OFFCURVE",
"652.5 11.5 CURVE SMOOTH",
"660.166 19.1667 OFFCURVE",
"664 28.3333 OFFCURVE",
"664 39 CURVE SMOOTH",
"664 49.6666 OFFCURVE",
"660.333 58.3333 OFFCURVE",
"653 65 CURVE",
"527 193 LINE",
"615 286 LINE SMOOTH",
"621.666 293.333 OFFCURVE",
"625 302 OFFCURVE",
"625 312 CURVE SMOOTH",
"625 323.333 OFFCURVE",
"621.166 332.833 OFFCURVE",
"613.5 340.5 CURVE SMOOTH",
"605.838 348.166 OFFCURVE",
"596.671 352 OFFCURVE",
"586 352 CURVE SMOOTH",
"575.333 352 OFFCURVE",
"566.333 348 OFFCURVE",
"559 340 CURVE SMOOTH",
"472 248 LINE"
);
}
);
width = 703;
}
);
unicode = 0026;
},
{
glyphname = quotesingle;
layers = (
{
layerId = "1285D0D6-ECBB-4398-A306-ABCA7FA13BF2";
name = Regular;
paths = (
{
closed = 1;
nodes = (
"117 738 LINE",
"117 742 LINE SMOOTH",
"117 752.666 OFFCURVE",
"113.167 761.833 OFFCURVE",
"105.5 769.5 CURVE SMOOTH",
"97.8333 777.166 OFFCURVE",
"88.6666 781 OFFCURVE",
"78 781 CURVE SMOOTH",
"67.3333 781 OFFCURVE",
"58.1666 777.166 OFFCURVE",
"50.5 769.5 CURVE SMOOTH",
"42.8333 761.839 OFFCURVE",
"39 752.672 OFFCURVE",
"39 742 CURVE SMOOTH",
"39 738 LINE",
"49 596 LINE",
"49 587.335 OFFCURVE",
"51.8333 580.169 OFFCURVE",
"57.5 574.5 CURVE SMOOTH",
"63.1666 568.833 OFFCURVE",
"70 566 OFFCURVE",
"78 566 CURVE SMOOTH",
"86 566 OFFCURVE",
"92.8333 568.833 OFFCURVE",
"98.4999 574.5 CURVE SMOOTH",
"104.167 580.166 OFFCURVE",
"107 587.333 OFFCURVE",
"107 596 CURVE"
);
}
);
width = 156;
}
);
unicode = 0027;
},
{
glyphname = parenleft;
layers = (
{
layerId = "1285D0D6-ECBB-4398-A306-ABCA7FA13BF2";
name = Regular;
paths = (
{
closed = 1;
nodes = (
"78.6666 595 OFFCURVE",
"39 434.667 OFFCURVE",
"39 274 CURVE SMOOTH",
"39 114 OFFCURVE",
"78.6666 -47 OFFCURVE",
"158 -208 CURVE",
"160 -213 OFFCURVE",
"163 -218 OFFCURVE",
"167 -223 CURVE",
"175 -230 OFFCURVE",
"184.333 -234 OFFCURVE",
"195 -234 CURVE SMOOTH",
"205.667 -234 OFFCURVE",
"214.833 -230 OFFCURVE",
"222.5 -223 CURVE SMOOTH",
"230.167 -215 OFFCURVE",
"234 -206 OFFCURVE",
"234 -195 CURVE SMOOTH",
"234 -188 OFFCURVE",
"232.333 -181 OFFCURVE",
"229 -175 CURVE",
"153.667 -26 OFFCURVE",
"116 124 OFFCURVE",
"116 274 CURVE SMOOTH",
"116 423.333 OFFCURVE",
"153.333 572.333 OFFCURVE",
"228 721 CURVE",
"231.333 727 OFFCURVE",
"233.333 734 OFFCURVE",
"234 742 CURVE",
"234 752.666 OFFCURVE",
"230.167 761.833 OFFCURVE",
"222.5 769.5 CURVE SMOOTH",
"214.834 777.166 OFFCURVE",
"205.667 781 OFFCURVE",
"195 781 CURVE SMOOTH",
"184.333 781 OFFCURVE",
"175 777.333 OFFCURVE",
"167 770 CURVE",
"163 765.333 OFFCURVE",
"160 760.333 OFFCURVE",
"158 755 CURVE"
);
}
);
width = 273;
}
);
unicode = 0028;
},
{
glyphname = parenright;
layers = (
{
layerId = "1285D0D6-ECBB-4398-A306-ABCA7FA13BF2";
name = Regular;
paths = (
{
closed = 1;
nodes = (
"113 760.333 OFFCURVE",
"110 765.333 OFFCURVE",
"106 770 CURVE",
"97.9999 777.333 OFFCURVE",
"88.6666 781 OFFCURVE",
"78 781 CURVE SMOOTH",
"67.3333 781 OFFCURVE",
"58.1666 777.166 OFFCURVE",
"50.5 769.5 CURVE SMOOTH",
"42.8333 761.839 OFFCURVE",
"39 752.672 OFFCURVE",
"39 742 CURVE",
"39.6666 734 OFFCURVE",
"41.6666 727 OFFCURVE",
"45 721 CURVE",
"119.667 572.333 OFFCURVE",
"157 423.333 OFFCURVE",
"157 274 CURVE SMOOTH",
"157 124 OFFCURVE",
"119.333 -26 OFFCURVE",
"44 -175 CURVE",
"40.6666 -181 OFFCURVE",
"39 -188 OFFCURVE",
"39 -195 CURVE SMOOTH",
"39 -206 OFFCURVE",
"42.8333 -215 OFFCURVE",
"50.5 -223 CURVE SMOOTH",
"58.1666 -230 OFFCURVE",
"67.3333 -234 OFFCURVE",
"78 -234 CURVE SMOOTH",
"88.6666 -234 OFFCURVE",
"97.9999 -230 OFFCURVE",
"106 -223 CURVE",
"109.333 -218 OFFCURVE",
"112.333 -213 OFFCURVE",
"115 -208 CURVE SMOOTH",
"194.333 -47 OFFCURVE",
"234 114 OFFCURVE",
"234 274 CURVE SMOOTH",
"234 434.666 OFFCURVE",
"194.333 595 OFFCURVE",
"115 755 CURVE"
);
}
);
width = 273;
}
);
unicode = 0029;
},
{
glyphname = asterisk;
layers = (
{
layerId = "1285D0D6-ECBB-4398-A306-ABCA7FA13BF2";
name = Regular;
paths = (
{
closed = 1;
nodes = (
"176 621 LINE",
"97.9999 566 LINE SMOOTH",
"93.9999 563.333 OFFCURVE",
"90.6666 560.333 OFFCURVE",
"88 557 CURVE SMOOTH",
"81.3333 548.334 OFFCURVE",
"78.6666 538.667 OFFCURVE",
"80 528 CURVE SMOOTH",
"81.3333 517.333 OFFCURVE",
"86.3333 508.666 OFFCURVE",
"94.9999 502 CURVE SMOOTH",
"101.667 496.666 OFFCURVE",
"109.333 494 OFFCURVE",
"118 494 CURVE SMOOTH",
"132.667 494 OFFCURVE",
"143 499 OFFCURVE",
"149 509 CURVE",
"152.332 512.333 OFFCURVE",
"154.665 516.333 OFFCURVE",
"156 521 CURVE",
"191 609 LINE",
"227 521 LINE",
"228.333 516.333 OFFCURVE",
"230.333 512.333 OFFCURVE",
"233 509 CURVE SMOOTH",
"239.667 500.333 OFFCURVE",
"248.333 495.333 OFFCURVE",
"259 494 CURVE",
"271 494 OFFCURVE",
"280.667 496.666 OFFCURVE",
"288 502 CURVE",
"296 508.666 OFFCURVE",
"300.667 517.333 OFFCURVE",
"302 528 CURVE SMOOTH",
"303.333 538.666 OFFCURVE",
"300.667 548.333 OFFCURVE",
"294 557 CURVE SMOOTH",
"291.333 560.333 OFFCURVE",
"288.333 563.333 OFFCURVE",
"285 566 CURVE",
"206 621 LINE",
"302 625 LINE",
"306 625 OFFCURVE",
"310.333 625.666 OFFCURVE",
"315 627 CURVE",
"325 630.333 OFFCURVE",
"332.333 637 OFFCURVE",
"337 647 CURVE SMOOTH",
"339.666 652.333 OFFCURVE",
"341 658 OFFCURVE",
"341 664 CURVE SMOOTH",
"341 668 OFFCURVE",
"340 672.333 OFFCURVE",
"338 677 CURVE",
"334.666 687 OFFCURVE",
"328.166 694.333 OFFCURVE",
"318.5 699 CURVE SMOOTH",
"308.833 703.666 OFFCURVE",
"299 704.333 OFFCURVE",
"289 701 CURVE",
"284.333 699 OFFCURVE",
"280.333 696.666 OFFCURVE",
"277 694 CURVE",
"200 637 LINE",
"228 729 LINE SMOOTH",
"229.333 733 OFFCURVE",
"230 737.333 OFFCURVE",
"230 742 CURVE SMOOTH",
"230 752.666 OFFCURVE",
"226.167 761.833 OFFCURVE",
"218.5 769.5 CURVE SMOOTH",
"210.834 777.166 OFFCURVE",
"201.667 781 OFFCURVE",
"191 781 CURVE SMOOTH",
"180.333 781 OFFCURVE",
"171.167 777.166 OFFCURVE",
"163.5 769.5 CURVE SMOOTH",
"155.833 761.839 OFFCURVE",
"152 752.672 OFFCURVE",
"152 742 CURVE SMOOTH",
"152 737.333 OFFCURVE",
"152.667 733 OFFCURVE",
"154 729 CURVE SMOOTH",
"182 637 LINE",
"105 694 LINE",
"102.333 696.666 OFFCURVE",
"98.6666 699 OFFCURVE",
"93.9999 701 CURVE",
"84 704.333 OFFCURVE",
"74 703.667 OFFCURVE",
"64 699 CURVE SMOOTH",
"54 694.333 OFFCURVE",
"47.3333 687 OFFCURVE",
"44 677 CURVE",
"42.6666 672.333 OFFCURVE",
"42 668 OFFCURVE",
"42 664 CURVE SMOOTH",
"42 658 OFFCURVE",
"43.3333 652.333 OFFCURVE",
"46 647 CURVE SMOOTH",
"50.6666 637 OFFCURVE",
"58 630.333 OFFCURVE",
"68 627 CURVE SMOOTH",
"72 625.666 OFFCURVE",
"76.3333 625 OFFCURVE",
"81 625 CURVE"
);
}
);
width = 381;
}
);
unicode = 002A;
},
{
glyphname = plus;
layers = (
{
layerId = "1285D0D6-ECBB-4398-A306-ABCA7FA13BF2";
name = Regular;
paths = (
{
closed = 1;
nodes = (
"234 430 LINE",
"78 430 LINE SMOOTH",
"67.3333 430 OFFCURVE",
"58.1666 426.166 OFFCURVE",
"50.5 418.5 CURVE SMOOTH",
"42.8333 410.833 OFFCURVE",
"39 401.666 OFFCURVE",
"39 391 CURVE SMOOTH",
"39 380.333 OFFCURVE",
"42.8333 371.166 OFFCURVE",
"50.5 363.5 CURVE SMOOTH",
"58.1666 355.833 OFFCURVE",
"67.3333 352 OFFCURVE",
"78 352 CURVE SMOOTH",
"234 352 LINE",
"234 195 LINE SMOOTH",
"234 184.334 OFFCURVE",
"237.833 175.167 OFFCURVE",
"245.5 167.5 CURVE SMOOTH",
"253.167 159.833 OFFCURVE",
"262.333 156 OFFCURVE",
"273 156 CURVE SMOOTH",
"284.333 156 OFFCURVE",
"293.667 159.833 OFFCURVE",
"301 167.5 CURVE SMOOTH",
"308.333 175.167 OFFCURVE",
"312 184.333 OFFCURVE",
"312 195 CURVE SMOOTH",
"312 352 LINE",
"469 352 LINE SMOOTH",
"479.665 352 OFFCURVE",
"488.831 355.833 OFFCURVE",
"496.5 363.5 CURVE SMOOTH",
"504.166 371.166 OFFCURVE",
"508 380.332 OFFCURVE",
"508 391 CURVE SMOOTH",
"508 401.665 OFFCURVE",
"504.166 410.832 OFFCURVE",
"496.5 418.5 CURVE SMOOTH",
"488.833 426.166 OFFCURVE",
"479.666 430 OFFCURVE",
"469 430 CURVE SMOOTH",
"312 430 LINE",
"312 586 LINE SMOOTH",
"312 596.666 OFFCURVE",
"308.333 605.833 OFFCURVE",
"301 613.5 CURVE SMOOTH",
"293.668 621.166 OFFCURVE",
"284.334 625 OFFCURVE",
"273 625 CURVE SMOOTH",
"262.333 625 OFFCURVE",
"253.167 621.166 OFFCURVE",
"245.5 613.5 CURVE SMOOTH",
"237.833 605.838 OFFCURVE",
"234 596.671 OFFCURVE",
"234 586 CURVE SMOOTH"
);
}
);
width = 547;
}
);
unicode = 002B;
},
{
glyphname = comma;
layers = (
{
layerId = "1285D0D6-ECBB-4398-A306-ABCA7FA13BF2";
name = Regular;
paths = (
{
closed = 1;
nodes = (
"86 -14 OFFCURVE",
"89.6666 -42 OFFCURVE",
"67 -67 CURVE SMOOTH",
"61.6666 -73 OFFCURVE",
"59 -80 OFFCURVE",
"59 -88 CURVE SMOOTH",
"59 -96 OFFCURVE",
"61.8333 -103 OFFCURVE",
"67.5 -109 CURVE SMOOTH",
"73.1666 -114 OFFCURVE",
"80 -117 OFFCURVE",
"88 -117 CURVE SMOOTH",
"99.3333 -117 OFFCURVE",
"108 -112 OFFCURVE",
"114 -102 CURVE SMOOTH",
"142 -59 OFFCURVE",
"156 -5 OFFCURVE",
"156 59 CURVE SMOOTH",
"156 75 OFFCURVE",
"150.333 88.6666 OFFCURVE",
"139 99.9999 CURVE SMOOTH",
"127.667 111.333 OFFCURVE",
"114 117 OFFCURVE",
"97.9999 117 CURVE SMOOTH",
"81.3333 117 OFFCURVE",
"67.3333 111.333 OFFCURVE",
"56 99.9999 CURVE SMOOTH",
"44.6666 88.6666 OFFCURVE",
"39 75 OFFCURVE",
"39 59 CURVE SMOOTH",
"39 42.3333 OFFCURVE",
"44.6666 28.3333 OFFCURVE",
"56 17 CURVE SMOOTH"
);
}
);
width = 195;
}
);
unicode = 002C;
},
{
glyphname = hyphen;
layers = (
{
layerId = "1285D0D6-ECBB-4398-A306-ABCA7FA13BF2";
name = Regular;
paths = (
{
closed = 1;
nodes = (
"312 234 LINE SMOOTH",
"323.333 234 OFFCURVE",
"332.833 237.833 OFFCURVE",
"340.5 245.5 CURVE SMOOTH",
"348.166 253.167 OFFCURVE",
"352 262.333 OFFCURVE",
"352 273 CURVE SMOOTH",
"352 284.333 OFFCURVE",
"348.166 293.667 OFFCURVE",
"340.5 301 CURVE SMOOTH",
"332.833 308.333 OFFCURVE",
"323.333 312 OFFCURVE",
"312 312 CURVE SMOOTH",
"78 312 LINE SMOOTH",
"67.3333 312 OFFCURVE",
"58.1666 308.333 OFFCURVE",
"50.5 301 CURVE SMOOTH",
"42.8333 293.668 OFFCURVE",
"39 284.334 OFFCURVE",
"39 273 CURVE SMOOTH",
"39 262.333 OFFCURVE",
"42.8333 253.167 OFFCURVE",
"50.5 245.5 CURVE SMOOTH",
"58.1666 237.833 OFFCURVE",
"67.3333 234 OFFCURVE",
"78 234 CURVE SMOOTH"
);
}
);
width = 391;
}
);
unicode = 002D;
},
{
glyphname = period;
layers = (
{
layerId = "1285D0D6-ECBB-4398-A306-ABCA7FA13BF2";
name = Regular;
paths = (
{
closed = 1;
nodes = (
"156 75 OFFCURVE",
"150.333 88.6666 OFFCURVE",
"139 99.9999 CURVE SMOOTH",
"127.667 111.333 OFFCURVE",
"114 117 OFFCURVE",
"97.9999 117 CURVE SMOOTH",
"81.3333 117 OFFCURVE",
"67.3333 111.333 OFFCURVE",
"56 99.9999 CURVE SMOOTH",
"44.6666 88.6666 OFFCURVE",
"39 75 OFFCURVE",
"39 59 CURVE SMOOTH",
"39 42.3333 OFFCURVE",
"44.6666 28.3333 OFFCURVE",
"56 17 CURVE SMOOTH",
"67.3333 5.66667 OFFCURVE",
"81.3333 0 OFFCURVE",
"97.9999 0 CURVE SMOOTH",
"114 0 OFFCURVE",
"127.667 5.66667 OFFCURVE",
"139 17 CURVE SMOOTH",
"150.333 28.3333 OFFCURVE",
"156 42.3333 OFFCURVE",
"156 59 CURVE SMOOTH"
);
}
);
width = 195;
}
);
unicode = 002E;
},
{
glyphname = slash;
layers = (
{
layerId = "1285D0D6-ECBB-4398-A306-ABCA7FA13BF2";
name = Regular;
paths = (
{
closed = 1;
nodes = (
"359.666 766.666 OFFCURVE",
"357 763 OFFCURVE",
"355 759 CURVE",
"42 -22 LINE SMOOTH",
"40 -27 OFFCURVE",
"39 -33 OFFCURVE",
"39 -39 CURVE SMOOTH",
"39 -50 OFFCURVE",
"42.8333 -59 OFFCURVE",
"50.5 -67 CURVE SMOOTH",
"58.1666 -74 OFFCURVE",
"67.3333 -78 OFFCURVE",
"78 -78 CURVE SMOOTH",
"88.6666 -78 OFFCURVE",
"97.9999 -74 OFFCURVE",
"106 -66 CURVE",
"109.333 -63 OFFCURVE",
"112 -60 OFFCURVE",
"114 -56 CURVE",
"426 726 LINE",
"428.666 730.666 OFFCURVE",
"430 736 OFFCURVE",
"430 742 CURVE SMOOTH",
"430 752.666 OFFCURVE",
"426.166 761.833 OFFCURVE",
"418.5 769.5 CURVE SMOOTH",
"410.833 777.166 OFFCURVE",
"401.666 781 OFFCURVE",
"391 781 CURVE SMOOTH",
"380.333 781 OFFCURVE",
"371 777.333 OFFCURVE",
"363 770 CURVE"
);
}
);
width = 469;
}
);
unicode = 002F;
},
{
glyphname = zero;
layers = (
{
layerId = "1285D0D6-ECBB-4398-A306-ABCA7FA13BF2";
name = Regular;
paths = (
{
closed = 1;
nodes = (
"39 234.333 OFFCURVE",
"71 123 OFFCURVE",
"135 57 CURVE SMOOTH",
"173 19 OFFCURVE",
"219 0 OFFCURVE",
"273 0 CURVE SMOOTH",
"327 0 OFFCURVE",
"373.333 19 OFFCURVE",
"412 57 CURVE SMOOTH",
"476 123 OFFCURVE",
"508 234.333 OFFCURVE",
"508 391 CURVE SMOOTH",
"508 547 OFFCURVE",
"476 658 OFFCURVE",
"412 724 CURVE SMOOTH",
"373.333 762 OFFCURVE",
"327 781 OFFCURVE",
"273 781 CURVE SMOOTH",
"219 781 OFFCURVE",
"173 762 OFFCURVE",
"135 724 CURVE SMOOTH",
"71 658 OFFCURVE",
"39 547 OFFCURVE",
"39 391 CURVE SMOOTH"
);
},
{
closed = 1;
nodes = (
"305.666 703 OFFCURVE",
"333.333 691.333 OFFCURVE",
"356 668 CURVE",
"405.333 613.333 OFFCURVE",
"430 521 OFFCURVE",
"430 391 CURVE SMOOTH",
"430 260.333 OFFCURVE",
"405.333 167.667 OFFCURVE",
"356 113 CURVE",
"333.333 89.6666 OFFCURVE",
"305.667 78 OFFCURVE",
"273 78 CURVE SMOOTH",
"241 78 OFFCURVE",
"213.333 89.6666 OFFCURVE",
"190 113 CURVE",
"141.333 167.667 OFFCURVE",
"117 260.333 OFFCURVE",
"117 391 CURVE SMOOTH",
"117 521 OFFCURVE",
"141.333 613.333 OFFCURVE",
"190 668 CURVE",
"213.333 691.333 OFFCURVE",
"241 703 OFFCURVE",
"273 703 CURVE SMOOTH"
);
}
);
width = 547;
}
);
unicode = 0030;
},
{
glyphname = one;
layers = (
{
layerId = "1285D0D6-ECBB-4398-A306-ABCA7FA13BF2";
name = Regular;
paths = (
{
closed = 1;
nodes = (
"234 742 LINE SMOOTH",
"234 752.666 OFFCURVE",
"230.167 761.833 OFFCURVE",
"222.5 769.5 CURVE SMOOTH",
"214.834 777.166 OFFCURVE",
"205.667 781 OFFCURVE",
"195 781 CURVE SMOOTH",
"189.667 781 OFFCURVE",
"185 780.333 OFFCURVE",
"181 779 CURVE SMOOTH",
"64 740 LINE",
"59.3333 738 OFFCURVE",
"55 735 OFFCURVE",
"51 731 CURVE SMOOTH",
"43 723 OFFCURVE",
"39 713.666 OFFCURVE",
"39 703 CURVE SMOOTH",
"39 692.334 OFFCURVE",
"42.8333 683.168 OFFCURVE",
"50.5 675.5 CURVE SMOOTH",
"58.1666 667.833 OFFCURVE",
"67.3333 664 OFFCURVE",
"78 664 CURVE SMOOTH",
"83.3333 664 OFFCURVE",
"88.3333 665 OFFCURVE",
"92.9999 667 CURVE",
"156 688 LINE",
"156 39 LINE SMOOTH",
"156 28.3333 OFFCURVE",
"159.833 19.1667 OFFCURVE",
"167.5 11.5 CURVE SMOOTH",
"175.167 3.83333 OFFCURVE",
"184.333 0 OFFCURVE",
"195 0 CURVE SMOOTH",
"205.667 0 OFFCURVE",
"214.833 3.83333 OFFCURVE",
"222.5 11.5 CURVE SMOOTH",
"230.167 19.1667 OFFCURVE",
"234 28.3333 OFFCURVE",
"234 39 CURVE SMOOTH"
);
}
);
width = 273;
}
);
unicode = 0031;
},
{
glyphname = two;
layers = (
{
layerId = "1285D0D6-ECBB-4398-A306-ABCA7FA13BF2";
name = Regular;
paths = (
{
closed = 1;
nodes = (
"167 78 LINE",
"439 381 LINE",
"485 427 OFFCURVE",
"508 482.333 OFFCURVE",
"508 547 CURVE SMOOTH",
"508 611.666 OFFCURVE",
"485.166 666.833 OFFCURVE",
"439.5 712.5 CURVE SMOOTH",
"393.833 758.166 OFFCURVE",
"338.333 781 OFFCURVE",
"273 781 CURVE SMOOTH",
"208.333 781 OFFCURVE",
"153.167 758.166 OFFCURVE",
"107.5 712.5 CURVE SMOOTH",
"61.8333 666.833 OFFCURVE",
"39 611.667 OFFCURVE",
"39 547 CURVE SMOOTH",
"39 536.337 OFFCURVE",
"42.8333 527.17 OFFCURVE",
"50.5 519.5 CURVE SMOOTH",
"58.1666 511.833 OFFCURVE",
"67.3333 508 OFFCURVE",
"78 508 CURVE SMOOTH",
"88.6665 508 OFFCURVE",
"97.8332 511.833 OFFCURVE",
"105.5 519.5 CURVE SMOOTH",
"113.167 527.166 OFFCURVE",
"117 536.333 OFFCURVE",
"117 547 CURVE SMOOTH",
"117 590.332 OFFCURVE",
"132.166 627.166 OFFCURVE",
"162.5 657.5 CURVE SMOOTH",
"192.833 687.833 OFFCURVE",
"229.666 703 OFFCURVE",
"273 703 CURVE SMOOTH",
"316.333 703 OFFCURVE",
"353.333 687.833 OFFCURVE",
"384 657.5 CURVE SMOOTH",
"414.666 627.166 OFFCURVE",
"430 590.333 OFFCURVE",
"430 547 CURVE SMOOTH",
"430 503.666 OFFCURVE",
"414.666 466.666 OFFCURVE",
"384 436 CURVE",
"50 67 LINE SMOOTH",
"42.6666 59 OFFCURVE",
"39 49.6666 OFFCURVE",
"39 39 CURVE SMOOTH",
"39 28.3333 OFFCURVE",
"42.8333 19.1667 OFFCURVE",
"50.5 11.5 CURVE SMOOTH",
"58.1666 3.83333 OFFCURVE",
"67.3333 0 OFFCURVE",
"78 0 CURVE SMOOTH",
"469 0 LINE SMOOTH",
"479.665 0 OFFCURVE",
"488.831 3.83333 OFFCURVE",
"496.5 11.5 CURVE SMOOTH",
"504.166 19.1667 OFFCURVE",
"508 28.3333 OFFCURVE",
"508 39 CURVE SMOOTH",
"508 49.6666 OFFCURVE",
"504.166 58.8333 OFFCURVE",
"496.5 66.5 CURVE SMOOTH",
"488.833 74.1666 OFFCURVE",
"479.666 78 OFFCURVE",
"469 78 CURVE SMOOTH"
);
}
);
width = 547;
}
);
unicode = 0032;
},
{
glyphname = three;
layers = (
{
layerId = "1285D0D6-ECBB-4398-A306-ABCA7FA13BF2";
name = Regular;
paths = (
{
closed = 1;
nodes = (
"316.333 391 OFFCURVE",
"353.333 375.666 OFFCURVE",
"384 345 CURVE SMOOTH",
"414.666 314.333 OFFCURVE",
"430 277.333 OFFCURVE",
"430 234 CURVE SMOOTH",
"430 190.667 OFFCURVE",
"414.666 153.833 OFFCURVE",
"384 123.5 CURVE SMOOTH",
"353.333 93.1666 OFFCURVE",
"316.333 78 OFFCURVE",
"273 78 CURVE SMOOTH",
"229.667 78 OFFCURVE",
"192.833 93.1666 OFFCURVE",
"162.5 123.5 CURVE SMOOTH",
"132.167 153.833 OFFCURVE",
"117 190.666 OFFCURVE",
"117 234 CURVE SMOOTH",
"117 244.667 OFFCURVE",
"113.167 253.833 OFFCURVE",
"105.5 261.5 CURVE SMOOTH",
"97.8333 269.167 OFFCURVE",
"88.6666 273 OFFCURVE",
"78 273 CURVE SMOOTH",
"67.3333 273 OFFCURVE",
"58.1666 269.167 OFFCURVE",
"50.5 261.5 CURVE SMOOTH",
"42.8333 253.834 OFFCURVE",
"39 244.667 OFFCURVE",
"39 234 CURVE SMOOTH",
"39 169.333 OFFCURVE",
"61.8333 114.167 OFFCURVE",
"107.5 68.5 CURVE SMOOTH",
"153.167 22.8333 OFFCURVE",
"208.333 0 OFFCURVE",
"273 0 CURVE SMOOTH",
"338.333 0 OFFCURVE",
"393.833 22.8333 OFFCURVE",
"439.5 68.5 CURVE SMOOTH",
"485.166 114.167 OFFCURVE",
"508 169.333 OFFCURVE",
"508 234 CURVE SMOOTH",
"508 299.333 OFFCURVE",
"485 354.666 OFFCURVE",
"439 400 CURVE SMOOTH",
"425.666 413.333 OFFCURVE",
"411.666 424.666 OFFCURVE",
"397 434 CURVE",
"445 477.999 OFFCURVE",
"469 528.666 OFFCURVE",
"469 586 CURVE SMOOTH",
"469 640 OFFCURVE",
"449.833 686 OFFCURVE",
"411.5 724 CURVE SMOOTH",
"373.166 762 OFFCURVE",
"327 781 OFFCURVE",
"273 781 CURVE SMOOTH",
"219 781 OFFCURVE",
"173 762 OFFCURVE",
"135 724 CURVE SMOOTH",
"96.9999 686 OFFCURVE",
"78 640 OFFCURVE",
"78 586 CURVE SMOOTH",
"78 575.337 OFFCURVE",
"81.8333 566.171 OFFCURVE",
"89.5 558.5 CURVE SMOOTH",
"97.1665 550.833 OFFCURVE",
"106.333 547 OFFCURVE",
"117 547 CURVE SMOOTH",
"127.667 547 OFFCURVE",
"136.833 550.833 OFFCURVE",
"144.5 558.5 CURVE SMOOTH",
"152.167 566.166 OFFCURVE",
"156 575.333 OFFCURVE",
"156 586 CURVE SMOOTH",
"156 618 OFFCURVE",
"167.5 645.5 OFFCURVE",
"190.5 668.5 CURVE SMOOTH",
"213.5 691.5 OFFCURVE",
"241 703 OFFCURVE",
"273 703 CURVE SMOOTH",
"305.667 703 OFFCURVE",
"333.5 691.5 OFFCURVE",
"356.5 668.5 CURVE SMOOTH",
"379.5 645.5 OFFCURVE",
"391 618 OFFCURVE",
"391 586 CURVE SMOOTH",
"391 554 OFFCURVE",
"379.5 526.5 OFFCURVE",
"356.5 503.5 CURVE SMOOTH",
"333.5 480.5 OFFCURVE",
"305.667 469 OFFCURVE",
"273 469 CURVE SMOOTH",
"262.333 469 OFFCURVE",
"253.167 465.166 OFFCURVE",
"245.5 457.5 CURVE SMOOTH",
"237.833 449.833 OFFCURVE",
"234 440.666 OFFCURVE",
"234 430 CURVE SMOOTH",
"234 419.333 OFFCURVE",
"237.833 410.166 OFFCURVE",
"245.5 402.5 CURVE SMOOTH",
"253.167 394.833 OFFCURVE",
"262.333 391 OFFCURVE",
"273 391 CURVE SMOOTH"
);
}
);
width = 547;
}
);
unicode = 0033;
},
{
glyphname = four;
layers = (
{
layerId = "1285D0D6-ECBB-4398-A306-ABCA7FA13BF2";
name = Regular;
paths = (
{
closed = 1;
nodes = (
"391 273 LINE",
"153 273 LINE",
"391 617 LINE"
);
},
{
closed = 1;
nodes = (
"391 195 LINE",
"391 39 LINE SMOOTH",
"391 28.3333 OFFCURVE",
"394.833 19.1667 OFFCURVE",
"402.5 11.5 CURVE SMOOTH",
"410.165 3.83333 OFFCURVE",
"419.332 0 OFFCURVE",
"430 0 CURVE SMOOTH",
"440.665 0 OFFCURVE",
"449.831 3.83333 OFFCURVE",
"457.5 11.5 CURVE SMOOTH",
"465.166 19.1667 OFFCURVE",
"469 28.3333 OFFCURVE",
"469 39 CURVE SMOOTH",
"469 195 LINE",
"547 195 LINE SMOOTH",
"557.666 195 OFFCURVE",
"566.833 198.833 OFFCURVE",
"574.5 206.5 CURVE SMOOTH",
"582.166 214.167 OFFCURVE",
"586 223.333 OFFCURVE",
"586 234 CURVE SMOOTH",
"586 244.667 OFFCURVE",
"582.166 253.833 OFFCURVE",
"574.5 261.5 CURVE SMOOTH",
"566.837 269.167 OFFCURVE",
"557.671 273 OFFCURVE",
"547 273 CURVE SMOOTH",
"469 273 LINE",
"469 742 LINE SMOOTH",
"469 752.666 OFFCURVE",
"465.166 761.833 OFFCURVE",
"457.5 769.5 CURVE SMOOTH",
"449.833 777.166 OFFCURVE",
"440.666 781 OFFCURVE",
"430 781 CURVE SMOOTH",
"416 781 OFFCURVE",
"405.333 775.666 OFFCURVE",
"398 765 CURVE SMOOTH",
"46 257 LINE SMOOTH",
"41.3333 250.334 OFFCURVE",
"39 242.667 OFFCURVE",
"39 234 CURVE SMOOTH",
"39 223.334 OFFCURVE",
"42.8333 214.167 OFFCURVE",
"50.5 206.5 CURVE SMOOTH",
"58.1666 198.833 OFFCURVE",
"67.3333 195 OFFCURVE",
"78 195 CURVE SMOOTH"
);
}
);
width = 625;
}
);
unicode = 0034;
},
{
glyphname = five;
layers = (
{
layerId = "1285D0D6-ECBB-4398-A306-ABCA7FA13BF2";
name = Regular;
paths = (
{
closed = 1;
nodes = (
"117 781 LINE SMOOTH",
"106.333 781 OFFCURVE",
"97.1666 777.166 OFFCURVE",
"89.5 769.5 CURVE SMOOTH",
"81.8333 761.839 OFFCURVE",
"78 752.672 OFFCURVE",
"78 742 CURVE SMOOTH",
"78 469 LINE SMOOTH",
"78 458.333 OFFCURVE",
"81.8333 449.166 OFFCURVE",
"89.5 441.5 CURVE SMOOTH",
"97.1665 433.833 OFFCURVE",
"106.333 430 OFFCURVE",
"117 430 CURVE SMOOTH",
"293 430 LINE SMOOTH",
"341.666 430 OFFCURVE",
"383.166 412.833 OFFCURVE",
"417.5 378.5 CURVE SMOOTH",
"451.833 344.166 OFFCURVE",
"469 302.667 OFFCURVE",
"469 254 CURVE SMOOTH",
"469 205.333 OFFCURVE",
"451.833 163.833 OFFCURVE",
"417.5 129.5 CURVE SMOOTH",
"383.166 95.1666 OFFCURVE",
"341.666 78 OFFCURVE",
"293 78 CURVE SMOOTH",
"244.333 77.9999 OFFCURVE",
"202.833 95.1666 OFFCURVE",
"168.5 129.5 CURVE SMOOTH",
"134.167 163.833 OFFCURVE",
"117 205.333 OFFCURVE",
"117 254 CURVE SMOOTH",
"117 264.665 OFFCURVE",
"113.167 273.832 OFFCURVE",
"105.5 281.5 CURVE SMOOTH",
"97.8333 289.167 OFFCURVE",
"88.6666 293 OFFCURVE",
"78 293 CURVE SMOOTH",
"67.3333 293 OFFCURVE",
"58.1666 289.167 OFFCURVE",
"50.5 281.5 CURVE SMOOTH",
"42.8333 273.833 OFFCURVE",
"39 264.667 OFFCURVE",
"39 254 CURVE SMOOTH",
"39 184 OFFCURVE",
"63.8333 124.167 OFFCURVE",
"113.5 74.5 CURVE SMOOTH",
"163.167 24.8333 OFFCURVE",
"223 0 OFFCURVE",
"293 0 CURVE SMOOTH",
"363 0 OFFCURVE",
"422.833 24.8333 OFFCURVE",
"472.5 74.5 CURVE SMOOTH",
"522.166 124.167 OFFCURVE",
"547 184 OFFCURVE",
"547 254 CURVE SMOOTH",
"547 324 OFFCURVE",
"522.166 383.833 OFFCURVE",
"472.5 433.5 CURVE SMOOTH",
"422.833 483.166 OFFCURVE",
"363 508 OFFCURVE",
"293 508 CURVE SMOOTH",
"156 508 LINE",
"156 703 LINE",
"469 703 LINE SMOOTH",
"479.665 703 OFFCURVE",
"488.831 706.833 OFFCURVE",
"496.5 714.5 CURVE SMOOTH",
"504.166 722.166 OFFCURVE",
"508 731.333 OFFCURVE",
"508 742 CURVE SMOOTH",
"508 752.666 OFFCURVE",
"504.166 761.833 OFFCURVE",
"496.5 769.5 CURVE SMOOTH",
"488.833 777.166 OFFCURVE",
"479.666 781 OFFCURVE",
"469 781 CURVE SMOOTH"
);
}
);
width = 586;
}
);
unicode = 0035;
},
{
glyphname = six;
layers = (
{
layerId = "1285D0D6-ECBB-4398-A306-ABCA7FA13BF2";
name = Regular;
paths = (
{
closed = 1;
nodes = (
"385 722 LINE",
"389 728 OFFCURVE",
"391 734.666 OFFCURVE",
"391 742 CURVE SMOOTH",
"391 752.666 OFFCURVE",
"387.166 761.833 OFFCURVE",
"379.5 769.5 CURVE SMOOTH",
"371.833 777.166 OFFCURVE",
"362.666 781 OFFCURVE",
"352 781 CURVE SMOOTH",
"340.667 781 OFFCURVE",
"331.333 777.333 OFFCURVE",
"324 770 CURVE SMOOTH",
"320.666 766.666 OFFCURVE",
"318 763.333 OFFCURVE",
"316 760 CURVE SMOOTH",
"77 362 LINE",
"51.6667 324.666 OFFCURVE",
"39 282 OFFCURVE",
"39 234 CURVE SMOOTH",
"39 169.333 OFFCURVE",
"61.8333 114.167 OFFCURVE",
"107.5 68.5 CURVE SMOOTH",
"153.167 22.8333 OFFCURVE",
"208.333 0 OFFCURVE",
"273 0 CURVE SMOOTH",
"338.333 0 OFFCURVE",
"393.833 22.8333 OFFCURVE",
"439.5 68.5 CURVE SMOOTH",
"485.166 114.167 OFFCURVE",
"508 169.333 OFFCURVE",
"508 234 CURVE SMOOTH",
"508 299.333 OFFCURVE",
"485.166 354.833 OFFCURVE",
"439.5 400.5 CURVE SMOOTH",
"393.833 446.166 OFFCURVE",
"338.333 469 OFFCURVE",
"273 469 CURVE SMOOTH",
"258.333 469 OFFCURVE",
"244 467.666 OFFCURVE",
"230 465 CURVE"
);
},
{
closed = 1;
nodes = (
"430 190.667 OFFCURVE",
"414.666 153.833 OFFCURVE",
"384 123.5 CURVE SMOOTH",
"353.333 93.1666 OFFCURVE",
"316.333 78 OFFCURVE",
"273 78 CURVE SMOOTH",
"229.667 78 OFFCURVE",
"192.833 93.1666 OFFCURVE",
"162.5 123.5 CURVE SMOOTH",
"132.167 153.833 OFFCURVE",
"117 190.666 OFFCURVE",
"117 234 CURVE SMOOTH",
"117 277.333 OFFCURVE",
"132.166 314.333 OFFCURVE",
"162.5 345 CURVE SMOOTH",
"192.833 375.666 OFFCURVE",
"229.666 391 OFFCURVE",
"273 391 CURVE SMOOTH",
"316.333 391 OFFCURVE",
"353.333 375.666 OFFCURVE",
"384 345 CURVE SMOOTH",
"414.666 314.333 OFFCURVE",
"430 277.333 OFFCURVE",
"430 234 CURVE SMOOTH"
);
}
);
width = 547;
}
);
unicode = 0036;
},
{
glyphname = seven;
layers = (
{
layerId = "1285D0D6-ECBB-4398-A306-ABCA7FA13BF2";
name = Regular;
paths = (
{
closed = 1;
nodes = (
"108.667 14.6667 OFFCURVE",
"111 18 OFFCURVE",
"113 22 CURVE",
"502 721 LINE",
"506 727 OFFCURVE",
"508 734 OFFCURVE",
"508 742 CURVE SMOOTH",
"508 752.666 OFFCURVE",
"504.166 761.833 OFFCURVE",
"496.5 769.5 CURVE SMOOTH",
"488.833 777.166 OFFCURVE",
"479.666 781 OFFCURVE",
"469 781 CURVE SMOOTH",
"78 781 LINE SMOOTH",
"67.3333 781 OFFCURVE",
"58.1666 777.166 OFFCURVE",
"50.5 769.5 CURVE SMOOTH",
"42.8333 761.839 OFFCURVE",
"39 752.672 OFFCURVE",
"39 742 CURVE SMOOTH",
"39 731.339 OFFCURVE",
"42.8333 722.172 OFFCURVE",
"50.5 714.5 CURVE SMOOTH",
"58.1666 706.833 OFFCURVE",
"67.3333 703 OFFCURVE",
"78 703 CURVE SMOOTH",
"403 703 LINE",
"47 62 LINE",
"41.6666 54.6666 OFFCURVE",
"39 47 OFFCURVE",
"39 39 CURVE SMOOTH",
"39 28.3333 OFFCURVE",
"42.8333 19.1667 OFFCURVE",
"50.5 11.5 CURVE SMOOTH",
"58.1666 3.83333 OFFCURVE",
"67.3333 0 OFFCURVE",
"78 0 CURVE SMOOTH",
"88.6666 0 OFFCURVE",
"97.9999 4 OFFCURVE",
"106 12 CURVE SMOOTH"
);
}
);
width = 547;
}
);
unicode = 0037;
},
{
glyphname = eight;
layers = (
{
layerId = "1285D0D6-ECBB-4398-A306-ABCA7FA13BF2";
name = Regular;
paths = (
{
closed = 1;
nodes = (
"305.667 703 OFFCURVE",
"333.5 691.5 OFFCURVE",
"356.5 668.5 CURVE SMOOTH",
"379.5 645.5 OFFCURVE",
"391 618 OFFCURVE",
"391 586 CURVE SMOOTH",
"391 554 OFFCURVE",
"379.5 526.5 OFFCURVE",
"356.5 503.5 CURVE SMOOTH",
"333.5 480.5 OFFCURVE",
"305.667 469 OFFCURVE",
"273 469 CURVE SMOOTH",
"241 469 OFFCURVE",
"213.5 480.5 OFFCURVE",
"190.5 503.5 CURVE SMOOTH",
"167.5 526.5 OFFCURVE",
"156 554 OFFCURVE",
"156 586 CURVE SMOOTH",
"156 618 OFFCURVE",
"167.5 645.5 OFFCURVE",
"190.5 668.5 CURVE SMOOTH",
"213.5 691.5 OFFCURVE",
"241 703 OFFCURVE",
"273 703 CURVE SMOOTH"
);
},
{
closed = 1;
nodes = (
"316.333 391 OFFCURVE",
"353.333 375.666 OFFCURVE",
"384 345 CURVE SMOOTH",
"414.666 314.333 OFFCURVE",
"430 277.333 OFFCURVE",
"430 234 CURVE SMOOTH",
"430 190.667 OFFCURVE",
"414.666 153.833 OFFCURVE",
"384 123.5 CURVE SMOOTH",
"353.333 93.1666 OFFCURVE",
"316.333 78 OFFCURVE",
"273 78 CURVE SMOOTH",
"229.667 78 OFFCURVE",
"192.833 93.1666 OFFCURVE",
"162.5 123.5 CURVE SMOOTH",
"132.167 153.833 OFFCURVE",
"117 190.666 OFFCURVE",
"117 234 CURVE SMOOTH",
"117 277.333 OFFCURVE",
"132.166 314.333 OFFCURVE",
"162.5 345 CURVE SMOOTH",
"192.833 375.666 OFFCURVE",
"229.666 391 OFFCURVE",
"273 391 CURVE SMOOTH"
);
},
{
closed = 1;
nodes = (
"134.667 424.668 OFFCURVE",
"120.667 413.335 OFFCURVE",
"108 400 CURVE SMOOTH",
"62 354.667 OFFCURVE",
"39 299.333 OFFCURVE",
"39 234 CURVE SMOOTH",
"39 169.333 OFFCURVE",
"61.8333 114.167 OFFCURVE",
"107.5 68.5 CURVE SMOOTH",
"153.167 22.8333 OFFCURVE",
"208.333 0 OFFCURVE",
"273 0 CURVE SMOOTH",
"338.333 0 OFFCURVE",
"393.833 22.8333 OFFCURVE",
"439.5 68.5 CURVE SMOOTH",
"485.166 114.167 OFFCURVE",
"508 169.333 OFFCURVE",
"508 234 CURVE SMOOTH",
"508 299.333 OFFCURVE",
"485 354.666 OFFCURVE",
"439 400 CURVE SMOOTH",
"425.666 413.333 OFFCURVE",
"411.666 424.666 OFFCURVE",
"397 434 CURVE",
"401.666 438 OFFCURVE",
"406.666 442.666 OFFCURVE",
"412 448 CURVE SMOOTH",
"450 486 OFFCURVE",
"469 532 OFFCURVE",
"469 586 CURVE SMOOTH",
"469 640 OFFCURVE",
"449.833 686 OFFCURVE",
"411.5 724 CURVE SMOOTH",
"373.166 762 OFFCURVE",
"327 781 OFFCURVE",
"273 781 CURVE SMOOTH",
"219 781 OFFCURVE",
"173 762 OFFCURVE",
"135 724 CURVE SMOOTH",
"96.9999 686 OFFCURVE",
"78 640 OFFCURVE",
"78 586 CURVE SMOOTH",
"78 532 OFFCURVE",
"96.9999 486 OFFCURVE",
"135 448 CURVE SMOOTH",
"140.333 442.666 OFFCURVE",
"145.333 438 OFFCURVE",
"150 434 CURVE"
);
}
);
width = 547;
}
);
unicode = 0038;
},
{
glyphname = nine;
layers = (
{
layerId = "1285D0D6-ECBB-4398-A306-ABCA7FA13BF2";
name = Regular;
paths = (
{
closed = 1;
nodes = (
"162 59 LINE",
"158 53 OFFCURVE",
"156 46.3333 OFFCURVE",
"156 39 CURVE SMOOTH",
"156 28.3333 OFFCURVE",
"159.833 19.1667 OFFCURVE",
"167.5 11.5 CURVE SMOOTH",
"175.167 3.83333 OFFCURVE",
"184.333 0 OFFCURVE",
"195 0 CURVE SMOOTH",
"205.667 0 OFFCURVE",
"215 4 OFFCURVE",
"223 12 CURVE",
"226.331 14.6667 OFFCURVE",
"228.665 17.6667 OFFCURVE",
"230 21 CURVE",
"470 419 LINE",
"495.333 456.333 OFFCURVE",
"508 499 OFFCURVE",
"508 547 CURVE SMOOTH",
"508 611.666 OFFCURVE",
"485.166 666.833 OFFCURVE",
"439.5 712.5 CURVE SMOOTH",
"393.833 758.166 OFFCURVE",
"338.333 781 OFFCURVE",
"273 781 CURVE SMOOTH",
"208.333 781 OFFCURVE",
"153.167 758.166 OFFCURVE",
"107.5 712.5 CURVE SMOOTH",
"61.8333 666.833 OFFCURVE",
"39 611.667 OFFCURVE",
"39 547 CURVE SMOOTH",
"39 482.333 OFFCURVE",
"61.8333 427 OFFCURVE",
"107.5 381 CURVE SMOOTH",
"153.167 335 OFFCURVE",
"208.333 312 OFFCURVE",
"273 312 CURVE SMOOTH",
"288.333 312 OFFCURVE",
"303 313.333 OFFCURVE",
"317 316 CURVE"
);
},
{
closed = 1;
nodes = (
"117 590.332 OFFCURVE",
"132.166 627.166 OFFCURVE",
"162.5 657.5 CURVE SMOOTH",
"192.833 687.833 OFFCURVE",
"229.666 703 OFFCURVE",
"273 703 CURVE SMOOTH",
"316.333 703 OFFCURVE",
"353.333 687.833 OFFCURVE",
"384 657.5 CURVE SMOOTH",
"414.666 627.166 OFFCURVE",
"430 590.333 OFFCURVE",
"430 547 CURVE SMOOTH",
"430 503.667 OFFCURVE",
"414.666 466.834 OFFCURVE",
"384 436.5 CURVE SMOOTH",
"353.333 406.166 OFFCURVE",
"316.333 391 OFFCURVE",
"273 391 CURVE SMOOTH",
"229.667 391 OFFCURVE",
"192.833 406.166 OFFCURVE",
"162.5 436.5 CURVE SMOOTH",
"132.167 466.833 OFFCURVE",
"117 503.666 OFFCURVE",
"117 547 CURVE SMOOTH"
);
}
);
width = 547;
}
);
unicode = 0039;
},
{
glyphname = colon;
layers = (
{
layerId = "1285D0D6-ECBB-4398-A306-ABCA7FA13BF2";
name = Regular;
paths = (
{
closed = 1;
nodes = (
"156 75 OFFCURVE",
"150.333 88.6666 OFFCURVE",
"139 99.9999 CURVE SMOOTH",
"127.667 111.333 OFFCURVE",
"114 117 OFFCURVE",
"97.9999 117 CURVE SMOOTH",
"81.3333 117 OFFCURVE",
"67.3333 111.333 OFFCURVE",
"56 99.9999 CURVE SMOOTH",
"44.6666 88.6666 OFFCURVE",
"39 75 OFFCURVE",
"39 59 CURVE SMOOTH",
"39 42.3333 OFFCURVE",
"44.6666 28.3333 OFFCURVE",
"56 17 CURVE SMOOTH",
"67.3333 5.66667 OFFCURVE",
"81.3333 0 OFFCURVE",
"97.9999 0 CURVE SMOOTH",
"114 0 OFFCURVE",
"127.667 5.66667 OFFCURVE",
"139 17 CURVE SMOOTH",
"150.333 28.3333 OFFCURVE",
"156 42.3333 OFFCURVE",
"156 59 CURVE SMOOTH"
);
},
{
closed = 1;
nodes = (
"156 504.998 OFFCURVE",
"150.333 518.664 OFFCURVE",
"139 530 CURVE SMOOTH",
"127.667 541.333 OFFCURVE",
"114 547 OFFCURVE",
"97.9999 547 CURVE SMOOTH",
"81.3333 547 OFFCURVE",
"67.3333 541.333 OFFCURVE",
"56 530 CURVE SMOOTH",
"44.6666 518.666 OFFCURVE",
"39 505 OFFCURVE",
"39 489 CURVE SMOOTH",
"39 472.333 OFFCURVE",
"44.6666 458.333 OFFCURVE",
"56 447 CURVE SMOOTH",
"67.3333 435.666 OFFCURVE",
"81.3333 430 OFFCURVE",
"97.9999 430 CURVE SMOOTH",
"114 430 OFFCURVE",
"127.667 435.666 OFFCURVE",
"139 447 CURVE SMOOTH",
"150.333 458.333 OFFCURVE",
"156 472.333 OFFCURVE",
"156 489 CURVE SMOOTH"
);
}
);
width = 195;
}
);
unicode = 003A;
},
{
glyphname = semicolon;
layers = (
{
layerId = "1285D0D6-ECBB-4398-A306-ABCA7FA13BF2";
name = Regular;
paths = (
{
closed = 1;
nodes = (
"156 504.998 OFFCURVE",
"150.333 518.664 OFFCURVE",
"139 530 CURVE SMOOTH",
"127.667 541.333 OFFCURVE",
"114 547 OFFCURVE",
"97.9999 547 CURVE SMOOTH",
"81.3333 547 OFFCURVE",
"67.3333 541.333 OFFCURVE",
"56 530 CURVE SMOOTH",
"44.6666 518.666 OFFCURVE",
"39 505 OFFCURVE",
"39 489 CURVE SMOOTH",
"39 472.333 OFFCURVE",
"44.6666 458.333 OFFCURVE",
"56 447 CURVE SMOOTH",
"67.3333 435.666 OFFCURVE",
"81.3333 430 OFFCURVE",
"97.9999 430 CURVE SMOOTH",
"114 430 OFFCURVE",
"127.667 435.666 OFFCURVE",
"139 447 CURVE SMOOTH",
"150.333 458.333 OFFCURVE",
"156 472.333 OFFCURVE",
"156 489 CURVE SMOOTH"
);
},
{
closed = 1;
nodes = (
"86 -14 OFFCURVE",
"89.6666 -42 OFFCURVE",
"67 -67 CURVE SMOOTH",
"61.6666 -73 OFFCURVE",
"59 -80 OFFCURVE",
"59 -88 CURVE SMOOTH",
"59 -96 OFFCURVE",
"61.8333 -103 OFFCURVE",
"67.5 -109 CURVE SMOOTH",
"73.1666 -114 OFFCURVE",
"80 -117 OFFCURVE",
"88 -117 CURVE SMOOTH",
"97.9999 -117 OFFCURVE",
"106.667 -112 OFFCURVE",
"114 -102 CURVE",
"142 -59 OFFCURVE",
"156 -5 OFFCURVE",
"156 59 CURVE SMOOTH",
"156 75 OFFCURVE",
"150.333 88.6666 OFFCURVE",
"139 99.9999 CURVE SMOOTH",
"127.667 111.333 OFFCURVE",
"114 117 OFFCURVE",
"97.9999 117 CURVE SMOOTH",
"81.3333 117 OFFCURVE",
"67.3333 111.333 OFFCURVE",
"56 99.9999 CURVE SMOOTH",
"44.6666 88.6666 OFFCURVE",
"39 75 OFFCURVE",
"39 59 CURVE SMOOTH",
"39 42.3333 OFFCURVE",
"44.6666 28.3333 OFFCURVE",
"56 17 CURVE SMOOTH"
);
}
);
width = 195;
}
);
unicode = 003B;
},
{
glyphname = less;
layers = (
{
layerId = "1285D0D6-ECBB-4398-A306-ABCA7FA13BF2";
name = Regular;
paths = (
{
closed = 1;
nodes = (
"61 387 LINE SMOOTH",
"46.3333 377.666 OFFCURVE",
"39 366 OFFCURVE",
"39 352 CURVE SMOOTH",
"39 337.333 OFFCURVE",
"46.3333 325.333 OFFCURVE",
"61 316 CURVE SMOOTH",
"449 83 LINE SMOOTH",
"455 79.6666 OFFCURVE",
"461.666 78 OFFCURVE",
"469 78 CURVE SMOOTH",
"479.665 78 OFFCURVE",
"488.831 81.8333 OFFCURVE",
"496.5 89.5 CURVE SMOOTH",
"504.166 97.1665 OFFCURVE",
"508 106.333 OFFCURVE",
"508 117 CURVE SMOOTH",
"508 131 OFFCURVE",
"501.333 142.333 OFFCURVE",
"488 151 CURVE SMOOTH",
"154 352 LINE",
"488 552 LINE",
"501.333 560.666 OFFCURVE",
"508 572 OFFCURVE",
"508 586 CURVE SMOOTH",
"508 596.666 OFFCURVE",
"504.166 605.833 OFFCURVE",
"496.5 613.5 CURVE SMOOTH",
"488.833 621.166 OFFCURVE",
"479.666 625 OFFCURVE",
"469 625 CURVE SMOOTH",
"461.666 625 OFFCURVE",
"455 623.333 OFFCURVE",
"449 620 CURVE SMOOTH"
);
}
);
width = 547;
}
);
unicode = 003C;
},
{
glyphname = equal;
layers = (
{
layerId = "1285D0D6-ECBB-4398-A306-ABCA7FA13BF2";
name = Regular;
paths = (
{
closed = 1;
nodes = (
"430 430 LINE SMOOTH",
"440.665 430 OFFCURVE",
"449.831 433.833 OFFCURVE",
"457.5 441.5 CURVE SMOOTH",
"465.166 449.165 OFFCURVE",
"469 458.331 OFFCURVE",
"469 469 CURVE SMOOTH",
"469 479.665 OFFCURVE",
"465.166 488.831 OFFCURVE",
"457.5 496.5 CURVE SMOOTH",
"449.833 504.166 OFFCURVE",
"440.666 508 OFFCURVE",
"430 508 CURVE SMOOTH",
"78 508 LINE SMOOTH",
"67.3333 508 OFFCURVE",
"58.1666 504.166 OFFCURVE",
"50.5 496.5 CURVE SMOOTH",
"42.8333 488.833 OFFCURVE",
"39 479.666 OFFCURVE",
"39 469 CURVE SMOOTH",
"39 458.333 OFFCURVE",
"42.8333 449.166 OFFCURVE",
"50.5 441.5 CURVE SMOOTH",
"58.1666 433.833 OFFCURVE",
"67.3333 430 OFFCURVE",
"78 430 CURVE SMOOTH"
);
},
{
closed = 1;
nodes = (
"78 273 LINE SMOOTH",
"67.3333 273 OFFCURVE",
"58.1666 269.167 OFFCURVE",
"50.5 261.5 CURVE SMOOTH",
"42.8333 253.834 OFFCURVE",
"39 244.667 OFFCURVE",
"39 234 CURVE SMOOTH",
"39 223.334 OFFCURVE",
"42.8333 214.167 OFFCURVE",
"50.5 206.5 CURVE SMOOTH",
"58.1666 198.833 OFFCURVE",
"67.3333 195 OFFCURVE",
"78 195 CURVE SMOOTH",
"430 195 LINE SMOOTH",
"440.665 195 OFFCURVE",
"449.831 198.833 OFFCURVE",
"457.5 206.5 CURVE SMOOTH",
"465.166 214.167 OFFCURVE",
"469 223.333 OFFCURVE",
"469 234 CURVE SMOOTH",
"469 244.667 OFFCURVE",
"465.166 253.833 OFFCURVE",
"457.5 261.5 CURVE SMOOTH",
"449.833 269.167 OFFCURVE",
"440.666 273 OFFCURVE",
"430 273 CURVE SMOOTH"
);
}
);
width = 508;
}
);
unicode = 003D;
},
{
glyphname = greater;
layers = (
{
layerId = "1285D0D6-ECBB-4398-A306-ABCA7FA13BF2";
name = Regular;
paths = (
{
closed = 1;
nodes = (
"508 366 OFFCURVE",
"500.666 377.666 OFFCURVE",
"486 387 CURVE SMOOTH",
"97.9999 620 LINE SMOOTH",
"92 623.333 OFFCURVE",
"85.3333 625 OFFCURVE",
"78 625 CURVE SMOOTH",
"67.3333 625 OFFCURVE",
"58.1666 621.166 OFFCURVE",
"50.5 613.5 CURVE SMOOTH",
"42.8333 605.838 OFFCURVE",
"39 596.671 OFFCURVE",
"39 586 CURVE SMOOTH",
"39 572 OFFCURVE",
"45.6666 560.666 OFFCURVE",
"59 552 CURVE",
"393 352 LINE",
"59 151 LINE SMOOTH",
"45.6666 142.333 OFFCURVE",
"39 131 OFFCURVE",
"39 117 CURVE SMOOTH",
"39 106.333 OFFCURVE",
"42.8333 97.1666 OFFCURVE",
"50.5 89.5 CURVE SMOOTH",
"58.1666 81.8333 OFFCURVE",
"67.3333 78 OFFCURVE",
"78 78 CURVE SMOOTH",
"85.3333 78 OFFCURVE",
"92 79.6666 OFFCURVE",
"97.9999 83 CURVE SMOOTH",
"486 316 LINE SMOOTH",
"500.666 325.333 OFFCURVE",
"508 337.333 OFFCURVE",
"508 352 CURVE SMOOTH"
);
}
);
width = 547;
}
);
unicode = 003E;
},
{
glyphname = question;
layers = (
{
layerId = "1285D0D6-ECBB-4398-A306-ABCA7FA13BF2";
name = Regular;
paths = (
{
closed = 1;
nodes = (
"117 590.332 OFFCURVE",
"132.166 627.166 OFFCURVE",
"162.5 657.5 CURVE SMOOTH",
"192.833 687.833 OFFCURVE",
"229.666 703 OFFCURVE",
"273 703 CURVE SMOOTH",
"316.333 703 OFFCURVE",
"353.333 687.833 OFFCURVE",
"384 657.5 CURVE SMOOTH",
"414.666 627.166 OFFCURVE",
"430 590.333 OFFCURVE",
"430 547 CURVE SMOOTH",
"430 503.666 OFFCURVE",
"414.666 466.666 OFFCURVE",
"384 436 CURVE",
"303 361 LINE",
"257 315 OFFCURVE",
"234 259.667 OFFCURVE",
"234 195 CURVE SMOOTH",
"234 184.334 OFFCURVE",
"237.833 175.167 OFFCURVE",
"245.5 167.5 CURVE SMOOTH",
"253.167 159.833 OFFCURVE",
"262.333 156 OFFCURVE",
"273 156 CURVE SMOOTH",
"284.333 156 OFFCURVE",
"293.667 159.833 OFFCURVE",
"301 167.5 CURVE SMOOTH",
"308.333 175.167 OFFCURVE",
"312 184.333 OFFCURVE",
"312 195 CURVE SMOOTH",
"312 238.333 OFFCURVE",
"327.333 275.333 OFFCURVE",
"358 306 CURVE",
"439 381 LINE",
"485 427 OFFCURVE",
"508 482.333 OFFCURVE",
"508 547 CURVE SMOOTH",
"508 611.666 OFFCURVE",
"485.166 666.833 OFFCURVE",
"439.5 712.5 CURVE SMOOTH",
"393.833 758.166 OFFCURVE",
"338.333 781 OFFCURVE",
"273 781 CURVE SMOOTH",
"208.333 781 OFFCURVE",
"153.167 758.166 OFFCURVE",
"107.5 712.5 CURVE SMOOTH",
"61.8333 666.833 OFFCURVE",
"39 611.667 OFFCURVE",
"39 547 CURVE SMOOTH",
"39 536.337 OFFCURVE",
"42.8333 527.17 OFFCURVE",
"50.5 519.5 CURVE SMOOTH",
"58.1666 511.833 OFFCURVE",
"67.3333 508 OFFCURVE",
"78 508 CURVE SMOOTH",
"88.6665 508 OFFCURVE",
"97.8332 511.833 OFFCURVE",
"105.5 519.5 CURVE SMOOTH",
"113.167 527.166 OFFCURVE",
"117 536.333 OFFCURVE",
"117 547 CURVE SMOOTH"
);
},
{
closed = 1;
nodes = (
"332 75 OFFCURVE",
"326.333 88.6666 OFFCURVE",
"315 99.9999 CURVE SMOOTH",
"303.667 111.333 OFFCURVE",
"289.667 117 OFFCURVE",
"273 117 CURVE SMOOTH",
"257 117 OFFCURVE",
"243.333 111.333 OFFCURVE",
"232 99.9999 CURVE SMOOTH",
"220.667 88.6666 OFFCURVE",
"215 75 OFFCURVE",
"215 59 CURVE SMOOTH",
"215 42.3333 OFFCURVE",
"220.667 28.3333 OFFCURVE",
"232 17 CURVE SMOOTH",
"243.333 5.66667 OFFCURVE",
"257 0 OFFCURVE",
"273 0 CURVE SMOOTH",
"289.667 0 OFFCURVE",
"303.667 5.66667 OFFCURVE",
"315 17 CURVE SMOOTH",
"326.333 28.3333 OFFCURVE",
"332 42.3333 OFFCURVE",
"332 59 CURVE SMOOTH"
);
}
);
width = 547;
}
);
unicode = 003F;
},
{
glyphname = at;
layers = (
{
layerId = "1285D0D6-ECBB-4398-A306-ABCA7FA13BF2";
name = Regular;
paths = (
{
closed = 1;
nodes = (
"601 469 OFFCURVE",
"647 449.833 OFFCURVE",
"685 411.5 CURVE SMOOTH",
"723 373.166 OFFCURVE",
"742 327 OFFCURVE",
"742 273 CURVE SMOOTH",
"742 219 OFFCURVE",
"723 173 OFFCURVE",
"685 135 CURVE SMOOTH",
"647 96.9999 OFFCURVE",
"601 78 OFFCURVE",
"547 78 CURVE SMOOTH",
"493 78 OFFCURVE",
"447 96.9999 OFFCURVE",
"409 135 CURVE SMOOTH",
"371 173 OFFCURVE",
"352 219 OFFCURVE",
"352 273 CURVE SMOOTH",
"352 327 OFFCURVE",
"371 373.166 OFFCURVE",
"409 411.5 CURVE SMOOTH",
"447 449.833 OFFCURVE",
"493 469 OFFCURVE",
"547 469 CURVE SMOOTH"
);
},
{
closed = 1;
nodes = (
"742 1.33334 OFFCURVE",
"781 -39 OFFCURVE",
"859 -39 CURVE SMOOTH",
"989.666 -39 OFFCURVE",
"1055 65 OFFCURVE",
"1055 273 CURVE SMOOTH",
"1055 413.666 OFFCURVE",
"1005.33 533.5 OFFCURVE",
"906 632.5 CURVE SMOOTH",
"806.666 731.5 OFFCURVE",
"687 781 OFFCURVE",
"547 781 CURVE SMOOTH",
"406.333 781 OFFCURVE",
"286.5 731.5 OFFCURVE",
"187.5 632.5 CURVE SMOOTH",
"88.5 533.5 OFFCURVE",
"39 413.667 OFFCURVE",
"39 273 CURVE SMOOTH",
"39 133 OFFCURVE",
"88.5 13.5 OFFCURVE",
"187.5 -86 CURVE SMOOTH",
"286.5 -185 OFFCURVE",
"406.333 -234 OFFCURVE",
"547 -234 CURVE SMOOTH",
"623 -234 OFFCURVE",
"693 -219 OFFCURVE",
"757 -190 CURVE",
"762.333 -189 OFFCURVE",
"767 -186 OFFCURVE",
"771 -181 CURVE",
"778.333 -174 OFFCURVE",
"782 -165 OFFCURVE",
"782 -154 CURVE SMOOTH",
"782 -143 OFFCURVE",
"778.166 -134 OFFCURVE",
"770.5 -127 CURVE SMOOTH",
"762.839 -119 OFFCURVE",
"753.672 -115 OFFCURVE",
"743 -115 CURVE SMOOTH",
"735.666 -115 OFFCURVE",
"729.333 -117 OFFCURVE",
"724 -120 CURVE",
"670 -144 OFFCURVE",
"611 -156 OFFCURVE",
"547 -156 CURVE SMOOTH",
"428.333 -156 OFFCURVE",
"327 -114 OFFCURVE",
"243 -31 CURVE SMOOTH",
"159 53.1666 OFFCURVE",
"117 154.333 OFFCURVE",
"117 273 CURVE SMOOTH",
"117 392.333 OFFCURVE",
"159 493.833 OFFCURVE",
"243 577.5 CURVE SMOOTH",
"327 661.166 OFFCURVE",
"428.333 703 OFFCURVE",
"547 703 CURVE SMOOTH",
"665.666 703 OFFCURVE",
"767 661.166 OFFCURVE",
"851 577.5 CURVE SMOOTH",
"935 493.833 OFFCURVE",
"976.999 392.333 OFFCURVE",
"976.999 273 CURVE SMOOTH",
"976.999 117 OFFCURVE",
"937.666 39 OFFCURVE",
"859 39 CURVE SMOOTH",
"833 39 OFFCURVE",
"820 52 OFFCURVE",
"820 78 CURVE SMOOTH",
"820 273 LINE SMOOTH",
"820 349 OFFCURVE",
"793.333 413.666 OFFCURVE",
"740 467 CURVE SMOOTH",
"686.666 520.333 OFFCURVE",
"622.333 547 OFFCURVE",
"547 547 CURVE SMOOTH",
"471.666 547 OFFCURVE",
"407.166 520.333 OFFCURVE",
"353.5 467 CURVE SMOOTH",
"299.833 413.666 OFFCURVE",
"273 349 OFFCURVE",
"273 273 CURVE SMOOTH",
"273 197.667 OFFCURVE",
"299.833 133.333 OFFCURVE",
"353.5 80 CURVE SMOOTH",
"407.166 26.6667 OFFCURVE",
"471.666 0 OFFCURVE",
"547 0 CURVE SMOOTH",
"622.333 0 OFFCURVE",
"687.333 27.3333 OFFCURVE",
"742 82 CURVE"
);
}
);
width = 1094;
}
);
unicode = 0040;
},
{
glyphname = A;
layers = (
{
layerId = "1285D0D6-ECBB-4398-A306-ABCA7FA13BF2";
name = Regular;
paths = (
{
closed = 1;
nodes = (
"211 273 LINE",
"492 273 LINE",
"589 24 LINE SMOOTH",
"591 19.3333 OFFCURVE",
"594 15 OFFCURVE",
"598 11 CURVE SMOOTH",
"605.333 3.66667 OFFCURVE",
"614.333 0 OFFCURVE",
"625 0 CURVE SMOOTH",
"635.666 0 OFFCURVE",
"644.833 3.83333 OFFCURVE",
"652.5 11.5 CURVE SMOOTH",
"660.166 19.1667 OFFCURVE",
"664 28.3333 OFFCURVE",
"664 39 CURVE SMOOTH",
"664 45 OFFCURVE",
"663 50.6666 OFFCURVE",
"661 56 CURVE SMOOTH",
"389 754 LINE",
"387 760 OFFCURVE",
"383.666 765.333 OFFCURVE",
"379 770 CURVE SMOOTH",
"371.666 777.333 OFFCURVE",
"362.666 781 OFFCURVE",
"352 781 CURVE SMOOTH",
"340.667 781 OFFCURVE",
"331.333 777.333 OFFCURVE",
"324 770 CURVE SMOOTH",
"319.333 765.333 OFFCURVE",
"316 760 OFFCURVE",
"314 754 CURVE",
"42 56 LINE SMOOTH",
"40 50.6666 OFFCURVE",
"39 45 OFFCURVE",
"39 39 CURVE SMOOTH",
"39 28.3333 OFFCURVE",
"42.8333 19.1667 OFFCURVE",
"50.5 11.5 CURVE SMOOTH",
"58.1666 3.83333 OFFCURVE",
"67.3333 0 OFFCURVE",
"78 0 CURVE SMOOTH",
"88.6666 0 OFFCURVE",
"97.9999 3.66667 OFFCURVE",
"106 11 CURVE",
"109.333 15 OFFCURVE",
"112 19.3333 OFFCURVE",
"114 24 CURVE SMOOTH"
);
},
{
closed = 1;
nodes = (
"461 352 LINE",
"242 352 LINE",
"352 634 LINE"
);
}
);
width = 703;
}
);
unicode = 0041;
},
{
glyphname = B;
layers = (
{
layerId = "1285D0D6-ECBB-4398-A306-ABCA7FA13BF2";
name = Regular;
paths = (
{
closed = 1;
nodes = (
"117 703 LINE",
"234 703 LINE SMOOTH",
"266.667 703 OFFCURVE",
"294.5 691.5 OFFCURVE",
"317.5 668.5 CURVE SMOOTH",
"340.5 645.5 OFFCURVE",
"352 618 OFFCURVE",
"352 586 CURVE SMOOTH",
"352 554 OFFCURVE",
"340.5 526.5 OFFCURVE",
"317.5 503.5 CURVE SMOOTH",
"294.5 480.5 OFFCURVE",
"266.667 469 OFFCURVE",
"234 469 CURVE SMOOTH",
"117 469 LINE"
);
},
{
closed = 1;
nodes = (
"117 391 LINE",
"273 391 LINE SMOOTH",
"316.333 391 OFFCURVE",
"353.333 375.666 OFFCURVE",
"384 345 CURVE SMOOTH",
"414.666 314.333 OFFCURVE",
"430 277.333 OFFCURVE",
"430 234 CURVE SMOOTH",
"430 190.667 OFFCURVE",
"414.666 153.833 OFFCURVE",
"384 123.5 CURVE SMOOTH",
"353.333 93.1666 OFFCURVE",
"316.333 78 OFFCURVE",
"273 78 CURVE SMOOTH",
"117 78 LINE"
);
},
{
closed = 1;
nodes = (
"78 781 LINE SMOOTH",
"67.3333 781 OFFCURVE",
"58.1666 777.166 OFFCURVE",
"50.5 769.5 CURVE SMOOTH",
"42.8333 761.839 OFFCURVE",
"39 752.672 OFFCURVE",
"39 742 CURVE SMOOTH",
"39 39 LINE SMOOTH",
"39 28.3333 OFFCURVE",
"42.8333 19.1667 OFFCURVE",
"50.5 11.5 CURVE SMOOTH",
"58.1666 3.83333 OFFCURVE",
"67.3333 0 OFFCURVE",
"78 0 CURVE SMOOTH",
"273 0 LINE SMOOTH",
"338.333 0 OFFCURVE",
"393.833 22.8333 OFFCURVE",
"439.5 68.5 CURVE SMOOTH",
"485.166 114.167 OFFCURVE",
"508 169.333 OFFCURVE",
"508 234 CURVE SMOOTH",
"508 299.333 OFFCURVE",
"485 354.666 OFFCURVE",
"439 400 CURVE SMOOTH",
"419 420.666 OFFCURVE",
"397 436.666 OFFCURVE",
"373 448 CURVE",
"411 486 OFFCURVE",
"430 532 OFFCURVE",
"430 586 CURVE SMOOTH",
"430 640 OFFCURVE",
"410.833 686 OFFCURVE",
"372.5 724 CURVE SMOOTH",
"334.166 762 OFFCURVE",
"288 781 OFFCURVE",
"234 781 CURVE SMOOTH"
);
}
);
width = 547;
}
);
unicode = 0042;
},
{
glyphname = C;
layers = (
{
layerId = "1285D0D6-ECBB-4398-A306-ABCA7FA13BF2";
name = Regular;
paths = (
{
closed = 1;
nodes = (
"639 153 OFFCURVE",
"631.666 150.667 OFFCURVE",
"625 146 CURVE",
"569.666 100.667 OFFCURVE",
"504.666 78 OFFCURVE",
"430 78 CURVE SMOOTH",
"343.333 78 OFFCURVE",
"269.5 108.5 OFFCURVE",
"208.5 169.5 CURVE SMOOTH",
"147.5 230.5 OFFCURVE",
"117 304.333 OFFCURVE",
"117 391 CURVE SMOOTH",
"117 477 OFFCURVE",
"147.5 550.5 OFFCURVE",
"208.5 611.5 CURVE SMOOTH",
"269.5 672.5 OFFCURVE",
"343.333 703 OFFCURVE",
"430 703 CURVE SMOOTH",
"503.333 703 OFFCURVE",
"567.666 681 OFFCURVE",
"623 637 CURVE",
"630.333 629 OFFCURVE",
"639.333 625 OFFCURVE",
"650 625 CURVE SMOOTH",
"661.328 625 OFFCURVE",
"670.661 628.833 OFFCURVE",
"678 636.5 CURVE SMOOTH",
"685.333 644.166 OFFCURVE",
"689 653.333 OFFCURVE",
"689 664 CURVE SMOOTH",
"689 674.666 OFFCURVE",
"685.333 684 OFFCURVE",
"678 692 CURVE",
"605.334 751.333 OFFCURVE",
"522.667 781 OFFCURVE",
"430 781 CURVE SMOOTH",
"322 781 OFFCURVE",
"229.833 742.833 OFFCURVE",
"153.5 666.5 CURVE SMOOTH",
"77.1666 590.166 OFFCURVE",
"39 498.333 OFFCURVE",
"39 391 CURVE SMOOTH",
"39 283 OFFCURVE",
"77.1666 190.833 OFFCURVE",
"153.5 114.5 CURVE SMOOTH",
"229.833 38.1666 OFFCURVE",
"322 0 OFFCURVE",
"430 0 CURVE SMOOTH",
"520.666 0 OFFCURVE",
"602.333 29 OFFCURVE",
"675 87 CURVE",
"683 94.3333 OFFCURVE",
"687 103.333 OFFCURVE",
"687 114 CURVE SMOOTH",
"687 124.667 OFFCURVE",
"683.166 133.833 OFFCURVE",
"675.5 141.5 CURVE SMOOTH",
"667.833 149.167 OFFCURVE",
"658.333 153 OFFCURVE",
"647 153 CURVE SMOOTH"
);
}
);
width = 723;
}
);
leftKerningGroup = C;
unicode = 0043;
},
{
glyphname = D;
layers = (
{
layerId = "1285D0D6-ECBB-4398-A306-ABCA7FA13BF2";
name = Regular;
paths = (
{
closed = 1;
nodes = (
"117 78 LINE",
"117 703 LINE",
"234 703 LINE SMOOTH",
"320.666 703 OFFCURVE",
"394.5 672.5 OFFCURVE",
"455.5 611.5 CURVE SMOOTH",
"516.5 550.5 OFFCURVE",
"547 477 OFFCURVE",
"547 391 CURVE SMOOTH",
"547 304.333 OFFCURVE",
"516.5 230.5 OFFCURVE",
"455.5 169.5 CURVE SMOOTH",
"394.5 108.5 OFFCURVE",
"320.666 78 OFFCURVE",
"234 78 CURVE SMOOTH"
);
},
{
closed = 1;
nodes = (
"78 781 LINE SMOOTH",
"67.3333 781 OFFCURVE",
"58.1666 777.166 OFFCURVE",
"50.5 769.5 CURVE SMOOTH",
"42.8333 761.839 OFFCURVE",
"39 752.672 OFFCURVE",
"39 742 CURVE SMOOTH",
"39 39 LINE SMOOTH",
"39 28.3333 OFFCURVE",
"42.8333 19.1667 OFFCURVE",
"50.5 11.5 CURVE SMOOTH",
"58.1666 3.83333 OFFCURVE",
"67.3333 0 OFFCURVE",
"78 0 CURVE SMOOTH",
"234 0 LINE SMOOTH",
"342 0 OFFCURVE",
"434.166 38.1666 OFFCURVE",
"510.5 114.5 CURVE SMOOTH",
"586.833 190.833 OFFCURVE",
"625 283 OFFCURVE",
"625 391 CURVE SMOOTH",
"625 498.333 OFFCURVE",
"586.833 590.166 OFFCURVE",
"510.5 666.5 CURVE SMOOTH",
"434.166 742.833 OFFCURVE",
"342 781 OFFCURVE",
"234 781 CURVE SMOOTH"
);
}
);
width = 664;
}
);
unicode = 0044;
},
{
glyphname = E;
layers = (
{
layerId = "1285D0D6-ECBB-4398-A306-ABCA7FA13BF2";
name = Regular;
paths = (
{
closed = 1;
nodes = (
"78 781 LINE SMOOTH",
"67.3333 781 OFFCURVE",
"58.1666 777.166 OFFCURVE",
"50.5 769.5 CURVE SMOOTH",
"42.8333 761.839 OFFCURVE",
"39 752.672 OFFCURVE",
"39 742 CURVE SMOOTH",
"39 39 LINE SMOOTH",
"39 28.3333 OFFCURVE",
"42.8333 19.1667 OFFCURVE",
"50.5 11.5 CURVE SMOOTH",
"58.1666 3.83333 OFFCURVE",
"67.3333 0 OFFCURVE",
"78 0 CURVE SMOOTH",
"547 0 LINE SMOOTH",
"557.666 0 OFFCURVE",
"566.833 3.83333 OFFCURVE",
"574.5 11.5 CURVE SMOOTH",
"582.166 19.1667 OFFCURVE",
"586 28.3333 OFFCURVE",
"586 39 CURVE SMOOTH",
"586 49.6666 OFFCURVE",
"582.166 58.8333 OFFCURVE",
"574.5 66.5 CURVE SMOOTH",
"566.837 74.1666 OFFCURVE",
"557.671 78 OFFCURVE",
"547 78 CURVE SMOOTH",
"117 78 LINE",
"117 352 LINE",
"430 352 LINE SMOOTH",
"440.665 352 OFFCURVE",
"449.831 355.833 OFFCURVE",
"457.5 363.5 CURVE SMOOTH",
"465.166 371.166 OFFCURVE",
"469 380.332 OFFCURVE",
"469 391 CURVE SMOOTH",
"469 401.665 OFFCURVE",
"465.166 410.832 OFFCURVE",
"457.5 418.5 CURVE SMOOTH",
"449.833 426.166 OFFCURVE",
"440.666 430 OFFCURVE",
"430 430 CURVE SMOOTH",
"117 430 LINE",
"117 703 LINE",
"547 703 LINE SMOOTH",
"557.666 703 OFFCURVE",
"566.833 706.833 OFFCURVE",
"574.5 714.5 CURVE SMOOTH",
"582.166 722.166 OFFCURVE",
"586 731.333 OFFCURVE",
"586 742 CURVE SMOOTH",
"586 752.666 OFFCURVE",
"582.166 761.833 OFFCURVE",
"574.5 769.5 CURVE SMOOTH",
"566.837 777.166 OFFCURVE",
"557.671 781 OFFCURVE",
"547 781 CURVE SMOOTH"
);
}
);
width = 625;
}
);
unicode = 0045;
},
{
glyphname = F;
layers = (
{
layerId = "1285D0D6-ECBB-4398-A306-ABCA7FA13BF2";
name = Regular;
paths = (
{
closed = 1;
nodes = (
"78 781 LINE SMOOTH",
"67.3333 781 OFFCURVE",
"58.1666 777.166 OFFCURVE",
"50.5 769.5 CURVE SMOOTH",
"42.8333 761.839 OFFCURVE",
"39 752.672 OFFCURVE",
"39 742 CURVE SMOOTH",
"39 39 LINE SMOOTH",
"39 28.3333 OFFCURVE",
"42.8333 19.1667 OFFCURVE",
"50.5 11.5 CURVE SMOOTH",
"58.1666 3.83333 OFFCURVE",
"67.3333 0 OFFCURVE",
"78 0 CURVE SMOOTH",
"88.6665 0 OFFCURVE",
"97.8332 3.83333 OFFCURVE",
"105.5 11.5 CURVE SMOOTH",
"113.167 19.1667 OFFCURVE",
"117 28.3333 OFFCURVE",
"117 39 CURVE SMOOTH",
"117 352 LINE",
"430 352 LINE SMOOTH",
"440.665 352 OFFCURVE",
"449.831 355.833 OFFCURVE",
"457.5 363.5 CURVE SMOOTH",
"465.166 371.166 OFFCURVE",
"469 380.332 OFFCURVE",
"469 391 CURVE SMOOTH",
"469 401.665 OFFCURVE",
"465.166 410.832 OFFCURVE",
"457.5 418.5 CURVE SMOOTH",
"449.833 426.166 OFFCURVE",
"440.666 430 OFFCURVE",
"430 430 CURVE SMOOTH",
"117 430 LINE",
"117 703 LINE",
"547 703 LINE SMOOTH",
"557.666 703 OFFCURVE",
"566.833 706.833 OFFCURVE",
"574.5 714.5 CURVE SMOOTH",
"582.166 722.166 OFFCURVE",
"586 731.333 OFFCURVE",
"586 742 CURVE SMOOTH",
"586 752.666 OFFCURVE",
"582.166 761.833 OFFCURVE",
"574.5 769.5 CURVE SMOOTH",
"566.837 777.166 OFFCURVE",
"557.671 781 OFFCURVE",
"547 781 CURVE SMOOTH"
);
}
);
width = 625;
}
);
unicode = 0046;
},
{
glyphname = G;
layers = (
{
layerId = "1285D0D6-ECBB-4398-A306-ABCA7FA13BF2";
name = Regular;
paths = (
{
closed = 1;
nodes = (
"687 352 LINE SMOOTH",
"687 362.666 OFFCURVE",
"683 371.666 OFFCURVE",
"675 379 CURVE",
"667.666 387 OFFCURVE",
"658.666 391 OFFCURVE",
"648 391 CURVE SMOOTH",
"454 391 LINE SMOOTH",
"443.333 391 OFFCURVE",
"434.166 387.166 OFFCURVE",
"426.5 379.5 CURVE SMOOTH",
"418.833 371.833 OFFCURVE",
"415 362.666 OFFCURVE",
"415 352 CURVE SMOOTH",
"415 340.666 OFFCURVE",
"418.833 331.166 OFFCURVE",
"426.5 323.5 CURVE SMOOTH",
"434.165 315.833 OFFCURVE",
"443.331 312 OFFCURVE",
"454 312 CURVE SMOOTH",
"608 312 LINE",
"608 134 LINE",
"556.666 96.6666 OFFCURVE",
"497.333 78 OFFCURVE",
"430 78 CURVE SMOOTH",
"343.333 78 OFFCURVE",
"269.5 108.5 OFFCURVE",
"208.5 169.5 CURVE SMOOTH",
"147.5 230.5 OFFCURVE",
"117 304.333 OFFCURVE",
"117 391 CURVE SMOOTH",
"117 477 OFFCURVE",
"147.5 550.5 OFFCURVE",
"208.5 611.5 CURVE SMOOTH",
"269.5 672.5 OFFCURVE",
"343.333 703 OFFCURVE",
"430 703 CURVE SMOOTH",
"503.333 703 OFFCURVE",
"567.666 681 OFFCURVE",
"623 637 CURVE",
"630.333 629 OFFCURVE",
"639.333 625 OFFCURVE",
"650 625 CURVE SMOOTH",
"661.328 625 OFFCURVE",
"670.661 628.833 OFFCURVE",
"678 636.5 CURVE SMOOTH",
"685.333 644.166 OFFCURVE",
"689 653.333 OFFCURVE",
"689 664 CURVE SMOOTH",
"689 674.666 OFFCURVE",
"685.333 684 OFFCURVE",
"678 692 CURVE",
"605.334 751.333 OFFCURVE",
"522.667 781 OFFCURVE",
"430 781 CURVE SMOOTH",
"322 781 OFFCURVE",
"229.833 742.833 OFFCURVE",
"153.5 666.5 CURVE SMOOTH",
"77.1666 590.166 OFFCURVE",
"39 498.333 OFFCURVE",
"39 391 CURVE SMOOTH",
"39 283 OFFCURVE",
"77.1666 190.833 OFFCURVE",
"153.5 114.5 CURVE SMOOTH",
"229.833 38.1666 OFFCURVE",
"322 0 OFFCURVE",
"430 0 CURVE SMOOTH",
"520.666 0 OFFCURVE",
"602.333 29 OFFCURVE",
"675 87 CURVE",
"683 94.3333 OFFCURVE",
"687 103.333 OFFCURVE",
"687 114 CURVE SMOOTH"
);
}
);
width = 732;
}
);
leftKerningGroup = C;
unicode = 0047;
},
{
glyphname = H;
layers = (
{
layerId = "1285D0D6-ECBB-4398-A306-ABCA7FA13BF2";
name = Regular;
paths = (
{
closed = 1;
nodes = (
"39 39 LINE SMOOTH",
"39 28.3333 OFFCURVE",
"42.8333 19.1667 OFFCURVE",
"50.5 11.5 CURVE SMOOTH",
"58.1666 3.83333 OFFCURVE",
"67.3333 0 OFFCURVE",
"78 0 CURVE SMOOTH",
"88.6665 0 OFFCURVE",
"97.8332 3.83333 OFFCURVE",
"105.5 11.5 CURVE SMOOTH",
"113.167 19.1667 OFFCURVE",
"117 28.3333 OFFCURVE",
"117 39 CURVE SMOOTH",
"117 352 LINE",
"508 352 LINE",
"508 39 LINE SMOOTH",
"508 28.3333 OFFCURVE",
"511.833 19.1667 OFFCURVE",
"519.5 11.5 CURVE SMOOTH",
"527.166 3.83333 OFFCURVE",
"536.333 0 OFFCURVE",
"547 0 CURVE SMOOTH",
"557.666 0 OFFCURVE",
"566.833 3.83333 OFFCURVE",
"574.5 11.5 CURVE SMOOTH",
"582.166 19.1667 OFFCURVE",
"586 28.3333 OFFCURVE",
"586 39 CURVE SMOOTH",
"586 742 LINE SMOOTH",
"586 752.666 OFFCURVE",
"582.166 761.833 OFFCURVE",
"574.5 769.5 CURVE SMOOTH",
"566.837 777.166 OFFCURVE",
"557.671 781 OFFCURVE",
"547 781 CURVE SMOOTH",
"536.337 781 OFFCURVE",
"527.17 777.166 OFFCURVE",
"519.5 769.5 CURVE SMOOTH",
"511.833 761.839 OFFCURVE",
"508 752.672 OFFCURVE",
"508 742 CURVE SMOOTH",
"508 430 LINE",
"117 430 LINE",
"117 742 LINE SMOOTH",
"117 752.666 OFFCURVE",
"113.167 761.833 OFFCURVE",
"105.5 769.5 CURVE SMOOTH",
"97.8333 777.166 OFFCURVE",
"88.6666 781 OFFCURVE",
"78 781 CURVE SMOOTH",
"67.3333 781 OFFCURVE",
"58.1666 777.166 OFFCURVE",
"50.5 769.5 CURVE SMOOTH",
"42.8333 761.839 OFFCURVE",
"39 752.672 OFFCURVE",
"39 742 CURVE SMOOTH"
);
}
);
width = 625;
}
);
unicode = 0048;
},
{
glyphname = I;
layers = (
{
layerId = "1285D0D6-ECBB-4398-A306-ABCA7FA13BF2";
name = Regular;
paths = (
{
closed = 1;
nodes = (
"78 39 LINE SMOOTH",
"78 28.3333 OFFCURVE",
"81.8333 19.1667 OFFCURVE",
"89.5 11.5 CURVE SMOOTH",
"97.1665 3.83333 OFFCURVE",
"106.333 0 OFFCURVE",
"117 0 CURVE SMOOTH",
"127.667 0 OFFCURVE",
"136.833 3.83333 OFFCURVE",
"144.5 11.5 CURVE SMOOTH",
"152.167 19.1667 OFFCURVE",
"156 28.3333 OFFCURVE",
"156 39 CURVE SMOOTH",
"156 742 LINE SMOOTH",
"156 752.666 OFFCURVE",
"152.167 761.833 OFFCURVE",
"144.5 769.5 CURVE SMOOTH",
"136.833 777.166 OFFCURVE",
"127.667 781 OFFCURVE",
"117 781 CURVE SMOOTH",
"106.333 781 OFFCURVE",
"97.1666 777.166 OFFCURVE",
"89.5 769.5 CURVE SMOOTH",
"81.8333 761.839 OFFCURVE",
"78 752.672 OFFCURVE",
"78 742 CURVE SMOOTH"
);
}
);
width = 234;
}
);
unicode = 0049;
},
{
glyphname = J;
layers = (
{
layerId = "1285D0D6-ECBB-4398-A306-ABCA7FA13BF2";
name = Regular;
paths = (
{
closed = 1;
nodes = (
"39 169.333 OFFCURVE",
"61.8333 114.167 OFFCURVE",
"107.5 68.5 CURVE SMOOTH",
"153.167 22.8333 OFFCURVE",
"208.333 0 OFFCURVE",
"273 0 CURVE SMOOTH",
"338.333 0 OFFCURVE",
"393.833 22.8333 OFFCURVE",
"439.5 68.5 CURVE SMOOTH",
"485.166 114.167 OFFCURVE",
"508 169.333 OFFCURVE",
"508 234 CURVE SMOOTH",
"508 742 LINE SMOOTH",
"508 752.666 OFFCURVE",
"504.166 761.833 OFFCURVE",
"496.5 769.5 CURVE SMOOTH",
"488.833 777.166 OFFCURVE",
"479.666 781 OFFCURVE",
"469 781 CURVE SMOOTH",
"458.333 781 OFFCURVE",
"449.166 777.166 OFFCURVE",
"441.5 769.5 CURVE SMOOTH",
"433.833 761.839 OFFCURVE",
"430 752.672 OFFCURVE",
"430 742 CURVE SMOOTH",
"430 234 LINE SMOOTH",
"430 190.667 OFFCURVE",
"414.666 153.833 OFFCURVE",
"384 123.5 CURVE SMOOTH",
"353.333 93.1666 OFFCURVE",
"316.333 78 OFFCURVE",
"273 78 CURVE SMOOTH",
"229.667 78 OFFCURVE",
"192.833 93.1666 OFFCURVE",
"162.5 123.5 CURVE SMOOTH",
"132.167 153.833 OFFCURVE",
"117 190.666 OFFCURVE",
"117 234 CURVE SMOOTH",
"117 244.667 OFFCURVE",
"113.167 253.833 OFFCURVE",
"105.5 261.5 CURVE SMOOTH",
"97.8333 269.167 OFFCURVE",
"88.6666 273 OFFCURVE",
"78 273 CURVE SMOOTH",
"67.3333 273 OFFCURVE",
"58.1666 269.167 OFFCURVE",
"50.5 261.5 CURVE SMOOTH",
"42.8333 253.834 OFFCURVE",
"39 244.667 OFFCURVE",
"39 234 CURVE SMOOTH"
);
}
);
width = 547;
}
);
unicode = 004A;
},
{
glyphname = K;
layers = (
{
layerId = "1285D0D6-ECBB-4398-A306-ABCA7FA13BF2";
name = Regular;
paths = (
{
closed = 1;
nodes = (
"39 39 LINE SMOOTH",
"39 28.3333 OFFCURVE",
"42.8333 19.1667 OFFCURVE",
"50.5 11.5 CURVE SMOOTH",
"58.1666 3.83333 OFFCURVE",
"67.3333 0 OFFCURVE",
"78 0 CURVE SMOOTH",
"88.6665 0 OFFCURVE",
"97.8332 3.83333 OFFCURVE",
"105.5 11.5 CURVE SMOOTH",
"113.167 19.1667 OFFCURVE",
"117 28.3333 OFFCURVE",
"117 39 CURVE SMOOTH",
"117 296 LINE",
"205 384 LINE",
"476 17 LINE",
"483.333 5.66667 OFFCURVE",
"494.333 0 OFFCURVE",
"509 0 CURVE SMOOTH",
"517 0 OFFCURVE",
"524.333 2.66667 OFFCURVE",
"531 8 CURVE SMOOTH",
"541.666 16 OFFCURVE",
"547 27 OFFCURVE",
"547 41 CURVE SMOOTH",
"547 48.3333 OFFCURVE",
"544.666 55.3333 OFFCURVE",
"540 62 CURVE SMOOTH",
"261 440 LINE",
"536 714 LINE",
"543.333 722 OFFCURVE",
"547 731.333 OFFCURVE",
"547 742 CURVE SMOOTH",
"547 752.666 OFFCURVE",
"543.166 761.833 OFFCURVE",
"535.5 769.5 CURVE SMOOTH",
"527.837 777.166 OFFCURVE",
"518.67 781 OFFCURVE",
"508 781 CURVE SMOOTH",
"497.333 781 OFFCURVE",
"487.666 777 OFFCURVE",
"479 769 CURVE",
"117 407 LINE",
"117 742 LINE SMOOTH",
"117 752.666 OFFCURVE",
"113.167 761.833 OFFCURVE",
"105.5 769.5 CURVE SMOOTH",
"97.8333 777.166 OFFCURVE",
"88.6666 781 OFFCURVE",
"78 781 CURVE SMOOTH",
"67.3333 781 OFFCURVE",
"58.1666 777.166 OFFCURVE",
"50.5 769.5 CURVE SMOOTH",
"42.8333 761.839 OFFCURVE",
"39 752.672 OFFCURVE",
"39 742 CURVE SMOOTH"
);
}
);
width = 586;
}
);
unicode = 004B;
},
{
glyphname = L;
layers = (
{
layerId = "1285D0D6-ECBB-4398-A306-ABCA7FA13BF2";
name = Regular;
paths = (
{
closed = 1;
nodes = (
"39 39 LINE SMOOTH",
"39 28.3333 OFFCURVE",
"42.8333 19.1667 OFFCURVE",
"50.5 11.5 CURVE SMOOTH",
"58.1666 3.83333 OFFCURVE",
"67.3333 0 OFFCURVE",
"78 0 CURVE SMOOTH",
"508 0 LINE SMOOTH",
"518.666 0 OFFCURVE",
"527.833 3.83333 OFFCURVE",
"535.5 11.5 CURVE SMOOTH",
"543.166 19.1667 OFFCURVE",
"547 28.3333 OFFCURVE",
"547 39 CURVE SMOOTH",
"547 49.6666 OFFCURVE",
"543.166 58.8333 OFFCURVE",
"535.5 66.5 CURVE SMOOTH",
"527.837 74.1666 OFFCURVE",
"518.67 78 OFFCURVE",
"508 78 CURVE SMOOTH",
"117 78 LINE",
"117 742 LINE SMOOTH",
"117 752.666 OFFCURVE",
"113.167 761.833 OFFCURVE",
"105.5 769.5 CURVE SMOOTH",
"97.8333 777.166 OFFCURVE",
"88.6666 781 OFFCURVE",
"78 781 CURVE SMOOTH",
"67.3333 781 OFFCURVE",
"58.1666 777.166 OFFCURVE",
"50.5 769.5 CURVE SMOOTH",
"42.8333 761.839 OFFCURVE",
"39 752.672 OFFCURVE",
"39 742 CURVE SMOOTH"
);
}
);
width = 586;
}
);
unicode = 004C;
},
{
glyphname = M;
layers = (
{
layerId = "1285D0D6-ECBB-4398-A306-ABCA7FA13BF2";
name = Regular;
paths = (
{
closed = 1;
nodes = (
"394 24 LINE SMOOTH",
"401.333 8 OFFCURVE",
"413.333 0 OFFCURVE",
"430 0 CURVE SMOOTH",
"445.333 0 OFFCURVE",
"456.333 6.33332 OFFCURVE",
"463 19 CURVE SMOOTH",
"742 577 LINE",
"742 39 LINE SMOOTH",
"742 28.3333 OFFCURVE",
"745.833 19.1667 OFFCURVE",
"753.5 11.5 CURVE SMOOTH",
"761.166 3.83333 OFFCURVE",
"770.333 0 OFFCURVE",
"781 0 CURVE SMOOTH",
"791.666 0 OFFCURVE",
"800.833 3.83333 OFFCURVE",
"808.5 11.5 CURVE SMOOTH",
"816.166 19.1667 OFFCURVE",
"820 28.3333 OFFCURVE",
"820 39 CURVE SMOOTH",
"820 742 LINE SMOOTH",
"820 752.666 OFFCURVE",
"816.166 761.833 OFFCURVE",
"808.5 769.5 CURVE SMOOTH",
"800.839 777.166 OFFCURVE",
"791.672 781 OFFCURVE",
"781 781 CURVE SMOOTH",
"765.666 781 OFFCURVE",
"754.333 774.333 OFFCURVE",
"747 761 CURVE",
"430 126 LINE",
"113 761 LINE",
"105.667 774.333 OFFCURVE",
"93.9999 781 OFFCURVE",
"78 781 CURVE SMOOTH",
"67.3333 781 OFFCURVE",
"58.1666 777.166 OFFCURVE",
"50.5 769.5 CURVE SMOOTH",
"42.8333 761.839 OFFCURVE",
"39 752.672 OFFCURVE",
"39 742 CURVE SMOOTH",
"39 39 LINE SMOOTH",
"39 28.3333 OFFCURVE",
"42.8333 19.1667 OFFCURVE",
"50.5 11.5 CURVE SMOOTH",
"58.1666 3.83333 OFFCURVE",
"67.3333 0 OFFCURVE",
"78 0 CURVE SMOOTH",
"88.6665 0 OFFCURVE",
"97.8332 3.83333 OFFCURVE",
"105.5 11.5 CURVE SMOOTH",
"113.167 19.1667 OFFCURVE",
"117 28.3333 OFFCURVE",
"117 39 CURVE SMOOTH",
"117 577 LINE"
);
}
);
width = 859;
}
);
unicode = 004D;
},
{
glyphname = N;
layers = (
{
layerId = "1285D0D6-ECBB-4398-A306-ABCA7FA13BF2";
name = Regular;
paths = (
{
closed = 1;
nodes = (
"117 628 LINE",
"596 13 LINE",
"604 4.33333 OFFCURVE",
"613.666 0 OFFCURVE",
"625 0 CURVE SMOOTH",
"635.666 0 OFFCURVE",
"644.833 3.83333 OFFCURVE",
"652.5 11.5 CURVE SMOOTH",
"660.166 19.1667 OFFCURVE",
"664 28.3333 OFFCURVE",
"664 39 CURVE SMOOTH",
"664 742 LINE SMOOTH",
"664 752.666 OFFCURVE",
"660.166 761.833 OFFCURVE",
"652.5 769.5 CURVE SMOOTH",
"644.833 777.166 OFFCURVE",
"635.666 781 OFFCURVE",
"625 781 CURVE SMOOTH",
"614.338 781 OFFCURVE",
"605.171 777.166 OFFCURVE",
"597.5 769.5 CURVE SMOOTH",
"589.833 761.839 OFFCURVE",
"586 752.672 OFFCURVE",
"586 742 CURVE SMOOTH",
"586 153 LINE",
"108 767 LINE",
"99.9999 776.333 OFFCURVE",
"90 781 OFFCURVE",
"78 781 CURVE SMOOTH",
"67.3333 781 OFFCURVE",
"58.1666 777.166 OFFCURVE",
"50.5 769.5 CURVE SMOOTH",
"42.8333 761.839 OFFCURVE",
"39 752.672 OFFCURVE",
"39 742 CURVE SMOOTH",
"39 39 LINE SMOOTH",
"39 28.3333 OFFCURVE",
"42.8333 19.1667 OFFCURVE",
"50.5 11.5 CURVE SMOOTH",
"58.1666 3.83333 OFFCURVE",
"67.3333 0 OFFCURVE",
"78 0 CURVE SMOOTH",
"88.6665 0 OFFCURVE",
"97.8332 3.83333 OFFCURVE",
"105.5 11.5 CURVE SMOOTH",
"113.167 19.1667 OFFCURVE",
"117 28.3333 OFFCURVE",
"117 39 CURVE SMOOTH"
);
}
);
width = 703;
}
);
unicode = 004E;
},
{
glyphname = O;
layers = (
{
layerId = "1285D0D6-ECBB-4398-A306-ABCA7FA13BF2";
name = Regular;
paths = (
{
closed = 1;
nodes = (
"516 703 OFFCURVE",
"589.5 672.5 OFFCURVE",
"650.5 611.5 CURVE SMOOTH",
"711.5 550.5 OFFCURVE",
"742 477 OFFCURVE",
"742 391 CURVE SMOOTH",
"742 304.333 OFFCURVE",
"711.5 230.5 OFFCURVE",
"650.5 169.5 CURVE SMOOTH",
"589.5 108.5 OFFCURVE",
"516 78 OFFCURVE",
"430 78 CURVE SMOOTH",
"343.333 78 OFFCURVE",
"269.5 108.5 OFFCURVE",
"208.5 169.5 CURVE SMOOTH",
"147.5 230.5 OFFCURVE",
"117 304.333 OFFCURVE",
"117 391 CURVE SMOOTH",
"117 477 OFFCURVE",
"147.5 550.5 OFFCURVE",
"208.5 611.5 CURVE SMOOTH",
"269.5 672.5 OFFCURVE",
"343.333 703 OFFCURVE",
"430 703 CURVE SMOOTH"
);
},
{
closed = 1;
nodes = (
"820 498.333 OFFCURVE",
"781.833 590.166 OFFCURVE",
"705.5 666.5 CURVE SMOOTH",
"629.166 742.833 OFFCURVE",
"537.333 781 OFFCURVE",
"430 781 CURVE SMOOTH",
"322 781 OFFCURVE",
"229.833 742.833 OFFCURVE",
"153.5 666.5 CURVE SMOOTH",
"77.1666 590.166 OFFCURVE",
"39 498.333 OFFCURVE",
"39 391 CURVE SMOOTH",
"39 283 OFFCURVE",
"77.1666 190.833 OFFCURVE",
"153.5 114.5 CURVE SMOOTH",
"229.833 38.1666 OFFCURVE",
"322 0 OFFCURVE",
"430 0 CURVE SMOOTH",
"537.333 0 OFFCURVE",
"629.166 38.1666 OFFCURVE",
"705.5 114.5 CURVE SMOOTH",
"781.833 190.833 OFFCURVE",
"820 283 OFFCURVE",
"820 391 CURVE SMOOTH"
);
}
);
width = 859;
}
);
leftKerningGroup = C;
unicode = 004F;
},
{
glyphname = P;
layers = (
{
layerId = "1285D0D6-ECBB-4398-A306-ABCA7FA13BF2";
name = Regular;
paths = (
{
closed = 1;
nodes = (
"117 703 LINE",
"234 703 LINE SMOOTH",
"282.667 703 OFFCURVE",
"324.166 685.833 OFFCURVE",
"358.5 651.5 CURVE SMOOTH",
"392.833 617.166 OFFCURVE",
"410 575.666 OFFCURVE",
"410 527 CURVE SMOOTH",
"410 479 OFFCURVE",
"392.833 437.833 OFFCURVE",
"358.5 403.5 CURVE SMOOTH",
"324.166 369.166 OFFCURVE",
"282.667 352 OFFCURVE",
"234 352 CURVE SMOOTH",
"117 352 LINE"
);
},
{
closed = 1;
nodes = (
"78 781 LINE SMOOTH",
"67.3333 781 OFFCURVE",
"58.1666 777.166 OFFCURVE",
"50.5 769.5 CURVE SMOOTH",
"42.8333 761.839 OFFCURVE",
"39 752.672 OFFCURVE",
"39 742 CURVE SMOOTH",
"39 39 LINE SMOOTH",
"39 28.3333 OFFCURVE",
"42.8333 19.1667 OFFCURVE",
"50.5 11.5 CURVE SMOOTH",
"58.1666 3.83333 OFFCURVE",
"67.3333 0 OFFCURVE",
"78 0 CURVE SMOOTH",
"88.6665 0 OFFCURVE",
"97.8332 3.83333 OFFCURVE",
"105.5 11.5 CURVE SMOOTH",
"113.167 19.1667 OFFCURVE",
"117 28.3333 OFFCURVE",
"117 39 CURVE SMOOTH",
"117 273 LINE",
"234 273 LINE SMOOTH",
"304 273 OFFCURVE",
"363.833 297.833 OFFCURVE",
"413.5 347.5 CURVE SMOOTH",
"463.166 397.166 OFFCURVE",
"488 457 OFFCURVE",
"488 527 CURVE SMOOTH",
"488 597 OFFCURVE",
"463.166 656.833 OFFCURVE",
"413.5 706.5 CURVE SMOOTH",
"363.833 756.166 OFFCURVE",
"304 781 OFFCURVE",
"234 781 CURVE SMOOTH"
);
}
);
width = 527;
}
);
unicode = 0050;
},
{
glyphname = Q;
layers = (
{
layerId = "1285D0D6-ECBB-4398-A306-ABCA7FA13BF2";
name = Regular;
paths = (
{
closed = 1;
nodes = (
"753 12 LINE SMOOTH",
"761 4 OFFCURVE",
"770.333 0 OFFCURVE",
"781 0 CURVE SMOOTH",
"791.666 0 OFFCURVE",
"800.833 3.83333 OFFCURVE",
"808.5 11.5 CURVE SMOOTH",
"816.166 19.1667 OFFCURVE",
"820 28.3333 OFFCURVE",
"820 39 CURVE SMOOTH",
"820 49.6666 OFFCURVE",
"816.666 58.6666 OFFCURVE",
"810 66 CURVE",
"732 144 LINE",
"790.666 214 OFFCURVE",
"820 296.333 OFFCURVE",
"820 391 CURVE SMOOTH",
"820 498.333 OFFCURVE",
"781.833 590.166 OFFCURVE",
"705.5 666.5 CURVE SMOOTH",
"629.166 742.833 OFFCURVE",
"537.333 781 OFFCURVE",
"430 781 CURVE SMOOTH",
"322 781 OFFCURVE",
"229.833 742.833 OFFCURVE",
"153.5 666.5 CURVE SMOOTH",
"77.1666 590.166 OFFCURVE",
"39 498.333 OFFCURVE",
"39 391 CURVE SMOOTH",
"39 283 OFFCURVE",
"77.1666 190.833 OFFCURVE",
"153.5 114.5 CURVE SMOOTH",
"229.833 38.1666 OFFCURVE",
"322 0 OFFCURVE",
"430 0 CURVE SMOOTH",
"524 0 OFFCURVE",
"606.333 29.3333 OFFCURVE",
"677 88 CURVE"
);
},
{
closed = 1;
nodes = (
"621 144 LINE",
"566.333 99.9999 OFFCURVE",
"502.666 78 OFFCURVE",
"430 78 CURVE SMOOTH",
"343.333 78 OFFCURVE",
"269.5 108.5 OFFCURVE",
"208.5 169.5 CURVE SMOOTH",
"147.5 230.5 OFFCURVE",
"117 304.333 OFFCURVE",
"117 391 CURVE SMOOTH",
"117 477 OFFCURVE",
"147.5 550.5 OFFCURVE",
"208.5 611.5 CURVE SMOOTH",
"269.5 672.5 OFFCURVE",
"343.333 703 OFFCURVE",
"430 703 CURVE SMOOTH",
"516 703 OFFCURVE",
"589.5 672.5 OFFCURVE",
"650.5 611.5 CURVE SMOOTH",
"711.5 550.5 OFFCURVE",
"742 477 OFFCURVE",
"742 391 CURVE SMOOTH",
"742 317.666 OFFCURVE",
"720.333 253.667 OFFCURVE",
"677 199 CURVE",
"594 282 LINE SMOOTH",
"586.666 289.333 OFFCURVE",
"577.333 293 OFFCURVE",
"566 293 CURVE SMOOTH",
"555.337 293 OFFCURVE",
"546.171 289.167 OFFCURVE",
"538.5 281.5 CURVE SMOOTH",
"530.833 273.833 OFFCURVE",
"527 264.667 OFFCURVE",
"527 254 CURVE SMOOTH",
"527 243.333 OFFCURVE",
"531 234 OFFCURVE",
"539 226 CURVE SMOOTH"
);
}
);
width = 859;
}
);
leftKerningGroup = C;
unicode = 0051;
},
{
glyphname = R;
layers = (
{
layerId = "1285D0D6-ECBB-4398-A306-ABCA7FA13BF2";
name = Regular;
paths = (
{
closed = 1;
nodes = (
"117 703 LINE",
"273 703 LINE SMOOTH",
"316.333 703 OFFCURVE",
"353.333 687.833 OFFCURVE",
"384 657.5 CURVE SMOOTH",
"414.666 627.166 OFFCURVE",
"430 590.333 OFFCURVE",
"430 547 CURVE SMOOTH",
"430 503.667 OFFCURVE",
"414.666 466.834 OFFCURVE",
"384 436.5 CURVE SMOOTH",
"353.333 406.166 OFFCURVE",
"316.333 391 OFFCURVE",
"273 391 CURVE SMOOTH",
"117 391 LINE"
);
},
{
closed = 1;
nodes = (
"78 781 LINE SMOOTH",
"67.3333 781 OFFCURVE",
"58.1666 777.166 OFFCURVE",
"50.5 769.5 CURVE SMOOTH",
"42.8333 761.839 OFFCURVE",
"39 752.672 OFFCURVE",
"39 742 CURVE SMOOTH",
"39 39 LINE SMOOTH",
"39 28.3333 OFFCURVE",
"42.8333 19.1667 OFFCURVE",
"50.5 11.5 CURVE SMOOTH",
"58.1666 3.83333 OFFCURVE",
"67.3333 0 OFFCURVE",
"78 0 CURVE SMOOTH",
"88.6665 0 OFFCURVE",
"97.8332 3.83333 OFFCURVE",
"105.5 11.5 CURVE SMOOTH",
"113.167 19.1667 OFFCURVE",
"117 28.3333 OFFCURVE",
"117 39 CURVE SMOOTH",
"117 312 LINE",
"273 312 LINE SMOOTH",
"279 312 OFFCURVE",
"285 312.333 OFFCURVE",
"291 313 CURVE",
"474 20 LINE SMOOTH",
"482.666 6.66667 OFFCURVE",
"494 0 OFFCURVE",
"508 0 CURVE SMOOTH",
"518.666 0 OFFCURVE",
"527.833 3.83333 OFFCURVE",
"535.5 11.5 CURVE SMOOTH",
"543.166 19.1667 OFFCURVE",
"547 28.3333 OFFCURVE",
"547 39 CURVE SMOOTH",
"547 47 OFFCURVE",
"545 54.3333 OFFCURVE",
"541 61 CURVE SMOOTH",
"371 333 LINE",
"395.666 344.333 OFFCURVE",
"418.332 360.333 OFFCURVE",
"439 381 CURVE SMOOTH",
"485 427 OFFCURVE",
"508 482.333 OFFCURVE",
"508 547 CURVE SMOOTH",
"508 611.666 OFFCURVE",
"485.166 666.833 OFFCURVE",
"439.5 712.5 CURVE SMOOTH",
"393.833 758.166 OFFCURVE",
"338.333 781 OFFCURVE",
"273 781 CURVE SMOOTH"
);
}
);
width = 586;
}
);
unicode = 0052;
},
{
glyphname = S;
layers = (
{
layerId = "1285D0D6-ECBB-4398-A306-ABCA7FA13BF2";
name = Regular;
paths = (
{
closed = 1;
nodes = (
"52.3333 98.3333 OFFCURVE",
"58.3333 90.3333 OFFCURVE",
"65 83 CURVE SMOOTH",
"115.667 27.6667 OFFCURVE",
"176 0 OFFCURVE",
"246 0 CURVE SMOOTH",
"302 0 OFFCURVE",
"352 18.6667 OFFCURVE",
"396 56 CURVE SMOOTH",
"445.333 97.9999 OFFCURVE",
"472.666 151 OFFCURVE",
"478 215 CURVE SMOOTH",
"478.666 223 OFFCURVE",
"479 230.667 OFFCURVE",
"479 238 CURVE SMOOTH",
"479 293.333 OFFCURVE",
"460.333 342.666 OFFCURVE",
"423 386 CURVE SMOOTH",
"381 435.333 OFFCURVE",
"327.666 462.666 OFFCURVE",
"263 468 CURVE SMOOTH",
"231 470.666 OFFCURVE",
"204.5 484.332 OFFCURVE",
"183.5 509 CURVE SMOOTH",
"162.5 533.666 OFFCURVE",
"153.333 562.333 OFFCURVE",
"156 595 CURVE SMOOTH",
"158.667 627 OFFCURVE",
"172.333 653.5 OFFCURVE",
"197 674.5 CURVE SMOOTH",
"221.667 695.5 OFFCURVE",
"250.333 704.666 OFFCURVE",
"283 702 CURVE SMOOTH",
"315 699.338 OFFCURVE",
"341.333 685.672 OFFCURVE",
"362 661 CURVE",
"368.666 652.333 OFFCURVE",
"374.666 644.333 OFFCURVE",
"380 637 CURVE SMOOTH",
"386 629 OFFCURVE",
"395.333 625 OFFCURVE",
"408 625 CURVE SMOOTH",
"418.665 625 OFFCURVE",
"427.831 628.833 OFFCURVE",
"435.5 636.5 CURVE SMOOTH",
"443.166 644.166 OFFCURVE",
"447 653.333 OFFCURVE",
"447 664 CURVE SMOOTH",
"447 672 OFFCURVE",
"445 679 OFFCURVE",
"441 685 CURVE",
"435.667 694.333 OFFCURVE",
"429.333 703 OFFCURVE",
"422 711 CURVE SMOOTH",
"379.333 757.666 OFFCURVE",
"329.666 781 OFFCURVE",
"273 781 CURVE SMOOTH",
"225.667 781 OFFCURVE",
"183.333 765.333 OFFCURVE",
"146 734 CURVE SMOOTH",
"105.333 699.333 OFFCURVE",
"82.6666 655 OFFCURVE",
"78 601 CURVE SMOOTH",
"74 547 OFFCURVE",
"89.3333 499.5 OFFCURVE",
"124 458.5 CURVE SMOOTH",
"158.667 417.5 OFFCURVE",
"203 394.666 OFFCURVE",
"257 390 CURVE SMOOTH",
"300.333 386.666 OFFCURVE",
"335.833 368.666 OFFCURVE",
"363.5 336 CURVE SMOOTH",
"391.165 303.333 OFFCURVE",
"403.332 265.333 OFFCURVE",
"400 222 CURVE SMOOTH",
"396.666 178.667 OFFCURVE",
"378.5 143.167 OFFCURVE",
"345.5 115.5 CURVE SMOOTH",
"312.5 87.8333 OFFCURVE",
"274.333 75.6666 OFFCURVE",
"231 79 CURVE SMOOTH",
"188.333 82.3333 OFFCURVE",
"153 100.667 OFFCURVE",
"125 134 CURVE",
"119.667 139.333 OFFCURVE",
"115 145 OFFCURVE",
"111 151 CURVE SMOOTH",
"103 163 OFFCURVE",
"92 169 OFFCURVE",
"78 169 CURVE SMOOTH",
"67.3333 169 OFFCURVE",
"58.1666 165.167 OFFCURVE",
"50.5 157.5 CURVE SMOOTH",
"42.8333 149.834 OFFCURVE",
"39 140.667 OFFCURVE",
"39 130 CURVE SMOOTH",
"39 121.333 OFFCURVE",
"41.6666 113.667 OFFCURVE",
"47 107 CURVE"
);
}
);
width = 518;
}
);
unicode = 0053;
},
{
glyphname = T;
layers = (
{
layerId = "1285D0D6-ECBB-4398-A306-ABCA7FA13BF2";
name = Regular;
paths = (
{
closed = 1;
nodes = (
"293 703 LINE",
"293 39 LINE SMOOTH",
"293 28.3333 OFFCURVE",
"296.833 19.1667 OFFCURVE",
"304.5 11.5 CURVE SMOOTH",
"312.165 3.83333 OFFCURVE",
"321.332 0 OFFCURVE",
"332 0 CURVE SMOOTH",
"342.665 0 OFFCURVE",
"351.832 3.83333 OFFCURVE",
"359.5 11.5 CURVE SMOOTH",
"367.166 19.1667 OFFCURVE",
"371 28.3333 OFFCURVE",
"371 39 CURVE SMOOTH",
"371 703 LINE",
"586 703 LINE SMOOTH",
"596.666 703 OFFCURVE",
"605.833 706.833 OFFCURVE",
"613.5 714.5 CURVE SMOOTH",
"621.166 722.166 OFFCURVE",
"625 731.333 OFFCURVE",
"625 742 CURVE SMOOTH",
"625 752.666 OFFCURVE",
"621.166 761.833 OFFCURVE",
"613.5 769.5 CURVE SMOOTH",
"605.838 777.166 OFFCURVE",
"596.671 781 OFFCURVE",
"586 781 CURVE SMOOTH",
"78 781 LINE SMOOTH",
"67.3333 781 OFFCURVE",
"58.1666 777.166 OFFCURVE",
"50.5 769.5 CURVE SMOOTH",
"42.8333 761.839 OFFCURVE",
"39 752.672 OFFCURVE",
"39 742 CURVE SMOOTH",
"39 731.339 OFFCURVE",
"42.8333 722.172 OFFCURVE",
"50.5 714.5 CURVE SMOOTH",
"58.1666 706.833 OFFCURVE",
"67.3333 703 OFFCURVE",
"78 703 CURVE SMOOTH"
);
}
);
width = 664;
}
);
unicode = 0054;
},
{
glyphname = U;
layers = (
{
layerId = "1285D0D6-ECBB-4398-A306-ABCA7FA13BF2";
name = Regular;
paths = (
{
closed = 1;
nodes = (
"39 273 LINE SMOOTH",
"39 197.667 OFFCURVE",
"65.6666 133.333 OFFCURVE",
"119 80 CURVE SMOOTH",
"172.333 26.6667 OFFCURVE",
"236.667 0 OFFCURVE",
"312 0 CURVE SMOOTH",
"388 0 OFFCURVE",
"452.666 26.6667 OFFCURVE",
"506 80 CURVE SMOOTH",
"559.333 133.333 OFFCURVE",
"586 197.667 OFFCURVE",
"586 273 CURVE SMOOTH",
"586 742 LINE SMOOTH",
"586 752.666 OFFCURVE",
"582.166 761.833 OFFCURVE",
"574.5 769.5 CURVE SMOOTH",
"566.837 777.166 OFFCURVE",
"557.671 781 OFFCURVE",
"547 781 CURVE SMOOTH",
"536.337 781 OFFCURVE",
"527.17 777.166 OFFCURVE",
"519.5 769.5 CURVE SMOOTH",
"511.833 761.839 OFFCURVE",
"508 752.672 OFFCURVE",
"508 742 CURVE SMOOTH",
"508 273 LINE SMOOTH",
"508 219 OFFCURVE",
"489 173 OFFCURVE",
"451 135 CURVE SMOOTH",
"413 96.9999 OFFCURVE",
"366.666 78 OFFCURVE",
"312 78 CURVE SMOOTH",
"258 78 OFFCURVE",
"212 96.9999 OFFCURVE",
"174 135 CURVE SMOOTH",
"136 173 OFFCURVE",
"117 219 OFFCURVE",
"117 273 CURVE SMOOTH",
"117 742 LINE SMOOTH",
"117 752.666 OFFCURVE",
"113.167 761.833 OFFCURVE",
"105.5 769.5 CURVE SMOOTH",
"97.8333 777.166 OFFCURVE",
"88.6666 781 OFFCURVE",
"78 781 CURVE SMOOTH",
"67.3333 781 OFFCURVE",
"58.1666 777.166 OFFCURVE",
"50.5 769.5 CURVE SMOOTH",
"42.8333 761.839 OFFCURVE",
"39 752.672 OFFCURVE",
"39 742 CURVE SMOOTH"
);
}
);
width = 625;
}
);
unicode = 0055;
},
{
glyphname = V;
layers = (
{
layerId = "1285D0D6-ECBB-4398-A306-ABCA7FA13BF2";
name = Regular;
paths = (
{
closed = 1;
nodes = (
"382.333 15.3333 OFFCURVE",
"385 19.3333 OFFCURVE",
"387 24 CURVE SMOOTH",
"659 720 LINE",
"662.333 727.327 OFFCURVE",
"664 734.661 OFFCURVE",
"664 742 CURVE SMOOTH",
"664 752.666 OFFCURVE",
"660.166 761.833 OFFCURVE",
"652.5 769.5 CURVE SMOOTH",
"644.833 777.166 OFFCURVE",
"635.666 781 OFFCURVE",
"625 781 CURVE SMOOTH",
"607.666 781 OFFCURVE",
"595.666 773.666 OFFCURVE",
"589 759 CURVE",
"352 147 LINE",
"114 759 LINE",
"107.333 773.666 OFFCURVE",
"95.3333 781 OFFCURVE",
"78 781 CURVE SMOOTH",
"67.3333 781 OFFCURVE",
"58.1666 777.166 OFFCURVE",
"50.5 769.5 CURVE SMOOTH",
"42.8333 761.839 OFFCURVE",
"39 752.672 OFFCURVE",
"39 742 CURVE SMOOTH",
"39 734.666 OFFCURVE",
"40.6666 727.333 OFFCURVE",
"44 720 CURVE",
"316 24 LINE SMOOTH",
"318 19.3333 OFFCURVE",
"320.666 15.3333 OFFCURVE",
"324 12 CURVE",
"331.333 4 OFFCURVE",
"340.666 0 OFFCURVE",
"352 0 CURVE SMOOTH",
"362.666 0 OFFCURVE",
"371.666 4 OFFCURVE",
"379 12 CURVE"
);
}
);
width = 703;
}
);
unicode = 0056;
},
{
glyphname = W;
layers = (
{
layerId = "1285D0D6-ECBB-4398-A306-ABCA7FA13BF2";
name = Regular;
paths = (
{
closed = 1;
nodes = (
"436.333 765.333 OFFCURVE",
"433.333 760.333 OFFCURVE",
"432 755 CURVE SMOOTH",
"273 185 LINE",
"115 755 LINE",
"113 760.333 OFFCURVE",
"110 765.333 OFFCURVE",
"106 770 CURVE",
"97.9999 777.333 OFFCURVE",
"88.6666 781 OFFCURVE",
"78 781 CURVE SMOOTH",
"67.3333 781 OFFCURVE",
"58.1666 777.166 OFFCURVE",
"50.5 769.5 CURVE SMOOTH",
"42.8333 761.839 OFFCURVE",
"39 752.672 OFFCURVE",
"39 742 CURVE SMOOTH",
"39 736.666 OFFCURVE",
"40 731 OFFCURVE",
"42 725 CURVE",
"234 32 LINE SMOOTH",
"236 24.6667 OFFCURVE",
"240 18 OFFCURVE",
"246 12 CURVE",
"253.333 4 OFFCURVE",
"262.333 0 OFFCURVE",
"273 0 CURVE SMOOTH",
"284.333 0 OFFCURVE",
"293.667 4 OFFCURVE",
"301 12 CURVE",
"307 18 OFFCURVE",
"311 25 OFFCURVE",
"313 33 CURVE SMOOTH",
"469 595 LINE",
"625 32 LINE SMOOTH",
"627 24.6667 OFFCURVE",
"631 18 OFFCURVE",
"637 12 CURVE",
"644.333 4 OFFCURVE",
"653.333 0 OFFCURVE",
"664 0 CURVE SMOOTH",
"674.666 0 OFFCURVE",
"684 4 OFFCURVE",
"692 12 CURVE",
"697.333 18 OFFCURVE",
"701.333 25 OFFCURVE",
"704 33 CURVE",
"896 725 LINE",
"897.333 731 OFFCURVE",
"898 736.666 OFFCURVE",
"898 742 CURVE SMOOTH",
"898 752.666 OFFCURVE",
"894.166 761.833 OFFCURVE",
"886.5 769.5 CURVE SMOOTH",
"878.84 777.166 OFFCURVE",
"869.673 781 OFFCURVE",
"859 781 CURVE SMOOTH",
"848.333 781 OFFCURVE",
"839.333 777.333 OFFCURVE",
"832 770 CURVE SMOOTH",
"827.333 765.333 OFFCURVE",
"824 760.333 OFFCURVE",
"822 755 CURVE",
"664 185 LINE",
"506 755 LINE",
"504 760.333 OFFCURVE",
"501 765.333 OFFCURVE",
"497 770 CURVE",
"489 777.333 OFFCURVE",
"479.666 781 OFFCURVE",
"469 781 CURVE SMOOTH",
"458.333 781 OFFCURVE",
"449 777.333 OFFCURVE",
"441 770 CURVE"
);
}
);
width = 937;
}
);
unicode = 0057;
},
{
glyphname = X;
layers = (
{
layerId = "1285D0D6-ECBB-4398-A306-ABCA7FA13BF2";
name = Regular;
paths = (
{
closed = 1;
nodes = (
"352 455 LINE",
"110 765 LINE SMOOTH",
"101.333 775.666 OFFCURVE",
"90.6666 781 OFFCURVE",
"78 781 CURVE SMOOTH",
"67.3333 781 OFFCURVE",
"58.1666 777.166 OFFCURVE",
"50.5 769.5 CURVE SMOOTH",
"42.8333 761.839 OFFCURVE",
"39 752.672 OFFCURVE",
"39 742 CURVE SMOOTH",
"39 733.333 OFFCURVE",
"41.3333 726 OFFCURVE",
"46 720 CURVE SMOOTH",
"302 391 LINE",
"47 63 LINE SMOOTH",
"41.6666 56.3333 OFFCURVE",
"39 48.3333 OFFCURVE",
"39 39 CURVE SMOOTH",
"39 28.3333 OFFCURVE",
"42.8333 19.1667 OFFCURVE",
"50.5 11.5 CURVE SMOOTH",
"58.1666 3.83333 OFFCURVE",
"67.3333 0 OFFCURVE",
"78 0 CURVE SMOOTH",
"90.6666 0 OFFCURVE",
"100.667 4.66667 OFFCURVE",
"108 14 CURVE SMOOTH",
"352 327 LINE",
"595 14 LINE SMOOTH",
"602.333 4.66667 OFFCURVE",
"612.333 0 OFFCURVE",
"625 0 CURVE SMOOTH",
"635.666 0 OFFCURVE",
"644.833 3.83333 OFFCURVE",
"652.5 11.5 CURVE SMOOTH",
"660.166 19.1667 OFFCURVE",
"664 28.3333 OFFCURVE",
"664 39 CURVE SMOOTH",
"664 48.3333 OFFCURVE",
"661.333 56.3333 OFFCURVE",
"656 63 CURVE SMOOTH",
"401 391 LINE",
"657 720 LINE SMOOTH",
"661.666 726 OFFCURVE",
"664 733.333 OFFCURVE",
"664 742 CURVE SMOOTH",
"664 752.666 OFFCURVE",
"660.166 761.833 OFFCURVE",
"652.5 769.5 CURVE SMOOTH",
"644.833 777.166 OFFCURVE",
"635.666 781 OFFCURVE",
"625 781 CURVE SMOOTH",
"612.334 781 OFFCURVE",
"601.667 775.666 OFFCURVE",
"593 765 CURVE SMOOTH"
);
}
);
width = 703;
}
);
unicode = 0058;
},
{
glyphname = Y;
layers = (
{
layerId = "1285D0D6-ECBB-4398-A306-ABCA7FA13BF2";
name = Regular;
paths = (
{
closed = 1;
nodes = (
"352 379 LINE",
"580 720 LINE",
"584 726.666 OFFCURVE",
"586 734 OFFCURVE",
"586 742 CURVE SMOOTH",
"586 752.666 OFFCURVE",
"582.166 761.833 OFFCURVE",
"574.5 769.5 CURVE SMOOTH",
"566.837 777.166 OFFCURVE",
"557.671 781 OFFCURVE",
"547 781 CURVE SMOOTH",
"533.666 781 OFFCURVE",
"523 775.666 OFFCURVE",
"515 765 CURVE",
"312 461 LINE",
"110 765 LINE",
"102 775.666 OFFCURVE",
"91.3333 781 OFFCURVE",
"78 781 CURVE SMOOTH",
"67.3333 781 OFFCURVE",
"58.1666 777.166 OFFCURVE",
"50.5 769.5 CURVE SMOOTH",
"42.8333 761.839 OFFCURVE",
"39 752.672 OFFCURVE",
"39 742 CURVE SMOOTH",
"39 734 OFFCURVE",
"41 726.666 OFFCURVE",
"45 720 CURVE",
"273 379 LINE",
"273 39 LINE SMOOTH",
"273 28.3333 OFFCURVE",
"276.833 19.1667 OFFCURVE",
"284.5 11.5 CURVE SMOOTH",
"292.165 3.83333 OFFCURVE",
"301.332 0 OFFCURVE",
"312 0 CURVE SMOOTH",
"323.333 0 OFFCURVE",
"332.833 3.83333 OFFCURVE",
"340.5 11.5 CURVE SMOOTH",
"348.166 19.1667 OFFCURVE",
"352 28.3333 OFFCURVE",
"352 39 CURVE SMOOTH"
);
}
);
width = 625;
}
);
unicode = 0059;
},
{
glyphname = Z;
layers = (
{
layerId = "1285D0D6-ECBB-4398-A306-ABCA7FA13BF2";
name = Regular;
paths = (
{
closed = 1;
nodes = (
"545 703 LINE",
"47 63 LINE SMOOTH",
"41.6666 56.3333 OFFCURVE",
"39 48.3333 OFFCURVE",
"39 39 CURVE SMOOTH",
"39 28.3333 OFFCURVE",
"42.8333 19.1667 OFFCURVE",
"50.5 11.5 CURVE SMOOTH",
"58.1666 3.83333 OFFCURVE",
"67.3333 0 OFFCURVE",
"78 0 CURVE SMOOTH",
"625 0 LINE SMOOTH",
"635.666 0 OFFCURVE",
"644.833 3.83333 OFFCURVE",
"652.5 11.5 CURVE SMOOTH",
"660.166 19.1667 OFFCURVE",
"664 28.3333 OFFCURVE",
"664 39 CURVE SMOOTH",
"664 49.6666 OFFCURVE",
"660.166 58.8333 OFFCURVE",
"652.5 66.5 CURVE SMOOTH",
"644.833 74.1666 OFFCURVE",
"635.666 78 OFFCURVE",
"625 78 CURVE SMOOTH",
"158 78 LINE",
"657 720 LINE SMOOTH",
"661.666 726 OFFCURVE",
"664 733.333 OFFCURVE",
"664 742 CURVE SMOOTH",
"664 752.666 OFFCURVE",
"660.166 761.833 OFFCURVE",
"652.5 769.5 CURVE SMOOTH",
"644.833 777.166 OFFCURVE",
"635.666 781 OFFCURVE",
"625 781 CURVE SMOOTH",
"78 781 LINE SMOOTH",
"67.3333 781 OFFCURVE",
"58.1666 777.166 OFFCURVE",
"50.5 769.5 CURVE SMOOTH",
"42.8333 761.839 OFFCURVE",
"39 752.672 OFFCURVE",
"39 742 CURVE SMOOTH",
"39 731.339 OFFCURVE",
"42.8333 722.172 OFFCURVE",
"50.5 714.5 CURVE SMOOTH",
"58.1666 706.833 OFFCURVE",
"67.3333 703 OFFCURVE",
"78 703 CURVE SMOOTH"
);
}
);
width = 703;
}
);
unicode = 005A;
},
{
glyphname = bracketleft;
layers = (
{
layerId = "1285D0D6-ECBB-4398-A306-ABCA7FA13BF2";
name = Regular;
paths = (
{
closed = 1;
nodes = (
"78 781 LINE SMOOTH",
"67.3333 781 OFFCURVE",
"58.1666 777.166 OFFCURVE",
"50.5 769.5 CURVE SMOOTH",
"42.8333 761.839 OFFCURVE",
"39 752.672 OFFCURVE",
"39 742 CURVE SMOOTH",
"39 -195 LINE SMOOTH",
"39 -206 OFFCURVE",
"42.8333 -215 OFFCURVE",
"50.5 -223 CURVE SMOOTH",
"58.1666 -230 OFFCURVE",
"67.3333 -234 OFFCURVE",
"78 -234 CURVE SMOOTH",
"234 -234 LINE SMOOTH",
"244.667 -234 OFFCURVE",
"253.833 -230 OFFCURVE",
"261.5 -223 CURVE SMOOTH",
"269.167 -215 OFFCURVE",
"273 -206 OFFCURVE",
"273 -195 CURVE SMOOTH",
"273 -184 OFFCURVE",
"269.167 -175 OFFCURVE",
"261.5 -168 CURVE SMOOTH",
"253.834 -160 OFFCURVE",
"244.667 -156 OFFCURVE",
"234 -156 CURVE SMOOTH",
"117 -156 LINE",
"117 703 LINE",
"234 703 LINE SMOOTH",
"244.667 703 OFFCURVE",
"253.833 706.833 OFFCURVE",
"261.5 714.5 CURVE SMOOTH",
"269.167 722.166 OFFCURVE",
"273 731.333 OFFCURVE",
"273 742 CURVE SMOOTH",
"273 752.666 OFFCURVE",
"269.167 761.833 OFFCURVE",
"261.5 769.5 CURVE SMOOTH",
"253.834 777.166 OFFCURVE",
"244.667 781 OFFCURVE",
"234 781 CURVE SMOOTH"
);
}
);
width = 312;
}
);
unicode = 005B;
},
{
glyphname = backslash;
layers = (
{
layerId = "1285D0D6-ECBB-4398-A306-ABCA7FA13BF2";
name = Regular;
paths = (
{
closed = 1;
nodes = (
"114 759 LINE",
"112 763 OFFCURVE",
"109.333 766.666 OFFCURVE",
"106 770 CURVE",
"97.9999 777.333 OFFCURVE",
"88.6666 781 OFFCURVE",
"78 781 CURVE SMOOTH",
"67.3333 781 OFFCURVE",
"58.1666 777.166 OFFCURVE",
"50.5 769.5 CURVE SMOOTH",
"42.8333 761.839 OFFCURVE",
"39 752.672 OFFCURVE",
"39 742 CURVE SMOOTH",
"39 736 OFFCURVE",
"40 730.666 OFFCURVE",
"42 726 CURVE SMOOTH",
"355 -56 LINE",
"357 -60 OFFCURVE",
"359.666 -63 OFFCURVE",
"363 -66 CURVE",
"371 -74 OFFCURVE",
"380.333 -78 OFFCURVE",
"391 -78 CURVE SMOOTH",
"401.665 -78 OFFCURVE",
"410.832 -74 OFFCURVE",
"418.5 -67 CURVE SMOOTH",
"426.166 -59 OFFCURVE",
"430 -50 OFFCURVE",
"430 -39 CURVE SMOOTH",
"430 -33 OFFCURVE",
"428.666 -27 OFFCURVE",
"426 -22 CURVE"
);
}
);
width = 469;
}
);
unicode = 005C;
},
{
glyphname = bracketright;
layers = (
{
layerId = "1285D0D6-ECBB-4398-A306-ABCA7FA13BF2";
name = Regular;
paths = (
{
closed = 1;
nodes = (
"273 742 LINE SMOOTH",
"273 752.666 OFFCURVE",
"269.167 761.833 OFFCURVE",
"261.5 769.5 CURVE SMOOTH",
"253.834 777.166 OFFCURVE",
"244.667 781 OFFCURVE",
"234 781 CURVE SMOOTH",
"78 781 LINE SMOOTH",
"67.3333 781 OFFCURVE",
"58.1666 777.166 OFFCURVE",
"50.5 769.5 CURVE SMOOTH",
"42.8333 761.839 OFFCURVE",
"39 752.672 OFFCURVE",
"39 742 CURVE SMOOTH",
"39 731.339 OFFCURVE",
"42.8333 722.172 OFFCURVE",
"50.5 714.5 CURVE SMOOTH",
"58.1666 706.833 OFFCURVE",
"67.3333 703 OFFCURVE",
"78 703 CURVE SMOOTH",
"195 703 LINE",
"195 -156 LINE",
"78 -156 LINE SMOOTH",
"67.3333 -156 OFFCURVE",
"58.1666 -160 OFFCURVE",
"50.5 -168 CURVE SMOOTH",
"42.8333 -175 OFFCURVE",
"39 -184 OFFCURVE",
"39 -195 CURVE SMOOTH",
"39 -206 OFFCURVE",
"42.8333 -215 OFFCURVE",
"50.5 -223 CURVE SMOOTH",
"58.1666 -230 OFFCURVE",
"67.3333 -234 OFFCURVE",
"78 -234 CURVE SMOOTH",
"234 -234 LINE SMOOTH",
"244.667 -234 OFFCURVE",
"253.833 -230 OFFCURVE",
"261.5 -223 CURVE SMOOTH",
"269.167 -215 OFFCURVE",
"273 -206 OFFCURVE",
"273 -195 CURVE SMOOTH"
);
}
);
width = 312;
}
);
unicode = 005D;
},
{
glyphname = asciicircum;
layers = (
{
layerId = "1285D0D6-ECBB-4398-A306-ABCA7FA13BF2";
name = Regular;
paths = (
{
closed = 1;
nodes = (
"234 671 LINE",
"359 484 LINE",
"367 474 OFFCURVE",
"377.666 469 OFFCURVE",
"391 469 CURVE SMOOTH",
"401.665 469 OFFCURVE",
"410.832 472.833 OFFCURVE",
"418.5 480.5 CURVE SMOOTH",
"426.166 488.165 OFFCURVE",
"430 497.331 OFFCURVE",
"430 508 CURVE SMOOTH",
"430 515.333 OFFCURVE",
"428 522 OFFCURVE",
"424 528 CURVE SMOOTH",
"266 765 LINE SMOOTH",
"258.667 775.666 OFFCURVE",
"248 781 OFFCURVE",
"234 781 CURVE SMOOTH",
"220 781 OFFCURVE",
"209.667 775.666 OFFCURVE",
"203 765 CURVE SMOOTH",
"44 528 LINE",
"40.6666 522 OFFCURVE",
"39 515.333 OFFCURVE",
"39 508 CURVE SMOOTH",
"39 497.333 OFFCURVE",
"42.8333 488.166 OFFCURVE",
"50.5 480.5 CURVE SMOOTH",
"58.1666 472.833 OFFCURVE",
"67.3333 469 OFFCURVE",
"78 469 CURVE SMOOTH",
"91.3333 469 OFFCURVE",
"101.667 474 OFFCURVE",
"109 484 CURVE"
);
}
);
width = 469;
}
);
unicode = 005E;
},
{
glyphname = underscore;
layers = (
{
layerId = "1285D0D6-ECBB-4398-A306-ABCA7FA13BF2";
name = Regular;
paths = (
{
closed = 1;
nodes = (
"469 -78 LINE SMOOTH",
"479.665 -78 OFFCURVE",
"488.831 -74 OFFCURVE",
"496.5 -67 CURVE SMOOTH",
"504.166 -59 OFFCURVE",
"508 -50 OFFCURVE",
"508 -39 CURVE SMOOTH",
"508 -28 OFFCURVE",
"504.166 -19 OFFCURVE",
"496.5 -12 CURVE SMOOTH",
"488.833 -4 OFFCURVE",
"479.666 0 OFFCURVE",
"469 0 CURVE SMOOTH",
"0 0 LINE SMOOTH",
"-11 0 OFFCURVE",
"-20 -4 OFFCURVE",
"-28 -12 CURVE SMOOTH",
"-35 -19 OFFCURVE",
"-39 -28 OFFCURVE",
"-39 -39 CURVE SMOOTH",
"-39 -50 OFFCURVE",
"-35 -59 OFFCURVE",
"-28 -67 CURVE SMOOTH",
"-20 -74 OFFCURVE",
"-11 -78 OFFCURVE",
"0 -78 CURVE SMOOTH"
);
}
);
width = 469;
}
);
unicode = 005F;
},
{
glyphname = grave;
layers = (
{
layerId = "1285D0D6-ECBB-4398-A306-ABCA7FA13BF2";
name = Regular;
paths = (
{
closed = 1;
nodes = (
"39 732 OFFCURVE",
"42.6666 723 OFFCURVE",
"50 715 CURVE",
"168 596 LINE",
"176 589.333 OFFCURVE",
"185 586 OFFCURVE",
"195 586 CURVE SMOOTH",
"205.667 586 OFFCURVE",
"214.833 589.833 OFFCURVE",
"222.5 597.5 CURVE SMOOTH",
"230.167 605.166 OFFCURVE",
"234 614.333 OFFCURVE",
"234 625 CURVE SMOOTH",
"234 635 OFFCURVE",
"231 643.666 OFFCURVE",
"225 651 CURVE",
"106 770 LINE",
"97.9999 777.333 OFFCURVE",
"88.6666 781 OFFCURVE",
"78 781 CURVE SMOOTH",
"67.3333 781 OFFCURVE",
"58.1666 777.166 OFFCURVE",
"50.5 769.5 CURVE SMOOTH",
"42.8333 761.839 OFFCURVE",
"39 752.672 OFFCURVE",
"39 742 CURVE SMOOTH"
);
}
);
width = 273;
}
);
unicode = 0060;
},
{
glyphname = a;
layers = (
{
layerId = "1285D0D6-ECBB-4398-A306-ABCA7FA13BF2";
name = Regular;
paths = (
{
closed = 1;
nodes = (
"366.666 469 OFFCURVE",
"413 449.833 OFFCURVE",
"451 411.5 CURVE SMOOTH",
"489 373.166 OFFCURVE",
"508 327 OFFCURVE",
"508 273 CURVE SMOOTH",
"508 219 OFFCURVE",
"489 173 OFFCURVE",
"451 135 CURVE SMOOTH",
"413 96.9999 OFFCURVE",
"366.666 78 OFFCURVE",
"312 78 CURVE SMOOTH",
"258 78 OFFCURVE",
"212 96.9999 OFFCURVE",
"174 135 CURVE SMOOTH",
"136 173 OFFCURVE",
"117 219 OFFCURVE",
"117 273 CURVE SMOOTH",
"117 327 OFFCURVE",
"136 373.166 OFFCURVE",
"174 411.5 CURVE SMOOTH",
"212 449.833 OFFCURVE",
"258 469 OFFCURVE",
"312 469 CURVE SMOOTH"
);
},
{
closed = 1;
nodes = (
"508 39 LINE SMOOTH",
"508 28.3333 OFFCURVE",
"511.833 19.1667 OFFCURVE",
"519.5 11.5 CURVE SMOOTH",
"527.166 3.83333 OFFCURVE",
"536.333 0 OFFCURVE",
"547 0 CURVE SMOOTH",
"557.666 0 OFFCURVE",
"566.833 3.83333 OFFCURVE",
"574.5 11.5 CURVE SMOOTH",
"582.166 19.1667 OFFCURVE",
"586 28.3333 OFFCURVE",
"586 39 CURVE SMOOTH",
"586 273 LINE SMOOTH",
"586 349 OFFCURVE",
"559.333 413.666 OFFCURVE",
"506 467 CURVE SMOOTH",
"452.666 520.333 OFFCURVE",
"388 547 OFFCURVE",
"312 547 CURVE SMOOTH",
"236.667 547 OFFCURVE",
"172.333 520.333 OFFCURVE",
"119 467 CURVE SMOOTH",
"65.6666 413.666 OFFCURVE",
"39 349 OFFCURVE",
"39 273 CURVE SMOOTH",
"39 197.667 OFFCURVE",
"65.6666 133.333 OFFCURVE",
"119 80 CURVE SMOOTH",
"172.333 26.6667 OFFCURVE",
"236.667 0 OFFCURVE",
"312 0 CURVE SMOOTH",
"388 0 OFFCURVE",
"453.333 27.3333 OFFCURVE",
"508 82 CURVE"
);
}
);
width = 625;
}
);
leftKerningGroup = a;
unicode = 0061;
},
{
glyphname = b;
layers = (
{
layerId = "1285D0D6-ECBB-4398-A306-ABCA7FA13BF2";
name = Regular;
paths = (
{
closed = 1;
nodes = (
"258 78 OFFCURVE",
"212 96.9999 OFFCURVE",
"174 135 CURVE SMOOTH",
"136 173 OFFCURVE",
"117 219 OFFCURVE",
"117 273 CURVE SMOOTH",
"117 327 OFFCURVE",
"136 373.166 OFFCURVE",
"174 411.5 CURVE SMOOTH",
"212 449.833 OFFCURVE",
"258 469 OFFCURVE",
"312 469 CURVE SMOOTH",
"366.666 469 OFFCURVE",
"413 449.833 OFFCURVE",
"451 411.5 CURVE SMOOTH",
"489 373.166 OFFCURVE",
"508 327 OFFCURVE",
"508 273 CURVE SMOOTH",
"508 219 OFFCURVE",
"489 173 OFFCURVE",
"451 135 CURVE SMOOTH",
"413 96.9999 OFFCURVE",
"366.666 78 OFFCURVE",
"312 78 CURVE SMOOTH"
);
},
{
closed = 1;
nodes = (
"117 465 LINE",
"117 743 LINE SMOOTH",
"117 753.666 OFFCURVE",
"113.167 762.833 OFFCURVE",
"105.5 770.5 CURVE SMOOTH",
"97.8333 778.166 OFFCURVE",
"88.6666 782 OFFCURVE",
"78 782 CURVE SMOOTH",
"67.3333 782 OFFCURVE",
"58.1666 778.166 OFFCURVE",
"50.5 770.5 CURVE SMOOTH",
"42.8333 762.839 OFFCURVE",
"39 753.672 OFFCURVE",
"39 743 CURVE SMOOTH",
"39 273 LINE SMOOTH",
"39 197.667 OFFCURVE",
"65.6666 133.333 OFFCURVE",
"119 80 CURVE SMOOTH",
"172.333 26.6667 OFFCURVE",
"236.667 0 OFFCURVE",
"312 0 CURVE SMOOTH",
"388 0 OFFCURVE",
"452.666 26.6667 OFFCURVE",
"506 80 CURVE SMOOTH",
"559.333 133.333 OFFCURVE",
"586 197.667 OFFCURVE",
"586 273 CURVE SMOOTH",
"586 349 OFFCURVE",
"559.333 413.666 OFFCURVE",
"506 467 CURVE SMOOTH",
"452.666 520.333 OFFCURVE",
"388 547 OFFCURVE",
"312 547 CURVE SMOOTH",
"236.667 547 OFFCURVE",
"172.333 520.333 OFFCURVE",
"119 467 CURVE SMOOTH"
);
}
);
width = 625;
}
);
unicode = 0062;
},
{
glyphname = c;
layers = (
{
layerId = "1285D0D6-ECBB-4398-A306-ABCA7FA13BF2";
name = Regular;
paths = (
{
closed = 1;
nodes = (
"454.666 134 OFFCURVE",
"446.666 131.333 OFFCURVE",
"440 126 CURVE",
"404 93.9999 OFFCURVE",
"361.333 78 OFFCURVE",
"312 78 CURVE SMOOTH",
"258 78 OFFCURVE",
"212 96.9999 OFFCURVE",
"174 135 CURVE SMOOTH",
"136 173 OFFCURVE",
"117 219 OFFCURVE",
"117 273 CURVE SMOOTH",
"117 327 OFFCURVE",
"136 373.166 OFFCURVE",
"174 411.5 CURVE SMOOTH",
"212 449.833 OFFCURVE",
"258 469 OFFCURVE",
"312 469 CURVE SMOOTH",
"361.333 469 OFFCURVE",
"404 452.666 OFFCURVE",
"440 420 CURVE",
"447.333 414.666 OFFCURVE",
"455.666 412 OFFCURVE",
"465 412 CURVE SMOOTH",
"475.666 412 OFFCURVE",
"484.833 415.833 OFFCURVE",
"492.5 423.5 CURVE SMOOTH",
"500.166 431.165 OFFCURVE",
"504 440.331 OFFCURVE",
"504 451 CURVE SMOOTH",
"504 463 OFFCURVE",
"499.666 473 OFFCURVE",
"491 481 CURVE SMOOTH",
"440.333 525 OFFCURVE",
"380.666 547 OFFCURVE",
"312 547 CURVE SMOOTH",
"236.667 547 OFFCURVE",
"172.333 520.333 OFFCURVE",
"119 467 CURVE SMOOTH",
"65.6666 413.666 OFFCURVE",
"39 349 OFFCURVE",
"39 273 CURVE SMOOTH",
"39 197.667 OFFCURVE",
"65.6666 133.333 OFFCURVE",
"119 80 CURVE SMOOTH",
"172.333 26.6667 OFFCURVE",
"236.667 0 OFFCURVE",
"312 0 CURVE SMOOTH",
"380.666 0 OFFCURVE",
"440.333 22 OFFCURVE",
"491 66 CURVE",
"499 74.6666 OFFCURVE",
"503 84.3333 OFFCURVE",
"503 94.9999 CURVE SMOOTH",
"503 105.667 OFFCURVE",
"499.166 114.833 OFFCURVE",
"491.5 122.5 CURVE SMOOTH",
"483.833 130.167 OFFCURVE",
"474.666 134 OFFCURVE",
"464 134 CURVE SMOOTH"
);
}
);
width = 547;
}
);
leftKerningGroup = a;
unicode = 0063;
},
{
glyphname = d;
layers = (
{
layerId = "1285D0D6-ECBB-4398-A306-ABCA7FA13BF2";
name = Regular;
paths = (
{
closed = 1;
nodes = (
"508 219 OFFCURVE",
"489 173 OFFCURVE",
"451 135 CURVE SMOOTH",
"413 96.9999 OFFCURVE",
"366.666 78 OFFCURVE",
"312 78 CURVE SMOOTH",
"258 78 OFFCURVE",
"212 96.9999 OFFCURVE",
"174 135 CURVE SMOOTH",
"136 173 OFFCURVE",
"117 219 OFFCURVE",
"117 273 CURVE SMOOTH",
"117 327 OFFCURVE",
"136 373.166 OFFCURVE",
"174 411.5 CURVE SMOOTH",
"212 449.833 OFFCURVE",
"258 469 OFFCURVE",
"312 469 CURVE SMOOTH",
"366.666 469 OFFCURVE",
"413 449.833 OFFCURVE",
"451 411.5 CURVE SMOOTH",
"489 373.166 OFFCURVE",
"508 327 OFFCURVE",
"508 273 CURVE SMOOTH"
);
},
{
closed = 1;
nodes = (
"508 465 LINE",
"506 467 LINE SMOOTH",
"452.666 520.333 OFFCURVE",
"388 547 OFFCURVE",
"312 547 CURVE SMOOTH",
"236.667 547 OFFCURVE",
"172.333 520.333 OFFCURVE",
"119 467 CURVE SMOOTH",
"65.6666 413.666 OFFCURVE",
"39 349 OFFCURVE",
"39 273 CURVE SMOOTH",
"39 197.667 OFFCURVE",
"65.6666 133.333 OFFCURVE",
"119 80 CURVE SMOOTH",
"172.333 26.6667 OFFCURVE",
"236.667 0 OFFCURVE",
"312 0 CURVE SMOOTH",
"388 0 OFFCURVE",
"452.666 26.6667 OFFCURVE",
"506 80 CURVE SMOOTH",
"559.333 133.333 OFFCURVE",
"586 197.667 OFFCURVE",
"586 273 CURVE SMOOTH",
"586 743 LINE SMOOTH",
"586 753.666 OFFCURVE",
"582.166 762.833 OFFCURVE",
"574.5 770.5 CURVE SMOOTH",
"566.837 778.166 OFFCURVE",
"557.671 782 OFFCURVE",
"547 782 CURVE SMOOTH",
"536.337 782 OFFCURVE",
"527.17 778.166 OFFCURVE",
"519.5 770.5 CURVE SMOOTH",
"511.833 762.839 OFFCURVE",
"508 753.672 OFFCURVE",
"508 743 CURVE SMOOTH"
);
}
);
width = 625;
}
);
leftKerningGroup = a;
unicode = 0064;
},
{
glyphname = e;
layers = (
{
layerId = "1285D0D6-ECBB-4398-A306-ABCA7FA13BF2";
name = Regular;
paths = (
{
closed = 1;
nodes = (
"121 312 LINE",
"127.667 350 OFFCURVE",
"145.333 383.333 OFFCURVE",
"174 412 CURVE SMOOTH",
"212 450 OFFCURVE",
"258 469 OFFCURVE",
"312 469 CURVE SMOOTH",
"366.666 469 OFFCURVE",
"413 450 OFFCURVE",
"451 412 CURVE SMOOTH",
"479.665 383.333 OFFCURVE",
"497.332 350 OFFCURVE",
"504 312 CURVE"
);
},
{
closed = 1;
nodes = (
"453.668 133 OFFCURVE",
"445.335 130.333 OFFCURVE",
"438 125 CURVE",
"403.333 93.6666 OFFCURVE",
"361.333 78 OFFCURVE",
"312 78 CURVE SMOOTH",
"258 78 OFFCURVE",
"212 96.9999 OFFCURVE",
"174 135 CURVE SMOOTH",
"145.333 163.667 OFFCURVE",
"127.667 196.667 OFFCURVE",
"121 234 CURVE",
"547 234 LINE SMOOTH",
"557.666 234 OFFCURVE",
"566.833 237.833 OFFCURVE",
"574.5 245.5 CURVE SMOOTH",
"582.166 253.167 OFFCURVE",
"586 262.333 OFFCURVE",
"586 273 CURVE SMOOTH",
"586 349 OFFCURVE",
"559.333 413.666 OFFCURVE",
"506 467 CURVE SMOOTH",
"452.666 520.333 OFFCURVE",
"388 547 OFFCURVE",
"312 547 CURVE SMOOTH",
"236.667 547 OFFCURVE",
"172.333 520.333 OFFCURVE",
"119 467 CURVE SMOOTH",
"65.6666 413.666 OFFCURVE",
"39 349 OFFCURVE",
"39 273 CURVE SMOOTH",
"39 197.667 OFFCURVE",
"65.6666 133.333 OFFCURVE",
"119 80 CURVE SMOOTH",
"172.333 26.6667 OFFCURVE",
"236.667 0 OFFCURVE",
"312 0 CURVE SMOOTH",
"380.666 0 OFFCURVE",
"440.333 22 OFFCURVE",
"491 66 CURVE",
"498.333 74 OFFCURVE",
"502 83.3333 OFFCURVE",
"502 93.9999 CURVE SMOOTH",
"502 104.667 OFFCURVE",
"498.166 113.833 OFFCURVE",
"490.5 121.5 CURVE SMOOTH",
"482.833 129.167 OFFCURVE",
"473.666 133 OFFCURVE",
"463 133 CURVE SMOOTH"
);
}
);
width = 625;
}
);
leftKerningGroup = a;
unicode = 0065;
},
{
glyphname = f;
layers = (
{
layerId = "1285D0D6-ECBB-4398-A306-ABCA7FA13BF2";
name = Regular;
paths = (
{
closed = 1;
nodes = (
"195.333 781 OFFCURVE",
"117 703 OFFCURVE",
"117 547 CURVE SMOOTH",
"117 518 LINE",
"78 518 LINE SMOOTH",
"67.3333 518 OFFCURVE",
"58.1666 514.166 OFFCURVE",
"50.5 506.5 CURVE SMOOTH",
"42.8333 498.833 OFFCURVE",
"39 489.666 OFFCURVE",
"39 479 CURVE SMOOTH",
"39 467.666 OFFCURVE",
"42.8333 458.166 OFFCURVE",
"50.5 450.5 CURVE SMOOTH",
"58.1666 442.833 OFFCURVE",
"67.3333 439 OFFCURVE",
"78 439 CURVE SMOOTH",
"117 439 LINE",
"117 39 LINE SMOOTH",
"117 28.3333 OFFCURVE",
"120.833 19.1667 OFFCURVE",
"128.5 11.5 CURVE SMOOTH",
"136.167 3.83333 OFFCURVE",
"145.333 0 OFFCURVE",
"156 0 CURVE SMOOTH",
"166.667 0 OFFCURVE",
"175.833 3.83333 OFFCURVE",
"183.5 11.5 CURVE SMOOTH",
"191.167 19.1667 OFFCURVE",
"195 28.3333 OFFCURVE",
"195 39 CURVE SMOOTH",
"195 439 LINE",
"313 439 LINE SMOOTH",
"323.666 439 OFFCURVE",
"332.833 442.833 OFFCURVE",
"340.5 450.5 CURVE SMOOTH",
"348.166 458.166 OFFCURVE",
"352 467.666 OFFCURVE",
"352 479 CURVE SMOOTH",
"352 489.665 OFFCURVE",
"348.166 498.831 OFFCURVE",
"340.5 506.5 CURVE SMOOTH",
"332.833 514.166 OFFCURVE",
"323.666 518 OFFCURVE",
"313 518 CURVE SMOOTH",
"195 518 LINE",
"195 547 LINE SMOOTH",
"195 651 OFFCURVE",
"247.333 703 OFFCURVE",
"352 703 CURVE SMOOTH",
"362.665 703 OFFCURVE",
"371.832 706.833 OFFCURVE",
"379.5 714.5 CURVE SMOOTH",
"387.166 722.166 OFFCURVE",
"391 731.333 OFFCURVE",
"391 742 CURVE SMOOTH",
"391 752.666 OFFCURVE",
"387.166 761.833 OFFCURVE",
"379.5 769.5 CURVE SMOOTH",
"371.833 777.166 OFFCURVE",
"362.666 781 OFFCURVE",
"352 781 CURVE SMOOTH"
);
}
);
width = 391;
}
);
unicode = 0066;
},
{
glyphname = g;
layers = (
{
layerId = "1285D0D6-ECBB-4398-A306-ABCA7FA13BF2";
name = Regular;
paths = (
{
closed = 1;
nodes = (
"366.666 469 OFFCURVE",
"413 449.833 OFFCURVE",
"451 411.5 CURVE SMOOTH",
"489 373.166 OFFCURVE",
"508 327 OFFCURVE",
"508 273 CURVE SMOOTH",
"508 219 OFFCURVE",
"489 173 OFFCURVE",
"451 135 CURVE SMOOTH",
"413 96.9999 OFFCURVE",
"366.666 78 OFFCURVE",
"312 78 CURVE SMOOTH",
"258 78 OFFCURVE",
"212 96.9999 OFFCURVE",
"174 135 CURVE SMOOTH",
"136 173 OFFCURVE",
"117 219 OFFCURVE",
"117 273 CURVE SMOOTH",
"117 327 OFFCURVE",
"136 373.166 OFFCURVE",
"174 411.5 CURVE SMOOTH",
"212 449.833 OFFCURVE",
"258 469 OFFCURVE",
"312 469 CURVE SMOOTH"
);
},
{
closed = 1;
nodes = (
"508 82 LINE",
"508 0 LINE SMOOTH",
"508 -31 OFFCURVE",
"495 -62 OFFCURVE",
"469 -93 CURVE",
"427 -135 OFFCURVE",
"376.333 -156 OFFCURVE",
"317 -156 CURVE SMOOTH",
"257.667 -156 OFFCURVE",
"207 -135 OFFCURVE",
"165 -93 CURVE SMOOTH",
"149.667 -78 OFFCURVE",
"137 -61 OFFCURVE",
"127 -44 CURVE",
"125 -40 OFFCURVE",
"122.333 -36 OFFCURVE",
"119 -32 CURVE",
"111 -25 OFFCURVE",
"101.667 -21 OFFCURVE",
"91 -21 CURVE SMOOTH",
"80.3333 -21 OFFCURVE",
"71.1666 -25 OFFCURVE",
"63.5 -33 CURVE SMOOTH",
"55.8333 -40 OFFCURVE",
"52 -49 OFFCURVE",
"52 -60 CURVE SMOOTH",
"52 -68 OFFCURVE",
"54 -75 OFFCURVE",
"58 -81 CURVE",
"71.3333 -105 OFFCURVE",
"88.6666 -127 OFFCURVE",
"110 -148 CURVE SMOOTH",
"166.667 -205 OFFCURVE",
"235.667 -234 OFFCURVE",
"317 -234 CURVE SMOOTH",
"397.666 -234 OFFCURVE",
"466.666 -205 OFFCURVE",
"524 -148 CURVE SMOOTH",
"565.333 -106 OFFCURVE",
"586 -57 OFFCURVE",
"586 0 CURVE SMOOTH",
"586 273 LINE SMOOTH",
"586 349 OFFCURVE",
"559.333 413.666 OFFCURVE",
"506 467 CURVE SMOOTH",
"452.666 520.333 OFFCURVE",
"388 547 OFFCURVE",
"312 547 CURVE SMOOTH",
"236.667 547 OFFCURVE",
"172.333 520.333 OFFCURVE",
"119 467 CURVE SMOOTH",
"65.6666 413.666 OFFCURVE",
"39 349 OFFCURVE",
"39 273 CURVE SMOOTH",
"39 197.667 OFFCURVE",
"65.6666 133.333 OFFCURVE",
"119 80 CURVE SMOOTH",
"172.333 26.6667 OFFCURVE",
"236.667 0 OFFCURVE",
"312 0 CURVE SMOOTH",
"388 0 OFFCURVE",
"452.666 26.6667 OFFCURVE",
"506 80 CURVE SMOOTH"
);
}
);
width = 625;
}
);
leftKerningGroup = a;
unicode = 0067;
},
{
glyphname = h;
layers = (
{
layerId = "1285D0D6-ECBB-4398-A306-ABCA7FA13BF2";
name = Regular;
paths = (
{
closed = 1;
nodes = (
"39 39 LINE SMOOTH",
"39 28.3333 OFFCURVE",
"42.8333 19.1667 OFFCURVE",
"50.5 11.5 CURVE SMOOTH",
"58.1666 3.83333 OFFCURVE",
"67.3333 0 OFFCURVE",
"78 0 CURVE SMOOTH",
"88.6665 0 OFFCURVE",
"97.8332 3.83333 OFFCURVE",
"105.5 11.5 CURVE SMOOTH",
"113.167 19.1667 OFFCURVE",
"117 28.3333 OFFCURVE",
"117 39 CURVE SMOOTH",
"117 293 LINE SMOOTH",
"117 341.666 OFFCURVE",
"134.166 383.166 OFFCURVE",
"168.5 417.5 CURVE SMOOTH",
"202.833 451.833 OFFCURVE",
"244.333 469 OFFCURVE",
"293 469 CURVE SMOOTH",
"341.666 469 OFFCURVE",
"383.166 451.833 OFFCURVE",
"417.5 417.5 CURVE SMOOTH",
"451.833 383.166 OFFCURVE",
"469 341.666 OFFCURVE",
"469 293 CURVE SMOOTH",
"469 39 LINE SMOOTH",
"469 28.3333 OFFCURVE",
"472.833 19.1667 OFFCURVE",
"480.5 11.5 CURVE SMOOTH",
"488.165 3.83333 OFFCURVE",
"497.331 0 OFFCURVE",
"508 0 CURVE SMOOTH",
"518.666 0 OFFCURVE",
"527.833 3.83333 OFFCURVE",
"535.5 11.5 CURVE SMOOTH",
"543.166 19.1667 OFFCURVE",
"547 28.3333 OFFCURVE",
"547 39 CURVE SMOOTH",
"547 293 LINE SMOOTH",
"547 363 OFFCURVE",
"522.166 422.833 OFFCURVE",
"472.5 472.5 CURVE SMOOTH",
"422.833 522.166 OFFCURVE",
"363 547 OFFCURVE",
"293 547 CURVE SMOOTH",
"224.333 547 OFFCURVE",
"165.667 523.333 OFFCURVE",
"117 476 CURVE",
"117 742 LINE SMOOTH",
"117 752.666 OFFCURVE",
"113.167 761.833 OFFCURVE",
"105.5 769.5 CURVE SMOOTH",
"97.8333 777.166 OFFCURVE",
"88.6666 781 OFFCURVE",
"78 781 CURVE SMOOTH",
"67.3333 781 OFFCURVE",
"58.1666 777.166 OFFCURVE",
"50.5 769.5 CURVE SMOOTH",
"42.8333 761.839 OFFCURVE",
"39 752.672 OFFCURVE",
"39 742 CURVE SMOOTH"
);
}
);
width = 586;
}
);
unicode = 0068;
},
{
glyphname = i;
layers = (
{
layerId = "1285D0D6-ECBB-4398-A306-ABCA7FA13BF2";
name = Regular;
paths = (
{
closed = 1;
nodes = (
"166 677.333 OFFCURVE",
"161.167 688.833 OFFCURVE",
"151.5 698.5 CURVE SMOOTH",
"141.833 708.166 OFFCURVE",
"130.333 713 OFFCURVE",
"117 713 CURVE SMOOTH",
"103.667 713 OFFCURVE",
"92.1666 708.166 OFFCURVE",
"82.5 698.5 CURVE SMOOTH",
"72.8333 688.833 OFFCURVE",
"68 677.333 OFFCURVE",
"68 664 CURVE SMOOTH",
"68 650.666 OFFCURVE",
"72.8333 639.166 OFFCURVE",
"82.5 629.5 CURVE SMOOTH",
"92.1666 619.833 OFFCURVE",
"103.667 615 OFFCURVE",
"117 615 CURVE SMOOTH",
"130.333 615 OFFCURVE",
"141.833 619.833 OFFCURVE",
"151.5 629.5 CURVE SMOOTH",
"161.167 639.166 OFFCURVE",
"166 650.666 OFFCURVE",
"166 664 CURVE SMOOTH"
);
},
{
closed = 1;
nodes = (
"78 39 LINE SMOOTH",
"78 28.3333 OFFCURVE",
"81.8333 19.1667 OFFCURVE",
"89.5 11.5 CURVE SMOOTH",
"97.1665 3.83333 OFFCURVE",
"106.333 0 OFFCURVE",
"117 0 CURVE SMOOTH",
"127.667 0 OFFCURVE",
"136.833 3.83333 OFFCURVE",
"144.5 11.5 CURVE SMOOTH",
"152.167 19.1667 OFFCURVE",
"156 28.3333 OFFCURVE",
"156 39 CURVE SMOOTH",
"156 508 LINE SMOOTH",
"156 518.666 OFFCURVE",
"152.167 527.833 OFFCURVE",
"144.5 535.5 CURVE SMOOTH",
"136.833 543.166 OFFCURVE",
"127.667 547 OFFCURVE",
"117 547 CURVE SMOOTH",
"106.333 547 OFFCURVE",
"97.1666 543.166 OFFCURVE",
"89.5 535.5 CURVE SMOOTH",
"81.8333 527.837 OFFCURVE",
"78 518.67 OFFCURVE",
"78 508 CURVE SMOOTH"
);
}
);
width = 234;
}
);
unicode = 0069;
},
{
glyphname = j;
layers = (
{
layerId = "1285D0D6-ECBB-4398-A306-ABCA7FA13BF2";
name = Regular;
paths = (
{
closed = 1;
nodes = (
"283 677.333 OFFCURVE",
"278.167 688.833 OFFCURVE",
"268.5 698.5 CURVE SMOOTH",
"258.833 708.166 OFFCURVE",
"247.333 713 OFFCURVE",
"234 713 CURVE SMOOTH",
"220.667 713 OFFCURVE",
"209.333 708.166 OFFCURVE",
"200 698.5 CURVE SMOOTH",
"190.667 688.833 OFFCURVE",
"186 677.333 OFFCURVE",
"186 664 CURVE SMOOTH",
"186 650.666 OFFCURVE",
"190.667 639.166 OFFCURVE",
"200 629.5 CURVE SMOOTH",
"209.333 619.833 OFFCURVE",
"220.666 615 OFFCURVE",
"234 615 CURVE SMOOTH",
"247.333 615 OFFCURVE",
"258.833 619.833 OFFCURVE",
"268.5 629.5 CURVE SMOOTH",
"278.167 639.166 OFFCURVE",
"283 650.666 OFFCURVE",
"283 664 CURVE SMOOTH"
);
},
{
closed = 1;
nodes = (
"195 0 LINE SMOOTH",
"195 -43 OFFCURVE",
"179.833 -80 OFFCURVE",
"149.5 -111 CURVE SMOOTH",
"119.167 -141 OFFCURVE",
"82.3333 -156 OFFCURVE",
"39 -156 CURVE SMOOTH",
"28.3333 -156 OFFCURVE",
"19.1667 -160 OFFCURVE",
"11.5 -168 CURVE SMOOTH",
"3.83333 -175 OFFCURVE",
"0 -184 OFFCURVE",
"0 -195 CURVE SMOOTH",
"0 -206 OFFCURVE",
"3.83333 -215 OFFCURVE",
"11.5 -223 CURVE SMOOTH",
"19.1667 -230 OFFCURVE",
"28.3333 -234 OFFCURVE",
"39 -234 CURVE SMOOTH",
"103.667 -234 OFFCURVE",
"158.833 -211 OFFCURVE",
"204.5 -166 CURVE SMOOTH",
"250.167 -120 OFFCURVE",
"273 -65 OFFCURVE",
"273 0 CURVE SMOOTH",
"273 508 LINE SMOOTH",
"273 518.666 OFFCURVE",
"269.167 527.833 OFFCURVE",
"261.5 535.5 CURVE SMOOTH",
"253.834 543.166 OFFCURVE",
"244.667 547 OFFCURVE",
"234 547 CURVE SMOOTH",
"223.334 547 OFFCURVE",
"214.167 543.166 OFFCURVE",
"206.5 535.5 CURVE SMOOTH",
"198.833 527.837 OFFCURVE",
"195 518.67 OFFCURVE",
"195 508 CURVE SMOOTH"
);
}
);
width = 320;
}
);
unicode = 006A;
},
{
glyphname = k;
layers = (
{
layerId = "1285D0D6-ECBB-4398-A306-ABCA7FA13BF2";
name = Regular;
paths = (
{
closed = 1;
nodes = (
"117 326 LINE",
"117 742 LINE SMOOTH",
"117 752.666 OFFCURVE",
"113.167 761.833 OFFCURVE",
"105.5 769.5 CURVE SMOOTH",
"97.8333 777.166 OFFCURVE",
"88.6666 781 OFFCURVE",
"78 781 CURVE SMOOTH",
"67.3333 781 OFFCURVE",
"58.1666 777.166 OFFCURVE",
"50.5 769.5 CURVE SMOOTH",
"42.8333 761.839 OFFCURVE",
"39 752.672 OFFCURVE",
"39 742 CURVE SMOOTH",
"39 39 LINE SMOOTH",
"39 28.3333 OFFCURVE",
"42.8333 19.1667 OFFCURVE",
"50.5 11.5 CURVE SMOOTH",
"58.1666 3.83333 OFFCURVE",
"67.3333 0 OFFCURVE",
"78 0 CURVE SMOOTH",
"88.6665 0 OFFCURVE",
"97.8332 3.83333 OFFCURVE",
"105.5 11.5 CURVE SMOOTH",
"113.167 19.1667 OFFCURVE",
"117 28.3333 OFFCURVE",
"117 39 CURVE SMOOTH",
"117 233 LINE",
"198 285 LINE",
"440 12 LINE",
"448.665 4 OFFCURVE",
"458.331 0 OFFCURVE",
"469 0 CURVE SMOOTH",
"479.665 0 OFFCURVE",
"488.831 3.83333 OFFCURVE",
"496.5 11.5 CURVE SMOOTH",
"504.166 19.1667 OFFCURVE",
"508 28.3333 OFFCURVE",
"508 39 CURVE SMOOTH",
"508 49.6666 OFFCURVE",
"504.333 58.6666 OFFCURVE",
"497 66 CURVE",
"265 328 LINE",
"491 476 LINE",
"497 480 LINE",
"504.333 488 OFFCURVE",
"508 497.333 OFFCURVE",
"508 508 CURVE SMOOTH",
"508 518.666 OFFCURVE",
"504.166 527.833 OFFCURVE",
"496.5 535.5 CURVE SMOOTH",
"488.833 543.166 OFFCURVE",
"479.666 547 OFFCURVE",
"469 547 CURVE SMOOTH",
"461 547 OFFCURVE",
"454 545 OFFCURVE",
"448 541 CURVE SMOOTH"
);
}
);
width = 547;
}
);
unicode = 006B;
},
{
glyphname = l;
layers = (
{
layerId = "1285D0D6-ECBB-4398-A306-ABCA7FA13BF2";
name = Regular;
paths = (
{
closed = 1;
nodes = (
"39 39 LINE SMOOTH",
"39 28.3333 OFFCURVE",
"42.8333 19.1667 OFFCURVE",
"50.5 11.5 CURVE SMOOTH",
"58.1666 3.83333 OFFCURVE",
"67.3333 0 OFFCURVE",
"78 0 CURVE SMOOTH",
"156 0 LINE SMOOTH",
"166.667 0 OFFCURVE",
"175.833 3.83333 OFFCURVE",
"183.5 11.5 CURVE SMOOTH",
"191.167 19.1667 OFFCURVE",
"195 28.3333 OFFCURVE",
"195 39 CURVE SMOOTH",
"195 49.6666 OFFCURVE",
"191.167 58.8333 OFFCURVE",
"183.5 66.5 CURVE SMOOTH",
"175.834 74.1666 OFFCURVE",
"166.667 78 OFFCURVE",
"156 78 CURVE SMOOTH",
"117 78 LINE",
"117 742 LINE SMOOTH",
"117 752.666 OFFCURVE",
"113.167 761.833 OFFCURVE",
"105.5 769.5 CURVE SMOOTH",
"97.8333 777.166 OFFCURVE",
"88.6666 781 OFFCURVE",
"78 781 CURVE SMOOTH",
"67.3333 781 OFFCURVE",
"58.1666 777.166 OFFCURVE",
"50.5 769.5 CURVE SMOOTH",
"42.8333 761.839 OFFCURVE",
"39 752.672 OFFCURVE",
"39 742 CURVE SMOOTH"
);
}
);
width = 234;
}
);
unicode = 006C;
},
{
glyphname = m;
layers = (
{
layerId = "1285D0D6-ECBB-4398-A306-ABCA7FA13BF2";
name = Regular;
paths = (
{
closed = 1;
nodes = (
"117 332 LINE SMOOTH",
"117 370 OFFCURVE",
"130.333 402.333 OFFCURVE",
"157 429 CURVE SMOOTH",
"183.667 455.666 OFFCURVE",
"216 469 OFFCURVE",
"254 469 CURVE SMOOTH",
"292 469 OFFCURVE",
"324.333 455.666 OFFCURVE",
"351 429 CURVE SMOOTH",
"377.666 402.333 OFFCURVE",
"391 370 OFFCURVE",
"391 332 CURVE SMOOTH",
"391 39 LINE SMOOTH",
"391 28.3333 OFFCURVE",
"394.833 19.1667 OFFCURVE",
"402.5 11.5 CURVE SMOOTH",
"410.165 3.83333 OFFCURVE",
"419.332 0 OFFCURVE",
"430 0 CURVE SMOOTH",
"440.665 0 OFFCURVE",
"449.831 3.83333 OFFCURVE",
"457.5 11.5 CURVE SMOOTH",
"465.166 19.1667 OFFCURVE",
"469 28.3333 OFFCURVE",
"469 39 CURVE SMOOTH",
"469 332 LINE SMOOTH",
"469 370 OFFCURVE",
"482.333 402.333 OFFCURVE",
"509 429 CURVE SMOOTH",
"535.666 455.666 OFFCURVE",
"567.666 469 OFFCURVE",
"605 469 CURVE SMOOTH",
"643 469 OFFCURVE",
"675.333 455.666 OFFCURVE",
"702 429 CURVE SMOOTH",
"728.666 402.333 OFFCURVE",
"742 370 OFFCURVE",
"742 332 CURVE SMOOTH",
"742 39 LINE SMOOTH",
"742 28.3333 OFFCURVE",
"745.833 19.1667 OFFCURVE",
"753.5 11.5 CURVE SMOOTH",
"761.166 3.83333 OFFCURVE",
"770.333 0 OFFCURVE",
"781 0 CURVE SMOOTH",
"791.666 0 OFFCURVE",
"800.833 3.83333 OFFCURVE",
"808.5 11.5 CURVE SMOOTH",
"816.166 19.1667 OFFCURVE",
"820 28.3333 OFFCURVE",
"820 39 CURVE SMOOTH",
"820 332 LINE SMOOTH",
"820 391.333 OFFCURVE",
"799 442 OFFCURVE",
"757 484 CURVE SMOOTH",
"715 526 OFFCURVE",
"664.333 547 OFFCURVE",
"605 547 CURVE SMOOTH",
"546.333 547 OFFCURVE",
"496 526 OFFCURVE",
"454 484 CURVE",
"444.666 475.333 OFFCURVE",
"436.666 466 OFFCURVE",
"430 456 CURVE",
"422.666 466 OFFCURVE",
"414.666 475.333 OFFCURVE",
"406 484 CURVE SMOOTH",
"364 526 OFFCURVE",
"313.333 547 OFFCURVE",
"254 547 CURVE SMOOTH",
"201.333 547 OFFCURVE",
"155.667 530.666 OFFCURVE",
"117 498 CURVE",
"117 508 LINE SMOOTH",
"117 518.666 OFFCURVE",
"113.167 527.833 OFFCURVE",
"105.5 535.5 CURVE SMOOTH",
"97.8333 543.166 OFFCURVE",
"88.6666 547 OFFCURVE",
"78 547 CURVE SMOOTH",
"67.3333 547 OFFCURVE",
"58.1666 543.166 OFFCURVE",
"50.5 535.5 CURVE SMOOTH",
"42.8333 527.837 OFFCURVE",
"39 518.67 OFFCURVE",
"39 508 CURVE SMOOTH",
"39 39 LINE SMOOTH",
"39 28.3333 OFFCURVE",
"42.8333 19.1667 OFFCURVE",
"50.5 11.5 CURVE SMOOTH",
"58.1666 3.83333 OFFCURVE",
"67.3333 0 OFFCURVE",
"78 0 CURVE SMOOTH",
"88.6665 0 OFFCURVE",
"97.8332 3.83333 OFFCURVE",
"105.5 11.5 CURVE SMOOTH",
"113.167 19.1667 OFFCURVE",
"117 28.3333 OFFCURVE",
"117 39 CURVE SMOOTH"
);
}
);
width = 859;
}
);
unicode = 006D;
},
{
glyphname = n;
layers = (
{
layerId = "1285D0D6-ECBB-4398-A306-ABCA7FA13BF2";
name = Regular;
paths = (
{
closed = 1;
nodes = (
"39 39 LINE SMOOTH",
"39 28.3333 OFFCURVE",
"42.8333 19.1667 OFFCURVE",
"50.5 11.5 CURVE SMOOTH",
"58.1666 3.83333 OFFCURVE",
"67.3333 0 OFFCURVE",
"78 0 CURVE SMOOTH",
"88.6665 0 OFFCURVE",
"97.8332 3.83333 OFFCURVE",
"105.5 11.5 CURVE SMOOTH",
"113.167 19.1667 OFFCURVE",
"117 28.3333 OFFCURVE",
"117 39 CURVE SMOOTH",
"117 293 LINE SMOOTH",
"117 341.666 OFFCURVE",
"134.166 383.166 OFFCURVE",
"168.5 417.5 CURVE SMOOTH",
"202.833 451.833 OFFCURVE",
"244.333 469 OFFCURVE",
"293 469 CURVE SMOOTH",
"341.666 469 OFFCURVE",
"383.166 451.833 OFFCURVE",
"417.5 417.5 CURVE SMOOTH",
"451.833 383.166 OFFCURVE",
"469 341.666 OFFCURVE",
"469 293 CURVE SMOOTH",
"469 39 LINE SMOOTH",
"469 28.3333 OFFCURVE",
"472.833 19.1667 OFFCURVE",
"480.5 11.5 CURVE SMOOTH",
"488.165 3.83333 OFFCURVE",
"497.331 0 OFFCURVE",
"508 0 CURVE SMOOTH",
"518.666 0 OFFCURVE",
"527.833 3.83333 OFFCURVE",
"535.5 11.5 CURVE SMOOTH",
"543.166 19.1667 OFFCURVE",
"547 28.3333 OFFCURVE",
"547 39 CURVE SMOOTH",
"547 293 LINE SMOOTH",
"547 363 OFFCURVE",
"522.166 422.833 OFFCURVE",
"472.5 472.5 CURVE SMOOTH",
"422.833 522.166 OFFCURVE",
"363 547 OFFCURVE",
"293 547 CURVE SMOOTH",
"224.333 547 OFFCURVE",
"165.667 523.333 OFFCURVE",
"117 476 CURVE",
"117 508 LINE SMOOTH",
"117 518.666 OFFCURVE",
"113.167 527.833 OFFCURVE",
"105.5 535.5 CURVE SMOOTH",
"97.8333 543.166 OFFCURVE",
"88.6666 547 OFFCURVE",
"78 547 CURVE SMOOTH",
"67.3333 547 OFFCURVE",
"58.1666 543.166 OFFCURVE",
"50.5 535.5 CURVE SMOOTH",
"42.8333 527.837 OFFCURVE",
"39 518.67 OFFCURVE",
"39 508 CURVE SMOOTH"
);
}
);
width = 586;
}
);
unicode = 006E;
},
{
glyphname = o;
layers = (
{
layerId = "1285D0D6-ECBB-4398-A306-ABCA7FA13BF2";
name = Regular;
paths = (
{
closed = 1;
nodes = (
"586 349 OFFCURVE",
"559.333 413.666 OFFCURVE",
"506 467 CURVE SMOOTH",
"452.666 520.333 OFFCURVE",
"388 547 OFFCURVE",
"312 547 CURVE SMOOTH",
"236.667 547 OFFCURVE",
"172.333 520.333 OFFCURVE",
"119 467 CURVE SMOOTH",
"65.6666 413.666 OFFCURVE",
"39 349 OFFCURVE",
"39 273 CURVE SMOOTH",
"39 197.667 OFFCURVE",
"65.6666 133.333 OFFCURVE",
"119 80 CURVE SMOOTH",
"172.333 26.6667 OFFCURVE",
"236.667 0 OFFCURVE",
"312 0 CURVE SMOOTH",
"388 0 OFFCURVE",
"452.666 26.6667 OFFCURVE",
"506 80 CURVE SMOOTH",
"559.333 133.333 OFFCURVE",
"586 197.667 OFFCURVE",
"586 273 CURVE SMOOTH"
);
},
{
closed = 1;
nodes = (
"366.666 469 OFFCURVE",
"413 449.833 OFFCURVE",
"451 411.5 CURVE SMOOTH",
"489 373.166 OFFCURVE",
"508 327 OFFCURVE",
"508 273 CURVE SMOOTH",
"508 219 OFFCURVE",
"489 173 OFFCURVE",
"451 135 CURVE SMOOTH",
"413 96.9999 OFFCURVE",
"366.666 78 OFFCURVE",
"312 78 CURVE SMOOTH",
"258 78 OFFCURVE",
"212 96.9999 OFFCURVE",
"174 135 CURVE SMOOTH",
"136 173 OFFCURVE",
"117 219 OFFCURVE",
"117 273 CURVE SMOOTH",
"117 327 OFFCURVE",
"136 373.166 OFFCURVE",
"174 411.5 CURVE SMOOTH",
"212 449.833 OFFCURVE",
"258 469 OFFCURVE",
"312 469 CURVE SMOOTH"
);
}
);
width = 625;
}
);
leftKerningGroup = a;
unicode = 006F;
},
{
glyphname = p;
layers = (
{
layerId = "1285D0D6-ECBB-4398-A306-ABCA7FA13BF2";
name = Regular;
paths = (
{
closed = 1;
nodes = (
"117 327 OFFCURVE",
"136 373.166 OFFCURVE",
"174 411.5 CURVE SMOOTH",
"212 449.833 OFFCURVE",
"258 469 OFFCURVE",
"312 469 CURVE SMOOTH",
"366.666 469 OFFCURVE",
"413 449.833 OFFCURVE",
"451 411.5 CURVE SMOOTH",
"489 373.166 OFFCURVE",
"508 327 OFFCURVE",
"508 273 CURVE SMOOTH",
"508 219 OFFCURVE",
"489 173 OFFCURVE",
"451 135 CURVE SMOOTH",
"413 96.9999 OFFCURVE",
"366.666 78 OFFCURVE",
"312 78 CURVE SMOOTH",
"258 78 OFFCURVE",
"212 96.9999 OFFCURVE",
"174 135 CURVE SMOOTH",
"136 173 OFFCURVE",
"117 219 OFFCURVE",
"117 273 CURVE SMOOTH"
);
},
{
closed = 1;
nodes = (
"117 82 LINE",
"119 80 LINE SMOOTH",
"172.333 26.6667 OFFCURVE",
"236.667 0 OFFCURVE",
"312 0 CURVE SMOOTH",
"388 0 OFFCURVE",
"452.666 26.6667 OFFCURVE",
"506 80 CURVE SMOOTH",
"559.333 133.333 OFFCURVE",
"586 197.667 OFFCURVE",
"586 273 CURVE SMOOTH",
"586 349 OFFCURVE",
"559.333 413.666 OFFCURVE",
"506 467 CURVE SMOOTH",
"452.666 520.333 OFFCURVE",
"388 547 OFFCURVE",
"312 547 CURVE SMOOTH",
"236.667 547 OFFCURVE",
"172.333 520.333 OFFCURVE",
"119 467 CURVE SMOOTH",
"65.6666 413.666 OFFCURVE",
"39 349 OFFCURVE",
"39 273 CURVE SMOOTH",
"39 -195 LINE SMOOTH",
"39 -206 OFFCURVE",
"42.8333 -215 OFFCURVE",
"50.5 -223 CURVE SMOOTH",
"58.1666 -230 OFFCURVE",
"67.3333 -234 OFFCURVE",
"78 -234 CURVE SMOOTH",
"88.6665 -234 OFFCURVE",
"97.8332 -230 OFFCURVE",
"105.5 -223 CURVE SMOOTH",
"113.167 -215 OFFCURVE",
"117 -206 OFFCURVE",
"117 -195 CURVE SMOOTH"
);
}
);
width = 625;
}
);
unicode = 0070;
},
{
glyphname = q;
layers = (
{
layerId = "1285D0D6-ECBB-4398-A306-ABCA7FA13BF2";
name = Regular;
paths = (
{
closed = 1;
nodes = (
"366.666 469 OFFCURVE",
"413 449.833 OFFCURVE",
"451 411.5 CURVE SMOOTH",
"489 373.166 OFFCURVE",
"508 327 OFFCURVE",
"508 273 CURVE SMOOTH",
"508 219 OFFCURVE",
"489 173 OFFCURVE",
"451 135 CURVE SMOOTH",
"413 96.9999 OFFCURVE",
"366.666 78 OFFCURVE",
"312 78 CURVE SMOOTH",
"258 78 OFFCURVE",
"212 96.9999 OFFCURVE",
"174 135 CURVE SMOOTH",
"136 173 OFFCURVE",
"117 219 OFFCURVE",
"117 273 CURVE SMOOTH",
"117 327 OFFCURVE",
"136 373.166 OFFCURVE",
"174 411.5 CURVE SMOOTH",
"212 449.833 OFFCURVE",
"258 469 OFFCURVE",
"312 469 CURVE SMOOTH"
);
},
{
closed = 1;
nodes = (
"508 82 LINE",
"508 -195 LINE SMOOTH",
"508 -206 OFFCURVE",
"511.833 -215 OFFCURVE",
"519.5 -223 CURVE SMOOTH",
"527.166 -230 OFFCURVE",
"536.333 -234 OFFCURVE",
"547 -234 CURVE SMOOTH",
"557.666 -234 OFFCURVE",
"566.833 -230 OFFCURVE",
"574.5 -223 CURVE SMOOTH",
"582.166 -215 OFFCURVE",
"586 -206 OFFCURVE",
"586 -195 CURVE SMOOTH",
"586 273 LINE SMOOTH",
"586 349 OFFCURVE",
"559.333 413.666 OFFCURVE",
"506 467 CURVE SMOOTH",
"452.666 520.333 OFFCURVE",
"388 547 OFFCURVE",
"312 547 CURVE SMOOTH",
"236.667 547 OFFCURVE",
"172.333 520.333 OFFCURVE",
"119 467 CURVE SMOOTH",
"65.6666 413.666 OFFCURVE",
"39 349 OFFCURVE",
"39 273 CURVE SMOOTH",
"39 197.667 OFFCURVE",
"65.6666 133.333 OFFCURVE",
"119 80 CURVE SMOOTH",
"172.333 26.6667 OFFCURVE",
"236.667 0 OFFCURVE",
"312 0 CURVE SMOOTH",
"388 0 OFFCURVE",
"452.666 26.6667 OFFCURVE",
"506 80 CURVE SMOOTH"
);
}
);
width = 625;
}
);
leftKerningGroup = a;
unicode = 0071;
},
{
glyphname = r;
layers = (
{
layerId = "1285D0D6-ECBB-4398-A306-ABCA7FA13BF2";
name = Regular;
paths = (
{
closed = 1;
nodes = (
"39 39 LINE SMOOTH",
"39 28.3333 OFFCURVE",
"42.8333 19.1667 OFFCURVE",
"50.5 11.5 CURVE SMOOTH",
"58.1666 3.83333 OFFCURVE",
"67.3333 0 OFFCURVE",
"78 0 CURVE SMOOTH",
"88.6665 0 OFFCURVE",
"97.8332 3.83333 OFFCURVE",
"105.5 11.5 CURVE SMOOTH",
"113.167 19.1667 OFFCURVE",
"117 28.3333 OFFCURVE",
"117 39 CURVE SMOOTH",
"117 273 LINE SMOOTH",
"117 327 OFFCURVE",
"136 373.166 OFFCURVE",
"174 411.5 CURVE SMOOTH",
"212 449.833 OFFCURVE",
"258 469 OFFCURVE",
"312 469 CURVE SMOOTH",
"340 469 OFFCURVE",
"365.666 464 OFFCURVE",
"389 454 CURVE",
"393.665 451.333 OFFCURVE",
"399.332 450 OFFCURVE",
"406 450 CURVE SMOOTH",
"416.665 450 OFFCURVE",
"425.832 453.833 OFFCURVE",
"433.5 461.5 CURVE SMOOTH",
"441.166 469.165 OFFCURVE",
"445 478.331 OFFCURVE",
"445 489 CURVE SMOOTH",
"445 499.666 OFFCURVE",
"441.333 509 OFFCURVE",
"434 517 CURVE",
"428.666 521.666 OFFCURVE",
"423 525 OFFCURVE",
"417 527 CURVE",
"385.666 540.333 OFFCURVE",
"350.666 547 OFFCURVE",
"312 547 CURVE SMOOTH",
"236.667 547 OFFCURVE",
"171.667 519.666 OFFCURVE",
"117 465 CURVE",
"117 508 LINE SMOOTH",
"117 518.666 OFFCURVE",
"113.167 527.833 OFFCURVE",
"105.5 535.5 CURVE SMOOTH",
"97.8333 543.166 OFFCURVE",
"88.6666 547 OFFCURVE",
"78 547 CURVE SMOOTH",
"67.3333 547 OFFCURVE",
"58.1666 543.166 OFFCURVE",
"50.5 535.5 CURVE SMOOTH",
"42.8333 527.837 OFFCURVE",
"39 518.67 OFFCURVE",
"39 508 CURVE SMOOTH"
);
}
);
width = 469;
}
);
unicode = 0072;
},
{
glyphname = s;
layers = (
{
layerId = "1285D0D6-ECBB-4398-A306-ABCA7FA13BF2";
name = Regular;
paths = (
{
closed = 1;
nodes = (
"376 194 LINE SMOOTH",
"390.666 188.667 OFFCURVE",
"398.666 178.333 OFFCURVE",
"400 163 CURVE",
"400 149.667 OFFCURVE",
"396 138.333 OFFCURVE",
"388 129 CURVE",
"356 94.9999 OFFCURVE",
"313 78 OFFCURVE",
"259 78 CURVE SMOOTH",
"205 78 OFFCURVE",
"159 96.9999 OFFCURVE",
"121 135 CURVE SMOOTH",
"117.667 138.333 OFFCURVE",
"112.833 143.333 OFFCURVE",
"106.5 150 CURVE SMOOTH",
"100.167 156.667 OFFCURVE",
"91.6666 160 OFFCURVE",
"81 160 CURVE SMOOTH",
"69.6666 160 OFFCURVE",
"60.3333 156.167 OFFCURVE",
"53 148.5 CURVE SMOOTH",
"45.6666 140.833 OFFCURVE",
"42 131.667 OFFCURVE",
"42 121 CURVE SMOOTH",
"42 112.333 OFFCURVE",
"44.3333 104.667 OFFCURVE",
"49 97.9999 CURVE",
"107 32.6666 OFFCURVE",
"177 0 OFFCURVE",
"259 0 CURVE SMOOTH",
"334.333 0 OFFCURVE",
"395.333 24 OFFCURVE",
"442 72 CURVE SMOOTH",
"466.666 95.9999 OFFCURVE",
"479 124 OFFCURVE",
"479 156 CURVE SMOOTH",
"479 188.667 OFFCURVE",
"467.333 216.333 OFFCURVE",
"444 239 CURVE SMOOTH",
"432 250.999 OFFCURVE",
"411.333 262.333 OFFCURVE",
"382 273 CURVE SMOOTH",
"142 353 LINE SMOOTH",
"126.667 358.333 OFFCURVE",
"118.667 368.666 OFFCURVE",
"118 384 CURVE",
"118 397.333 OFFCURVE",
"121.667 408.666 OFFCURVE",
"129 418 CURVE",
"161.667 452 OFFCURVE",
"205 469 OFFCURVE",
"259 469 CURVE SMOOTH",
"313 469 OFFCURVE",
"359 450 OFFCURVE",
"397 412 CURVE",
"399.663 408.666 OFFCURVE",
"404.33 403.666 OFFCURVE",
"411 397 CURVE SMOOTH",
"417.665 390.333 OFFCURVE",
"426.332 387 OFFCURVE",
"437 387 CURVE SMOOTH",
"447.665 387 OFFCURVE",
"456.831 390.833 OFFCURVE",
"464.5 398.5 CURVE SMOOTH",
"472.166 406.165 OFFCURVE",
"476 415.332 OFFCURVE",
"476 426 CURVE",
"476.674 434.665 OFFCURVE",
"474.34 442.331 OFFCURVE",
"469 449 CURVE",
"410.333 514.333 OFFCURVE",
"340.333 547 OFFCURVE",
"259 547 CURVE SMOOTH",
"183.667 547 OFFCURVE",
"122.333 523 OFFCURVE",
"75 475 CURVE SMOOTH",
"51 451 OFFCURVE",
"39 423 OFFCURVE",
"39 391 CURVE SMOOTH",
"39 358.333 OFFCURVE",
"50.6666 330.666 OFFCURVE",
"74 308 CURVE",
"85.3333 296 OFFCURVE",
"106 284.333 OFFCURVE",
"136 273 CURVE"
);
}
);
width = 518;
}
);
unicode = 0073;
},
{
glyphname = t;
layers = (
{
layerId = "1285D0D6-ECBB-4398-A306-ABCA7FA13BF2";
name = Regular;
paths = (
{
closed = 1;
nodes = (
"234 78 OFFCURVE",
"195 117 OFFCURVE",
"195 195 CURVE SMOOTH",
"195 469 LINE",
"274 469 LINE SMOOTH",
"284.665 469 OFFCURVE",
"293.832 472.833 OFFCURVE",
"301.5 480.5 CURVE SMOOTH",
"309.167 488.165 OFFCURVE",
"313 497.331 OFFCURVE",
"313 508 CURVE SMOOTH",
"313 518.666 OFFCURVE",
"309.167 527.833 OFFCURVE",
"301.5 535.5 CURVE SMOOTH",
"293.833 543.166 OFFCURVE",
"284.667 547 OFFCURVE",
"274 547 CURVE SMOOTH",
"195 547 LINE",
"195 742 LINE SMOOTH",
"195 752.666 OFFCURVE",
"191.167 761.833 OFFCURVE",
"183.5 769.5 CURVE SMOOTH",
"175.834 777.166 OFFCURVE",
"166.667 781 OFFCURVE",
"156 781 CURVE SMOOTH",
"145.334 781 OFFCURVE",
"136.167 777.166 OFFCURVE",
"128.5 769.5 CURVE SMOOTH",
"120.833 761.839 OFFCURVE",
"117 752.672 OFFCURVE",
"117 742 CURVE SMOOTH",
"117 547 LINE",
"78 547 LINE SMOOTH",
"67.3333 547 OFFCURVE",
"58.1666 543.166 OFFCURVE",
"50.5 535.5 CURVE SMOOTH",
"42.8333 527.837 OFFCURVE",
"39 518.67 OFFCURVE",
"39 508 CURVE SMOOTH",
"39 497.333 OFFCURVE",
"42.8333 488.166 OFFCURVE",
"50.5 480.5 CURVE SMOOTH",
"58.1666 472.833 OFFCURVE",
"67.3333 469 OFFCURVE",
"78 469 CURVE SMOOTH",
"117 469 LINE",
"117 195 LINE SMOOTH",
"117 65 OFFCURVE",
"182 0 OFFCURVE",
"312 0 CURVE SMOOTH",
"323.333 0 OFFCURVE",
"332.833 3.83333 OFFCURVE",
"340.5 11.5 CURVE SMOOTH",
"348.166 19.1667 OFFCURVE",
"352 28.3333 OFFCURVE",
"352 39 CURVE SMOOTH",
"352 49.6666 OFFCURVE",
"348.166 58.8333 OFFCURVE",
"340.5 66.5 CURVE SMOOTH",
"332.833 74.1666 OFFCURVE",
"323.333 78 OFFCURVE",
"312 78 CURVE SMOOTH"
);
}
);
width = 391;
}
);
unicode = 0074;
},
{
glyphname = u;
layers = (
{
layerId = "1285D0D6-ECBB-4398-A306-ABCA7FA13BF2";
name = Regular;
paths = (
{
closed = 1;
nodes = (
"547 508 LINE SMOOTH",
"547 518.666 OFFCURVE",
"543.166 527.833 OFFCURVE",
"535.5 535.5 CURVE SMOOTH",
"527.837 543.166 OFFCURVE",
"518.67 547 OFFCURVE",
"508 547 CURVE SMOOTH",
"497.333 547 OFFCURVE",
"488.166 543.166 OFFCURVE",
"480.5 535.5 CURVE SMOOTH",
"472.833 527.837 OFFCURVE",
"469 518.67 OFFCURVE",
"469 508 CURVE SMOOTH",
"469 254 LINE SMOOTH",
"469 205.333 OFFCURVE",
"451.833 163.833 OFFCURVE",
"417.5 129.5 CURVE SMOOTH",
"383.166 95.1666 OFFCURVE",
"341.666 78 OFFCURVE",
"293 78 CURVE SMOOTH",
"244.333 77.9999 OFFCURVE",
"202.833 95.1666 OFFCURVE",
"168.5 129.5 CURVE SMOOTH",
"134.167 163.833 OFFCURVE",
"117 205.333 OFFCURVE",
"117 254 CURVE SMOOTH",
"117 508 LINE SMOOTH",
"117 518.666 OFFCURVE",
"113.167 527.833 OFFCURVE",
"105.5 535.5 CURVE SMOOTH",
"97.8333 543.166 OFFCURVE",
"88.6666 547 OFFCURVE",
"78 547 CURVE SMOOTH",
"67.3333 547 OFFCURVE",
"58.1666 543.166 OFFCURVE",
"50.5 535.5 CURVE SMOOTH",
"42.8333 527.837 OFFCURVE",
"39 518.67 OFFCURVE",
"39 508 CURVE SMOOTH",
"39 254 LINE SMOOTH",
"39 184 OFFCURVE",
"63.8333 124.167 OFFCURVE",
"113.5 74.5 CURVE SMOOTH",
"163.167 24.8333 OFFCURVE",
"223 0 OFFCURVE",
"293 0 CURVE SMOOTH",
"361.666 0 OFFCURVE",
"420.333 23.6667 OFFCURVE",
"469 71 CURVE",
"469 39 LINE SMOOTH",
"469 28.3333 OFFCURVE",
"472.833 19.1667 OFFCURVE",
"480.5 11.5 CURVE SMOOTH",
"488.165 3.83333 OFFCURVE",
"497.331 0 OFFCURVE",
"508 0 CURVE SMOOTH",
"518.666 0 OFFCURVE",
"527.833 3.83333 OFFCURVE",
"535.5 11.5 CURVE SMOOTH",
"543.166 19.1667 OFFCURVE",
"547 28.3333 OFFCURVE",
"547 39 CURVE SMOOTH"
);
}
);
width = 586;
}
);
unicode = 0075;
},
{
glyphname = v;
layers = (
{
layerId = "1285D0D6-ECBB-4398-A306-ABCA7FA13BF2";
name = Regular;
paths = (
{
closed = 1;
nodes = (
"323 13 OFFCURVE",
"325 16.3333 OFFCURVE",
"327 21 CURVE SMOOTH",
"544 493 LINE SMOOTH",
"546 497.666 OFFCURVE",
"547 502.666 OFFCURVE",
"547 508 CURVE SMOOTH",
"547 518.666 OFFCURVE",
"543.166 527.833 OFFCURVE",
"535.5 535.5 CURVE SMOOTH",
"527.837 543.166 OFFCURVE",
"518.67 547 OFFCURVE",
"508 547 CURVE SMOOTH",
"497.333 547 OFFCURVE",
"488 543.333 OFFCURVE",
"480 536 CURVE",
"477.333 533.341 OFFCURVE",
"475 529.674 OFFCURVE",
"473 525 CURVE SMOOTH",
"293 133 LINE",
"113 525 LINE SMOOTH",
"111 529.666 OFFCURVE",
"108.667 533.333 OFFCURVE",
"106 536 CURVE",
"97.9999 543.333 OFFCURVE",
"88.6666 547 OFFCURVE",
"78 547 CURVE SMOOTH",
"67.3333 547 OFFCURVE",
"58.1666 543.166 OFFCURVE",
"50.5 535.5 CURVE SMOOTH",
"42.8333 527.837 OFFCURVE",
"39 518.67 OFFCURVE",
"39 508 CURVE SMOOTH",
"39 502.666 OFFCURVE",
"40 497.666 OFFCURVE",
"42 493 CURVE SMOOTH",
"259 21 LINE SMOOTH",
"261 16.3333 OFFCURVE",
"263 13 OFFCURVE",
"265 11 CURVE SMOOTH",
"272.333 3.66667 OFFCURVE",
"281.667 0 OFFCURVE",
"293 0 CURVE SMOOTH",
"304.333 0 OFFCURVE",
"313.666 3.66667 OFFCURVE",
"321 11 CURVE SMOOTH"
);
}
);
width = 586;
}
);
unicode = 0076;
},
{
glyphname = w;
layers = (
{
layerId = "1285D0D6-ECBB-4398-A306-ABCA7FA13BF2";
name = Regular;
paths = (
{
closed = 1;
nodes = (
"358.333 530.666 OFFCURVE",
"355 524.666 OFFCURVE",
"353 518 CURVE SMOOTH",
"234 163 LINE",
"114 524 LINE",
"112 528 OFFCURVE",
"109.333 532 OFFCURVE",
"106 536 CURVE",
"97.9999 543.333 OFFCURVE",
"88.6666 547 OFFCURVE",
"78 547 CURVE SMOOTH",
"67.3333 547 OFFCURVE",
"58.1666 543.166 OFFCURVE",
"50.5 535.5 CURVE SMOOTH",
"42.8333 527.837 OFFCURVE",
"39 518.67 OFFCURVE",
"39 508 CURVE SMOOTH",
"39 502.666 OFFCURVE",
"40 497.666 OFFCURVE",
"42 493 CURVE",
"198 25 LINE",
"200 20.3333 OFFCURVE",
"203 15.6667 OFFCURVE",
"207 11 CURVE",
"214.333 3.66667 OFFCURVE",
"223.333 0 OFFCURVE",
"234 0 CURVE SMOOTH",
"244.667 0 OFFCURVE",
"254 3.66667 OFFCURVE",
"262 11 CURVE",
"266 15.6666 OFFCURVE",
"269 20.3333 OFFCURVE",
"271 25 CURVE",
"391 384 LINE",
"510 25 LINE",
"512 20.3333 OFFCURVE",
"515.333 15.6667 OFFCURVE",
"520 11 CURVE SMOOTH",
"527.333 3.66667 OFFCURVE",
"536.333 0 OFFCURVE",
"547 0 CURVE SMOOTH",
"557.666 0 OFFCURVE",
"567 3.66667 OFFCURVE",
"575 11 CURVE",
"579 15.6666 OFFCURVE",
"581.666 20.3333 OFFCURVE",
"583 25 CURVE",
"739 493 LINE",
"741 497.666 OFFCURVE",
"742 502.666 OFFCURVE",
"742 508 CURVE SMOOTH",
"742 518.666 OFFCURVE",
"738.166 527.833 OFFCURVE",
"730.5 535.5 CURVE SMOOTH",
"722.838 543.166 OFFCURVE",
"713.672 547 OFFCURVE",
"703 547 CURVE SMOOTH",
"692.333 547 OFFCURVE",
"683.333 543.333 OFFCURVE",
"676 536 CURVE SMOOTH",
"672 532 OFFCURVE",
"669 528 OFFCURVE",
"667 524 CURVE",
"547 163 LINE",
"429 518 LINE SMOOTH",
"427 524.666 OFFCURVE",
"423.333 530.666 OFFCURVE",
"418 536 CURVE SMOOTH",
"410.666 543.333 OFFCURVE",
"401.666 547 OFFCURVE",
"391 547 CURVE SMOOTH",
"380.333 547 OFFCURVE",
"371 543.333 OFFCURVE",
"363 536 CURVE"
);
}
);
width = 781;
}
);
unicode = 0077;
},
{
glyphname = x;
layers = (
{
layerId = "1285D0D6-ECBB-4398-A306-ABCA7FA13BF2";
name = Regular;
paths = (
{
closed = 1;
nodes = (
"223 274 LINE",
"47 63 LINE SMOOTH",
"41.6666 56.3333 OFFCURVE",
"39 48.3333 OFFCURVE",
"39 39 CURVE SMOOTH",
"39 28.3333 OFFCURVE",
"42.8333 19.1667 OFFCURVE",
"50.5 11.5 CURVE SMOOTH",
"58.1666 3.83333 OFFCURVE",
"67.3333 0 OFFCURVE",
"78 0 CURVE SMOOTH",
"88.6666 0 OFFCURVE",
"97.6666 4 OFFCURVE",
"105 12 CURVE",
"273 213 LINE",
"441 12 LINE",
"449 4 OFFCURVE",
"458.333 0 OFFCURVE",
"469 0 CURVE SMOOTH",
"479.665 0 OFFCURVE",
"488.831 3.83333 OFFCURVE",
"496.5 11.5 CURVE SMOOTH",
"504.166 19.1667 OFFCURVE",
"508 28.3333 OFFCURVE",
"508 39 CURVE SMOOTH",
"508 48.3333 OFFCURVE",
"505.333 56.3333 OFFCURVE",
"500 63 CURVE SMOOTH",
"324 274 LINE",
"499 482 LINE SMOOTH",
"505 489.333 OFFCURVE",
"508 498 OFFCURVE",
"508 508 CURVE SMOOTH",
"508 518.666 OFFCURVE",
"504.166 527.833 OFFCURVE",
"496.5 535.5 CURVE SMOOTH",
"488.833 543.166 OFFCURVE",
"479.666 547 OFFCURVE",
"469 547 CURVE SMOOTH",
"458.333 547 OFFCURVE",
"448.666 543 OFFCURVE",
"440 535 CURVE",
"273 335 LINE",
"107 535 LINE",
"98.3333 543 OFFCURVE",
"88.6666 547 OFFCURVE",
"78 547 CURVE SMOOTH",
"67.3333 547 OFFCURVE",
"58.1666 543.166 OFFCURVE",
"50.5 535.5 CURVE SMOOTH",
"42.8333 527.837 OFFCURVE",
"39 518.67 OFFCURVE",
"39 508 CURVE SMOOTH",
"39 498 OFFCURVE",
"42 489.333 OFFCURVE",
"48 482 CURVE SMOOTH"
);
}
);
width = 547;
}
);
unicode = 0078;
},
{
glyphname = y;
layers = (
{
layerId = "1285D0D6-ECBB-4398-A306-ABCA7FA13BF2";
name = Regular;
paths = (
{
closed = 1;
nodes = (
"231 40 LINE",
"141 -177 LINE",
"137.667 -183 OFFCURVE",
"136 -189 OFFCURVE",
"136 -195 CURVE SMOOTH",
"136 -206 OFFCURVE",
"139.833 -215 OFFCURVE",
"147.5 -223 CURVE SMOOTH",
"155.167 -230 OFFCURVE",
"164.333 -234 OFFCURVE",
"175 -234 CURVE SMOOTH",
"185.667 -234 OFFCURVE",
"195 -230 OFFCURVE",
"203 -223 CURVE",
"207 -218 OFFCURVE",
"210 -213 OFFCURVE",
"212 -208 CURVE",
"503 490 LINE",
"506.333 495.333 OFFCURVE",
"508 501.333 OFFCURVE",
"508 508 CURVE SMOOTH",
"508 518.666 OFFCURVE",
"504.166 527.833 OFFCURVE",
"496.5 535.5 CURVE SMOOTH",
"488.833 543.166 OFFCURVE",
"479.666 547 OFFCURVE",
"469 547 CURVE SMOOTH",
"458.333 547 OFFCURVE",
"449 543.333 OFFCURVE",
"441 536 CURVE",
"437 531.333 OFFCURVE",
"434 526.333 OFFCURVE",
"432 521 CURVE",
"273 142 LINE",
"115 521 LINE",
"113 526.333 OFFCURVE",
"110 531.333 OFFCURVE",
"106 536 CURVE",
"97.9999 543.333 OFFCURVE",
"88.6666 547 OFFCURVE",
"78 547 CURVE SMOOTH",
"67.3333 547 OFFCURVE",
"58.1666 543.166 OFFCURVE",
"50.5 535.5 CURVE SMOOTH",
"42.8333 527.837 OFFCURVE",
"39 518.67 OFFCURVE",
"39 508 CURVE SMOOTH",
"39 501.333 OFFCURVE",
"40.3333 495.333 OFFCURVE",
"43 490 CURVE"
);
}
);
width = 547;
}
);
unicode = 0079;
},
{
glyphname = z;
layers = (
{
layerId = "1285D0D6-ECBB-4398-A306-ABCA7FA13BF2";
name = Regular;
paths = (
{
closed = 1;
nodes = (
"161 78 LINE",
"499 482 LINE SMOOTH",
"505 489.333 OFFCURVE",
"508 498 OFFCURVE",
"508 508 CURVE SMOOTH",
"508 518.666 OFFCURVE",
"504.166 527.833 OFFCURVE",
"496.5 535.5 CURVE SMOOTH",
"488.833 543.166 OFFCURVE",
"479.666 547 OFFCURVE",
"469 547 CURVE SMOOTH",
"78 547 LINE SMOOTH",
"67.3333 547 OFFCURVE",
"58.1666 543.166 OFFCURVE",
"50.5 535.5 CURVE SMOOTH",
"42.8333 527.837 OFFCURVE",
"39 518.67 OFFCURVE",
"39 508 CURVE SMOOTH",
"39 497.333 OFFCURVE",
"42.8333 488.166 OFFCURVE",
"50.5 480.5 CURVE SMOOTH",
"58.1666 472.833 OFFCURVE",
"67.3333 469 OFFCURVE",
"78 469 CURVE SMOOTH",
"385 469 LINE",
"47 63 LINE SMOOTH",
"41.6666 56.3333 OFFCURVE",
"39 48.3333 OFFCURVE",
"39 39 CURVE SMOOTH",
"39 28.3333 OFFCURVE",
"42.8333 19.1667 OFFCURVE",
"50.5 11.5 CURVE SMOOTH",
"58.1666 3.83333 OFFCURVE",
"67.3333 0 OFFCURVE",
"78 0 CURVE SMOOTH",
"469 0 LINE SMOOTH",
"479.665 0 OFFCURVE",
"488.831 3.83333 OFFCURVE",
"496.5 11.5 CURVE SMOOTH",
"504.166 19.1667 OFFCURVE",
"508 28.3333 OFFCURVE",
"508 39 CURVE SMOOTH",
"508 49.6666 OFFCURVE",
"504.166 58.8333 OFFCURVE",
"496.5 66.5 CURVE SMOOTH",
"488.833 74.1666 OFFCURVE",
"479.666 78 OFFCURVE",
"469 78 CURVE SMOOTH"
);
}
);
width = 547;
}
);
unicode = 007A;
},
{
glyphname = braceleft;
layers = (
{
layerId = "1285D0D6-ECBB-4398-A306-ABCA7FA13BF2";
name = Regular;
paths = (
{
closed = 1;
nodes = (
"208 781 OFFCURVE",
"156 729 OFFCURVE",
"156 625 CURVE SMOOTH",
"156 391 LINE SMOOTH",
"156 338.333 OFFCURVE",
"130 312 OFFCURVE",
"78 312 CURVE SMOOTH",
"67.3333 312 OFFCURVE",
"58.1666 308.333 OFFCURVE",
"50.5 301 CURVE SMOOTH",
"42.8333 293.668 OFFCURVE",
"39 284.334 OFFCURVE",
"39 273 CURVE SMOOTH",
"39 262.333 OFFCURVE",
"42.8333 253.167 OFFCURVE",
"50.5 245.5 CURVE SMOOTH",
"58.1666 237.833 OFFCURVE",
"67.3333 234 OFFCURVE",
"78 234 CURVE SMOOTH",
"130 234 OFFCURVE",
"156 208 OFFCURVE",
"156 156 CURVE SMOOTH",
"156 -78 LINE SMOOTH",
"156 -182 OFFCURVE",
"208 -234 OFFCURVE",
"312 -234 CURVE SMOOTH",
"323.333 -234 OFFCURVE",
"332.833 -230 OFFCURVE",
"340.5 -223 CURVE SMOOTH",
"348.166 -215 OFFCURVE",
"352 -206 OFFCURVE",
"352 -195 CURVE SMOOTH",
"352 -184 OFFCURVE",
"348.166 -175 OFFCURVE",
"340.5 -168 CURVE SMOOTH",
"332.833 -160 OFFCURVE",
"323.333 -156 OFFCURVE",
"312 -156 CURVE SMOOTH",
"260 -156 OFFCURVE",
"234 -130 OFFCURVE",
"234 -78 CURVE SMOOTH",
"234 156 LINE SMOOTH",
"234 208 OFFCURVE",
"221 247 OFFCURVE",
"195 273 CURVE",
"221 299 OFFCURVE",
"234 338.333 OFFCURVE",
"234 391 CURVE SMOOTH",
"234 625 LINE SMOOTH",
"234 677 OFFCURVE",
"260 703 OFFCURVE",
"312 703 CURVE SMOOTH",
"323.333 703 OFFCURVE",
"332.833 706.833 OFFCURVE",
"340.5 714.5 CURVE SMOOTH",
"348.166 722.166 OFFCURVE",
"352 731.333 OFFCURVE",
"352 742 CURVE SMOOTH",
"352 752.666 OFFCURVE",
"348.166 761.833 OFFCURVE",
"340.5 769.5 CURVE SMOOTH",
"332.833 777.166 OFFCURVE",
"323.333 781 OFFCURVE",
"312 781 CURVE SMOOTH"
);
}
);
width = 391;
}
);
unicode = 007B;
},
{
glyphname = bar;
layers = (
{
layerId = "1285D0D6-ECBB-4398-A306-ABCA7FA13BF2";
name = Regular;
paths = (
{
closed = 1;
nodes = (
"156 -195 LINE SMOOTH",
"156 -206 OFFCURVE",
"159.833 -215 OFFCURVE",
"167.5 -223 CURVE SMOOTH",
"175.167 -230 OFFCURVE",
"184.333 -234 OFFCURVE",
"195 -234 CURVE SMOOTH",
"205.667 -234 OFFCURVE",
"214.833 -230 OFFCURVE",
"222.5 -223 CURVE SMOOTH",
"230.167 -215 OFFCURVE",
"234 -206 OFFCURVE",
"234 -195 CURVE SMOOTH",
"234 742 LINE SMOOTH",
"234 752.666 OFFCURVE",
"230.167 761.833 OFFCURVE",
"222.5 769.5 CURVE SMOOTH",
"214.834 777.166 OFFCURVE",
"205.667 781 OFFCURVE",
"195 781 CURVE SMOOTH",
"184.334 781 OFFCURVE",
"175.167 777.166 OFFCURVE",
"167.5 769.5 CURVE SMOOTH",
"159.833 761.839 OFFCURVE",
"156 752.672 OFFCURVE",
"156 742 CURVE SMOOTH"
);
}
);
width = 391;
}
);
unicode = 007C;
},
{
glyphname = braceright;
layers = (
{
layerId = "1285D0D6-ECBB-4398-A306-ABCA7FA13BF2";
name = Regular;
paths = (
{
closed = 1;
nodes = (
"234 625 LINE SMOOTH",
"234 729 OFFCURVE",
"182 781 OFFCURVE",
"78 781 CURVE SMOOTH",
"67.3333 781 OFFCURVE",
"58.1666 777.166 OFFCURVE",
"50.5 769.5 CURVE SMOOTH",
"42.8333 761.839 OFFCURVE",
"39 752.672 OFFCURVE",
"39 742 CURVE SMOOTH",
"39 731.339 OFFCURVE",
"42.8333 722.172 OFFCURVE",
"50.5 714.5 CURVE SMOOTH",
"58.1666 706.833 OFFCURVE",
"67.3333 703 OFFCURVE",
"78 703 CURVE SMOOTH",
"130 703 OFFCURVE",
"156 677 OFFCURVE",
"156 625 CURVE SMOOTH",
"156 391 LINE SMOOTH",
"156 338.333 OFFCURVE",
"169 299 OFFCURVE",
"195 273 CURVE",
"169 247 OFFCURVE",
"156 208 OFFCURVE",
"156 156 CURVE SMOOTH",
"156 -78 LINE SMOOTH",
"156 -130 OFFCURVE",
"130 -156 OFFCURVE",
"78 -156 CURVE SMOOTH",
"67.3333 -156 OFFCURVE",
"58.1666 -160 OFFCURVE",
"50.5 -168 CURVE SMOOTH",
"42.8333 -175 OFFCURVE",
"39 -184 OFFCURVE",
"39 -195 CURVE SMOOTH",
"39 -206 OFFCURVE",
"42.8333 -215 OFFCURVE",
"50.5 -223 CURVE SMOOTH",
"58.1666 -230 OFFCURVE",
"67.3333 -234 OFFCURVE",
"78 -234 CURVE SMOOTH",
"182 -234 OFFCURVE",
"234 -182 OFFCURVE",
"234 -78 CURVE SMOOTH",
"234 156 LINE SMOOTH",
"234 208 OFFCURVE",
"260 234 OFFCURVE",
"312 234 CURVE SMOOTH",
"323.333 234 OFFCURVE",
"332.833 237.833 OFFCURVE",
"340.5 245.5 CURVE SMOOTH",
"348.166 253.167 OFFCURVE",
"352 262.333 OFFCURVE",
"352 273 CURVE SMOOTH",
"352 284.333 OFFCURVE",
"348.166 293.667 OFFCURVE",
"340.5 301 CURVE SMOOTH",
"332.833 308.333 OFFCURVE",
"323.333 312 OFFCURVE",
"312 312 CURVE SMOOTH",
"260 312 OFFCURVE",
"234 338.333 OFFCURVE",
"234 391 CURVE SMOOTH"
);
}
);
width = 391;
}
);
unicode = 007D;
},
{
glyphname = asciitilde;
layers = (
{
layerId = "1285D0D6-ECBB-4398-A306-ABCA7FA13BF2";
name = Regular;
paths = (
{
closed = 1;
nodes = (
"274 347 OFFCURVE",
"290.333 353 OFFCURVE",
"309 353 CURVE SMOOTH",
"330.333 353 OFFCURVE",
"348.666 345 OFFCURVE",
"364 329 CURVE SMOOTH",
"371.333 321.666 OFFCURVE",
"380.333 318 OFFCURVE",
"391 318 CURVE SMOOTH",
"401.665 318 OFFCURVE",
"410.832 321.833 OFFCURVE",
"418.5 329.5 CURVE SMOOTH",
"426.166 337.165 OFFCURVE",
"430 346.332 OFFCURVE",
"430 357 CURVE SMOOTH",
"430 367.666 OFFCURVE",
"426.333 377 OFFCURVE",
"419 385 CURVE SMOOTH",
"389 415.666 OFFCURVE",
"352.333 431 OFFCURVE",
"309 431 CURVE SMOOTH",
"269 431 OFFCURVE",
"234.333 418 OFFCURVE",
"205 392 CURVE",
"191 380.666 OFFCURVE",
"174.667 375 OFFCURVE",
"156 375 CURVE SMOOTH",
"134.667 375 OFFCURVE",
"116.333 382.666 OFFCURVE",
"101 398 CURVE",
"92.9999 405.333 OFFCURVE",
"84 409 OFFCURVE",
"74 409 CURVE SMOOTH",
"63.3333 409 OFFCURVE",
"54.1667 405.166 OFFCURVE",
"46.5 397.5 CURVE SMOOTH",
"38.8333 389.833 OFFCURVE",
"35 380.666 OFFCURVE",
"35 370 CURVE SMOOTH",
"35 359.333 OFFCURVE",
"38.3333 350 OFFCURVE",
"45 342 CURVE",
"75.6666 311.333 OFFCURVE",
"112.667 296 OFFCURVE",
"156 296 CURVE SMOOTH",
"196 296 OFFCURVE",
"230.667 309 OFFCURVE",
"260 335 CURVE SMOOTH"
);
}
);
width = 469;
}
);
unicode = 007E;
},
{
glyphname = fivehundredpx;
lastChange = "2013-10-24 14:02:13 +0300";
layers = (
{
layerId = "1285D0D6-ECBB-4398-A306-ABCA7FA13BF2";
name = Regular;
paths = (
{
closed = 1;
nodes = (
"590.333 354 OFFCURVE",
"577.333 350.833 OFFCURVE",
"566 344.5 CURVE SMOOTH",
"554.666 338.168 OFFCURVE",
"545 331.334 OFFCURVE",
"537 324 CURVE SMOOTH",
"527.666 315.333 OFFCURVE",
"519.333 305.333 OFFCURVE",
"512 294 CURVE",
"505.333 305.333 OFFCURVE",
"497.666 315.333 OFFCURVE",
"489 324 CURVE SMOOTH",
"481.666 331.333 OFFCURVE",
"472.166 338.166 OFFCURVE",
"460.5 344.5 CURVE SMOOTH",
"448.833 350.833 OFFCURVE",
"435 354 OFFCURVE",
"419 354 CURVE SMOOTH",
"403 354 OFFCURVE",
"390 351.166 OFFCURVE",
"380 345.5 CURVE SMOOTH",
"370 339.833 OFFCURVE",
"362.333 333.666 OFFCURVE",
"357 327 CURVE SMOOTH",
"350.333 319 OFFCURVE",
"345.666 310 OFFCURVE",
"343 300 CURVE",
"339.666 308.667 OFFCURVE",
"334.666 316.666 OFFCURVE",
"328 324 CURVE SMOOTH",
"322.666 330 OFFCURVE",
"315.666 335.5 OFFCURVE",
"307 340.5 CURVE SMOOTH",
"298.333 345.5 OFFCURVE",
"287.333 348 OFFCURVE",
"274 348 CURVE SMOOTH",
"264.668 348 OFFCURVE",
"256.834 347 OFFCURVE",
"250.5 345 CURVE SMOOTH",
"244.167 343 OFFCURVE",
"238.667 341 OFFCURVE",
"234 339 CURVE",
"228.667 336.333 OFFCURVE",
"224.333 333.333 OFFCURVE",
"221 330 CURVE",
"233 385 LINE",
"337 385 LINE",
"337 433 LINE",
"198 433 LINE",
"169 287 LINE",
"221 287 LINE",
"223.667 291.667 OFFCURVE",
"227 295.667 OFFCURVE",
"231 299 CURVE",
"234.333 302.333 OFFCURVE",
"238.5 305.333 OFFCURVE",
"243.5 308 CURVE SMOOTH",
"248.5 310.667 OFFCURVE",
"254.667 312 OFFCURVE",
"262 312 CURVE SMOOTH",
"276.667 312 OFFCURVE",
"287.167 306.833 OFFCURVE",
"293.5 296.5 CURVE SMOOTH",
"299.833 286.167 OFFCURVE",
"303 275 OFFCURVE",
"303 263 CURVE SMOOTH",
"303 251 OFFCURVE",
"298 240 OFFCURVE",
"288 230 CURVE SMOOTH",
"278 220 OFFCURVE",
"267.333 215 OFFCURVE",
"256 215 CURVE SMOOTH",
"246.667 215 OFFCURVE",
"239.5 216.833 OFFCURVE",
"234.5 220.5 CURVE SMOOTH",
"229.5 224.167 OFFCURVE",
"225.333 228.333 OFFCURVE",
"222 233 CURVE",
"218.667 238.333 OFFCURVE",
"216.333 244.333 OFFCURVE",
"215 251 CURVE",
"163 251 LINE",
"165.667 236.333 OFFCURVE",
"170.667 223 OFFCURVE",
"178 211 CURVE SMOOTH",
"184 201 OFFCURVE",
"192.667 192 OFFCURVE",
"204 184 CURVE SMOOTH",
"215.333 176 OFFCURVE",
"230.666 172 OFFCURVE",
"250 172 CURVE SMOOTH",
"269.333 172 OFFCURVE",
"284.833 174.5 OFFCURVE",
"296.5 179.5 CURVE SMOOTH",
"308.167 184.5 OFFCURVE",
"317.666 190 OFFCURVE",
"325 196 CURVE",
"333 203.333 OFFCURVE",
"339 211.666 OFFCURVE",
"343 221 CURVE",
"345.665 211.667 OFFCURVE",
"350.332 203.333 OFFCURVE",
"357 196 CURVE SMOOTH",
"362.333 190 OFFCURVE",
"370 184.5 OFFCURVE",
"380 179.5 CURVE SMOOTH",
"390 174.5 OFFCURVE",
"403 172 OFFCURVE",
"419 172 CURVE SMOOTH",
"435 172 OFFCURVE",
"448.833 174.667 OFFCURVE",
"460.5 180 CURVE SMOOTH",
"472.166 185.333 OFFCURVE",
"481.666 191.666 OFFCURVE",
"489 199 CURVE",
"497.664 207 OFFCURVE",
"505.331 216.333 OFFCURVE",
"512 227 CURVE",
"519.329 216.333 OFFCURVE",
"527.662 207 OFFCURVE",
"537 199 CURVE SMOOTH",
"545 191.667 OFFCURVE",
"554.666 185.333 OFFCURVE",
"566 180 CURVE SMOOTH",
"577.333 174.667 OFFCURVE",
"590.333 172 OFFCURVE",
"605 172 CURVE SMOOTH",
"634.331 172 OFFCURVE",
"655.164 181.167 OFFCURVE",
"667.5 199.5 CURVE SMOOTH",
"679.833 217.833 OFFCURVE",
"686 239 OFFCURVE",
"686 263 CURVE SMOOTH",
"686 287.667 OFFCURVE",
"679.833 309 OFFCURVE",
"667.5 327 CURVE SMOOTH",
"655.166 345 OFFCURVE",
"634.333 354 OFFCURVE",
"605 354 CURVE SMOOTH"
);
},
{
closed = 1;
nodes = (
"410.333 221 OFFCURVE",
"398.833 225 OFFCURVE",
"390.5 233 CURVE SMOOTH",
"382.166 241 OFFCURVE",
"378 251 OFFCURVE",
"378 263 CURVE SMOOTH",
"378 275 OFFCURVE",
"382.166 285.167 OFFCURVE",
"390.5 293.5 CURVE SMOOTH",
"398.833 301.833 OFFCURVE",
"410.333 306 OFFCURVE",
"425 306 CURVE SMOOTH",
"432.333 306 OFFCURVE",
"439.5 303.667 OFFCURVE",
"446.5 299 CURVE SMOOTH",
"453.5 294.333 OFFCURVE",
"459.666 289.333 OFFCURVE",
"465 284 CURVE SMOOTH",
"471.666 277.333 OFFCURVE",
"477.666 270.333 OFFCURVE",
"483 263 CURVE",
"477.666 255 OFFCURVE",
"471.666 248 OFFCURVE",
"465 242 CURVE",
"459.666 236.667 OFFCURVE",
"453.5 231.833 OFFCURVE",
"446.5 227.5 CURVE SMOOTH",
"439.5 223.167 OFFCURVE",
"432.333 221 OFFCURVE",
"425 221 CURVE SMOOTH"
);
},
{
closed = 1;
nodes = (
"591.666 221 OFFCURVE",
"584.5 223.167 OFFCURVE",
"577.5 227.5 CURVE SMOOTH",
"570.5 231.832 OFFCURVE",
"564.333 236.666 OFFCURVE",
"559 242 CURVE",
"552.333 248 OFFCURVE",
"546.333 255 OFFCURVE",
"541 263 CURVE",
"546.333 270.333 OFFCURVE",
"552.333 277.333 OFFCURVE",
"559 284 CURVE SMOOTH",
"564.333 289.333 OFFCURVE",
"570.5 294.333 OFFCURVE",
"577.5 299 CURVE SMOOTH",
"584.5 303.667 OFFCURVE",
"591.666 306 OFFCURVE",
"599 306 CURVE SMOOTH",
"613.666 306 OFFCURVE",
"625 301.833 OFFCURVE",
"633 293.5 CURVE SMOOTH",
"641 285.167 OFFCURVE",
"645 275 OFFCURVE",
"645 263 CURVE SMOOTH",
"645 251 OFFCURVE",
"641 241 OFFCURVE",
"633 233 CURVE SMOOTH",
"625 225 OFFCURVE",
"613.666 221 OFFCURVE",
"599 221 CURVE SMOOTH"
);
}
);
width = 850;
}
);
unicode = E000;
},
{
glyphname = aboutme;
layers = (
{
layerId = "1285D0D6-ECBB-4398-A306-ABCA7FA13BF2";
name = Regular;
paths = (
{
closed = 1;
nodes = (
"163 195 LINE",
"199 195 LINE",
"199 304 LINE SMOOTH",
"199 322.666 OFFCURVE",
"201 337 OFFCURVE",
"205 347 CURVE",
"207.667 356.333 OFFCURVE",
"213.667 364 OFFCURVE",
"223 370 CURVE",
"232.333 375.333 OFFCURVE",
"241.666 378 OFFCURVE",
"251 378 CURVE SMOOTH",
"264.333 378 OFFCURVE",
"274 374 OFFCURVE",
"280 366 CURVE SMOOTH",
"286 358 OFFCURVE",
"289 346.333 OFFCURVE",
"289 331 CURVE SMOOTH",
"289 195 LINE",
"325 195 LINE",
"325 317 LINE SMOOTH",
"325 339 OFFCURVE",
"329.666 354.333 OFFCURVE",
"339 363 CURVE",
"349 373 OFFCURVE",
"361.333 378 OFFCURVE",
"376 378 CURVE SMOOTH",
"384.666 378 OFFCURVE",
"392 376 OFFCURVE",
"398 372 CURVE",
"403.333 369.333 OFFCURVE",
"407.666 364.333 OFFCURVE",
"411 357 CURVE",
"413 351 OFFCURVE",
"414 341 OFFCURVE",
"414 327 CURVE SMOOTH",
"414 195 LINE",
"450 195 LINE",
"450 339 LINE SMOOTH",
"450 361.666 OFFCURVE",
"444.333 379.332 OFFCURVE",
"433 392 CURVE",
"421.667 403.333 OFFCURVE",
"405.334 409 OFFCURVE",
"384 409 CURVE SMOOTH",
"357.333 409 OFFCURVE",
"335.666 396.666 OFFCURVE",
"319 372 CURVE",
"315 384 OFFCURVE",
"308 393 OFFCURVE",
"298 399 CURVE",
"288.667 405.666 OFFCURVE",
"275.667 409 OFFCURVE",
"259 409 CURVE SMOOTH",
"245 409 OFFCURVE",
"232.667 405.666 OFFCURVE",
"222 399 CURVE",
"211.333 393.666 OFFCURVE",
"202.333 385.666 OFFCURVE",
"195 375 CURVE",
"195 404 LINE",
"163 404 LINE"
);
},
{
closed = 1;
nodes = (
"648 263 LINE",
"642 247.667 OFFCURVE",
"634.666 236.667 OFFCURVE",
"626 230 CURVE SMOOTH",
"617.333 223.333 OFFCURVE",
"606 220 OFFCURVE",
"592 220 CURVE SMOOTH",
"574.666 220 OFFCURVE",
"560 226 OFFCURVE",
"548 238 CURVE SMOOTH",
"535.337 250 OFFCURVE",
"528.67 267.667 OFFCURVE",
"528 291 CURVE",
"686 291 LINE",
"686 300 LINE SMOOTH",
"686 334 OFFCURVE",
"677 360.666 OFFCURVE",
"659 380 CURVE SMOOTH",
"641 399.333 OFFCURVE",
"618 409 OFFCURVE",
"590 409 CURVE SMOOTH",
"560.666 409 OFFCURVE",
"537 399.333 OFFCURVE",
"519 380 CURVE SMOOTH",
"500.333 360.667 OFFCURVE",
"491 333.333 OFFCURVE",
"491 298 CURVE SMOOTH",
"491 264 OFFCURVE",
"500 237.667 OFFCURVE",
"518 219 CURVE SMOOTH",
"536 200.333 OFFCURVE",
"560.666 191 OFFCURVE",
"592 191 CURVE SMOOTH",
"616 191 OFFCURVE",
"636.333 196.667 OFFCURVE",
"653 208 CURVE",
"668.333 220 OFFCURVE",
"679 236.667 OFFCURVE",
"685 258 CURVE"
);
},
{
closed = 1;
nodes = (
"530 320 LINE",
"530.666 336.666 OFFCURVE",
"537 351 OFFCURVE",
"549 363 CURVE SMOOTH",
"560.333 374.333 OFFCURVE",
"574 380 OFFCURVE",
"590 380 CURVE SMOOTH",
"608 380 OFFCURVE",
"623 373 OFFCURVE",
"635 359 CURVE SMOOTH",
"643 349 OFFCURVE",
"647.333 336 OFFCURVE",
"648 320 CURVE"
);
}
);
width = 850;
}
);
unicode = E001;
},
{
glyphname = addme;
layers = (
{
layerId = "1285D0D6-ECBB-4398-A306-ABCA7FA13BF2";
name = Regular;
paths = (
{
closed = 1;
nodes = (
"634 357 LINE",
"634 357 LINE",
"477 357 LINE",
"477 514 LINE",
"372 514 LINE",
"372 357 LINE",
"215 357 LINE",
"215 252 LINE",
"372 252 LINE",
"372 95.9999 LINE",
"477 95.9999 LINE",
"477 252 LINE",
"634 252 LINE"
);
}
);
width = 850;
}
);
unicode = E002;
},
{
glyphname = amazon;
layers = (
{
layerId = "1285D0D6-ECBB-4398-A306-ABCA7FA13BF2";
name = Regular;
paths = (
{
closed = 1;
nodes = (
"640.666 144.333 OFFCURVE",
"641.666 148 OFFCURVE",
"639 152 CURVE SMOOTH",
"636.333 156 OFFCURVE",
"632.333 157 OFFCURVE",
"627 155 CURVE",
"625 153.667 OFFCURVE",
"622.833 152.667 OFFCURVE",
"620.5 152 CURVE SMOOTH",
"618.166 151.333 OFFCURVE",
"616 150.333 OFFCURVE",
"614 149 CURVE",
"583.333 136.333 OFFCURVE",
"552.5 127.167 OFFCURVE",
"521.5 121.5 CURVE SMOOTH",
"490.5 115.833 OFFCURVE",
"460 113 OFFCURVE",
"430 113 CURVE SMOOTH",
"382.666 113 OFFCURVE",
"337 119.333 OFFCURVE",
"293 132 CURVE SMOOTH",
"249 144.667 OFFCURVE",
"208.333 162 OFFCURVE",
"171 184 CURVE SMOOTH",
"167.667 186 OFFCURVE",
"165.167 185.833 OFFCURVE",
"163.5 183.5 CURVE SMOOTH",
"161.828 181.167 OFFCURVE",
"162.662 178.667 OFFCURVE",
"166 176 CURVE",
"200 144 OFFCURVE",
"239 118.833 OFFCURVE",
"283 100.5 CURVE SMOOTH",
"327 82.1666 OFFCURVE",
"374 73 OFFCURVE",
"424 73 CURVE SMOOTH",
"456 73 OFFCURVE",
"488.666 77.5 OFFCURVE",
"522 86.5 CURVE SMOOTH",
"555.333 95.4999 OFFCURVE",
"586 108.667 OFFCURVE",
"614 126 CURVE",
"621.328 129.333 OFFCURVE",
"628.661 134.333 OFFCURVE",
"636 141 CURVE"
);
},
{
closed = 1;
nodes = (
"685.333 186.333 OFFCURVE",
"686 183 OFFCURVE",
"686 179 CURVE SMOOTH",
"686 176 LINE",
"685.333 166 OFFCURVE",
"682.333 153 OFFCURVE",
"677 137 CURVE SMOOTH",
"671.666 121 OFFCURVE",
"663.333 108 OFFCURVE",
"652 97.9999 CURVE",
"649.333 95.9999 OFFCURVE",
"647 95.3333 OFFCURVE",
"645 95.9999 CURVE SMOOTH",
"643 96.6659 OFFCURVE",
"642.666 98.3325 OFFCURVE",
"644 101 CURVE",
"646 105.667 OFFCURVE",
"648.166 111.333 OFFCURVE",
"650.5 118 CURVE SMOOTH",
"652.833 124.667 OFFCURVE",
"655 131.5 OFFCURVE",
"657 138.5 CURVE SMOOTH",
"659 145.5 OFFCURVE",
"660.5 151.833 OFFCURVE",
"661.5 157.5 CURVE SMOOTH",
"662.5 163.167 OFFCURVE",
"662 167 OFFCURVE",
"660 169 CURVE SMOOTH",
"656.666 172.332 OFFCURVE",
"650.5 174.165 OFFCURVE",
"641.5 174.5 CURVE SMOOTH",
"632.5 174.839 OFFCURVE",
"623.333 174.672 OFFCURVE",
"614 174 CURVE",
"610 173.333 OFFCURVE",
"606.166 172.833 OFFCURVE",
"602.5 172.5 CURVE SMOOTH",
"598.833 172.167 OFFCURVE",
"595.333 171.667 OFFCURVE",
"592 171 CURVE",
"589.333 171 OFFCURVE",
"587.833 171.833 OFFCURVE",
"587.5 173.5 CURVE SMOOTH",
"587.166 175.167 OFFCURVE",
"588.333 177 OFFCURVE",
"591 179 CURVE SMOOTH",
"597.666 183.667 OFFCURVE",
"605.333 187.667 OFFCURVE",
"614 191 CURVE",
"629.331 195.667 OFFCURVE",
"644.164 197.333 OFFCURVE",
"658.5 196 CURVE SMOOTH",
"672.833 194.667 OFFCURVE",
"681.333 192.333 OFFCURVE",
"684 189 CURVE"
);
},
{
closed = 1;
nodes = (
"574.666 257 OFFCURVE",
"575.833 259.333 OFFCURVE",
"575.5 262 CURVE SMOOTH",
"575.166 264.664 OFFCURVE",
"574.333 267.331 OFFCURVE",
"573 270 CURVE",
"567.666 277.333 OFFCURVE",
"562.666 284.833 OFFCURVE",
"558 292.5 CURVE SMOOTH",
"553.333 300.167 OFFCURVE",
"551 310.667 OFFCURVE",
"551 324 CURVE SMOOTH",
"551 415 LINE SMOOTH",
"551 434.333 OFFCURVE",
"550.333 452.5 OFFCURVE",
"549 469.5 CURVE SMOOTH",
"547.666 486.5 OFFCURVE",
"540.333 501.666 OFFCURVE",
"527 515 CURVE SMOOTH",
"515.666 525.666 OFFCURVE",
"502 533.166 OFFCURVE",
"486 537.5 CURVE SMOOTH",
"470 541.833 OFFCURVE",
"455.333 544 OFFCURVE",
"442 544 CURVE SMOOTH",
"431 544 LINE",
"418.333 543.333 OFFCURVE",
"405.833 541.333 OFFCURVE",
"393.5 538 CURVE SMOOTH",
"381.167 534.666 OFFCURVE",
"369.834 529.5 OFFCURVE",
"359.5 522.5 CURVE SMOOTH",
"349.166 515.5 OFFCURVE",
"340.166 506.5 OFFCURVE",
"332.5 495.5 CURVE SMOOTH",
"324.833 484.5 OFFCURVE",
"319.666 471 OFFCURVE",
"317 455 CURVE",
"315.666 451 OFFCURVE",
"316.166 448.166 OFFCURVE",
"318.5 446.5 CURVE SMOOTH",
"320.833 444.833 OFFCURVE",
"322.666 443.666 OFFCURVE",
"324 443 CURVE",
"379 436 LINE",
"384.333 436.663 OFFCURVE",
"387.666 440.33 OFFCURVE",
"389 447 CURVE SMOOTH",
"391.663 458.333 OFFCURVE",
"396.83 466.666 OFFCURVE",
"404.5 472 CURVE SMOOTH",
"412.166 477.333 OFFCURVE",
"421 480.666 OFFCURVE",
"431 482 CURVE",
"434 482 LINE SMOOTH",
"440 482 OFFCURVE",
"446 480.833 OFFCURVE",
"452 478.5 CURVE SMOOTH",
"458 476.17 OFFCURVE",
"462.666 472.337 OFFCURVE",
"466 467 CURVE",
"469.333 461 OFFCURVE",
"471.166 454.333 OFFCURVE",
"471.5 447 CURVE SMOOTH",
"471.833 439.668 OFFCURVE",
"472 432.335 OFFCURVE",
"472 425 CURVE SMOOTH",
"472 417 LINE",
"466 416.333 OFFCURVE",
"459.5 415.833 OFFCURVE",
"452.5 415.5 CURVE SMOOTH",
"445.5 415.179 OFFCURVE",
"438.333 414.346 OFFCURVE",
"431 413 CURVE",
"419.666 411.673 OFFCURVE",
"408.5 409.839 OFFCURVE",
"397.5 407.5 CURVE SMOOTH",
"386.5 405.166 OFFCURVE",
"376.333 401.666 OFFCURVE",
"367 397 CURVE",
"349 389 OFFCURVE",
"334.5 377 OFFCURVE",
"323.5 361 CURVE SMOOTH",
"312.5 345 OFFCURVE",
"307 325.333 OFFCURVE",
"307 302 CURVE SMOOTH",
"307 272 OFFCURVE",
"315.166 249.5 OFFCURVE",
"331.5 234.5 CURVE SMOOTH",
"347.833 219.5 OFFCURVE",
"367.666 212 OFFCURVE",
"391 212 CURVE SMOOTH",
"404.333 212 OFFCURVE",
"417.666 213.667 OFFCURVE",
"431 217 CURVE",
"449 223 OFFCURVE",
"466.333 235.333 OFFCURVE",
"483 254 CURVE",
"488.333 246.667 OFFCURVE",
"492.666 240.5 OFFCURVE",
"496 235.5 CURVE SMOOTH",
"499.333 230.5 OFFCURVE",
"505.666 224 OFFCURVE",
"515 216 CURVE",
"520.333 214 OFFCURVE",
"525 214.333 OFFCURVE",
"529 217 CURVE",
"535 222.332 OFFCURVE",
"542.333 228.666 OFFCURVE",
"551 236 CURVE SMOOTH",
"559.666 243.332 OFFCURVE",
"566.666 249.666 OFFCURVE",
"572 255 CURVE"
);
},
{
closed = 1;
nodes = (
"472 358 LINE SMOOTH",
"472 346.666 OFFCURVE",
"471.666 336.166 OFFCURVE",
"471 326.5 CURVE SMOOTH",
"470.333 316.833 OFFCURVE",
"467.333 307 OFFCURVE",
"462 297 CURVE SMOOTH",
"454.668 282.333 OFFCURVE",
"444.335 273.333 OFFCURVE",
"431 270 CURVE",
"429.673 270 OFFCURVE",
"428.34 269.833 OFFCURVE",
"427 269.5 CURVE SMOOTH",
"425.673 269.167 OFFCURVE",
"424.34 269 OFFCURVE",
"423 269 CURVE SMOOTH",
"411.666 269 OFFCURVE",
"403.166 272.833 OFFCURVE",
"397.5 280.5 CURVE SMOOTH",
"391.833 288.167 OFFCURVE",
"389 298.667 OFFCURVE",
"389 312 CURVE SMOOTH",
"389 328 OFFCURVE",
"393 340.166 OFFCURVE",
"401 348.5 CURVE SMOOTH",
"409 356.833 OFFCURVE",
"419 362.666 OFFCURVE",
"431 366 CURVE",
"437 367.333 OFFCURVE",
"443.5 368.333 OFFCURVE",
"450.5 369 CURVE SMOOTH",
"457.5 369.666 OFFCURVE",
"464.666 370 OFFCURVE",
"472 370 CURVE"
);
}
);
width = 850;
}
);
unicode = E003;
},
{
glyphname = aol;
layers = (
{
layerId = "1285D0D6-ECBB-4398-A306-ABCA7FA13BF2";
name = Regular;
paths = (
{
closed = 1;
nodes = (
"465.666 564 OFFCURVE",
"450.666 557.833 OFFCURVE",
"438 545.5 CURVE SMOOTH",
"425.333 533.166 OFFCURVE",
"419 518.333 OFFCURVE",
"419 501 CURVE SMOOTH",
"419 483.666 OFFCURVE",
"425.333 469 OFFCURVE",
"438 457 CURVE SMOOTH",
"450.666 445 OFFCURVE",
"465.666 439 OFFCURVE",
"483 439 CURVE SMOOTH",
"500.998 439 OFFCURVE",
"516.164 445 OFFCURVE",
"528.5 457 CURVE SMOOTH",
"540.833 469 OFFCURVE",
"547 483.666 OFFCURVE",
"547 501 CURVE SMOOTH",
"547 518.331 OFFCURVE",
"540.833 533.164 OFFCURVE",
"528.5 545.5 CURVE SMOOTH",
"516.166 557.833 OFFCURVE",
"501 564 OFFCURVE",
"483 564 CURVE SMOOTH"
);
},
{
closed = 1;
nodes = (
"229 173 LINE",
"258 92.9999 LINE",
"267 95.9999 LINE",
"289 101.333 OFFCURVE",
"307.833 107.833 OFFCURVE",
"323.5 115.5 CURVE SMOOTH",
"339.166 123.167 OFFCURVE",
"352.666 131.5 OFFCURVE",
"364 140.5 CURVE SMOOTH",
"375.333 149.5 OFFCURVE",
"385 158.833 OFFCURVE",
"393 168.5 CURVE SMOOTH",
"401 178.167 OFFCURVE",
"408.666 187.667 OFFCURVE",
"416 197 CURVE SMOOTH",
"423 206 LINE",
"423.666 208 OFFCURVE",
"425 209 OFFCURVE",
"427 209 CURVE",
"431 207 LINE",
"449 199 OFFCURVE",
"464.666 190.667 OFFCURVE",
"478 182 CURVE SMOOTH",
"491.333 173.334 OFFCURVE",
"502.833 164.667 OFFCURVE",
"512.5 156 CURVE SMOOTH",
"522.166 147.333 OFFCURVE",
"529.833 139 OFFCURVE",
"535.5 131 CURVE SMOOTH",
"541.166 123 OFFCURVE",
"545.666 116.333 OFFCURVE",
"549 111 CURVE",
"554 102 LINE",
"621 140 LINE",
"616 148 LINE",
"582.666 214.667 OFFCURVE",
"534.333 263.667 OFFCURVE",
"471 295 CURVE",
"470.333 295.667 OFFCURVE",
"469.333 296 OFFCURVE",
"468 296 CURVE",
"467 297 LINE",
"466 298 LINE",
"464 299.333 OFFCURVE",
"463.333 300.333 OFFCURVE",
"464 301 CURVE",
"464.666 305 OFFCURVE",
"465.5 307.333 OFFCURVE",
"466.5 308 CURVE SMOOTH",
"467.5 308.667 OFFCURVE",
"468.666 309 OFFCURVE",
"470 309 CURVE SMOOTH",
"470.659 309 OFFCURVE",
"471.326 308.833 OFFCURVE",
"472 308.5 CURVE SMOOTH",
"472.666 308.167 OFFCURVE",
"473.666 308 OFFCURVE",
"475 308 CURVE SMOOTH",
"479 308 LINE",
"485 307.333 OFFCURVE",
"490.833 306.667 OFFCURVE",
"496.5 306 CURVE SMOOTH",
"502.163 305.333 OFFCURVE",
"508.329 305 OFFCURVE",
"515 305 CURVE SMOOTH",
"528.333 305 OFFCURVE",
"542.333 307.167 OFFCURVE",
"557 311.5 CURVE SMOOTH",
"571.666 315.833 OFFCURVE",
"588.333 322.666 OFFCURVE",
"607 332 CURVE SMOOTH",
"615 336 LINE",
"588 397 LINE",
"579 393 LINE SMOOTH",
"571.666 389.666 OFFCURVE",
"562.833 386.666 OFFCURVE",
"552.5 384 CURVE SMOOTH",
"542.166 381.333 OFFCURVE",
"531 380 OFFCURVE",
"519 380 CURVE SMOOTH",
"505.666 380 OFFCURVE",
"493 382 OFFCURVE",
"481 386 CURVE",
"477 388 LINE",
"476 391 LINE",
"475.333 391.666 OFFCURVE",
"475 394 OFFCURVE",
"475 398 CURVE",
"474.333 398 OFFCURVE",
"474 398.666 OFFCURVE",
"474 400 CURVE SMOOTH",
"474 401 LINE",
"474 414 LINE",
"466 415 LINE",
"456.668 417 OFFCURVE",
"446.335 421 OFFCURVE",
"435 427 CURVE",
"430 430 LINE",
"425 428 LINE",
"403 415.333 OFFCURVE",
"386.5 398.5 OFFCURVE",
"375.5 377.5 CURVE SMOOTH",
"364.5 356.5 OFFCURVE",
"357.333 327.666 OFFCURVE",
"354 291 CURVE",
"352.677 281.669 OFFCURVE",
"351.844 275.335 OFFCURVE",
"351.5 272 CURVE SMOOTH",
"351.177 268.671 OFFCURVE",
"350.344 266.337 OFFCURVE",
"349 265 CURVE",
"341.668 250.333 OFFCURVE",
"333.334 237.833 OFFCURVE",
"324 227.5 CURVE SMOOTH",
"314.668 217.167 OFFCURVE",
"304.834 208.5 OFFCURVE",
"294.5 201.5 CURVE SMOOTH",
"284.167 194.5 OFFCURVE",
"274.167 189 OFFCURVE",
"264.5 185 CURVE SMOOTH",
"254.833 181 OFFCURVE",
"246.333 178 OFFCURVE",
"239 176 CURVE SMOOTH"
);
}
);
width = 850;
}
);
unicode = E004;
},
{
glyphname = appstorealt;
layers = (
{
layerId = "1285D0D6-ECBB-4398-A306-ABCA7FA13BF2";
name = Regular;
paths = (
{
closed = 1;
nodes = (
"389 561 OFFCURVE",
"355 554.166 OFFCURVE",
"323 540.5 CURVE SMOOTH",
"291 526.833 OFFCURVE",
"263.167 508.166 OFFCURVE",
"239.5 484.5 CURVE SMOOTH",
"215.833 460.833 OFFCURVE",
"197.167 433.166 OFFCURVE",
"183.5 401.5 CURVE SMOOTH",
"169.833 369.833 OFFCURVE",
"163 336 OFFCURVE",
"163 300 CURVE SMOOTH",
"163 264 OFFCURVE",
"169.833 230 OFFCURVE",
"183.5 198 CURVE SMOOTH",
"197.167 166 OFFCURVE",
"215.833 138.167 OFFCURVE",
"239.5 114.5 CURVE SMOOTH",
"263.167 90.8333 OFFCURVE",
"291 72.1666 OFFCURVE",
"323 58.5 CURVE SMOOTH",
"355 44.8333 OFFCURVE",
"389 38 OFFCURVE",
"425 38 CURVE SMOOTH",
"461 38 OFFCURVE",
"494.833 44.8333 OFFCURVE",
"526.5 58.5 CURVE SMOOTH",
"558.166 72.1666 OFFCURVE",
"585.833 90.8332 OFFCURVE",
"609.5 114.5 CURVE SMOOTH",
"633.166 138.167 OFFCURVE",
"651.833 166 OFFCURVE",
"665.5 198 CURVE SMOOTH",
"679.166 230 OFFCURVE",
"686 264 OFFCURVE",
"686 300 CURVE SMOOTH",
"686 336 OFFCURVE",
"679.166 369.833 OFFCURVE",
"665.5 401.5 CURVE SMOOTH",
"651.835 433.166 OFFCURVE",
"633.169 460.833 OFFCURVE",
"609.5 484.5 CURVE SMOOTH",
"585.834 508.166 OFFCURVE",
"558.167 526.833 OFFCURVE",
"526.5 540.5 CURVE SMOOTH",
"494.833 554.166 OFFCURVE",
"461 561 OFFCURVE",
"425 561 CURVE SMOOTH"
);
},
{
closed = 1;
nodes = (
"392.333 64 OFFCURVE",
"361.666 70.1666 OFFCURVE",
"333 82.5 CURVE SMOOTH",
"304.333 94.8333 OFFCURVE",
"279.333 111.667 OFFCURVE",
"258 133 CURVE SMOOTH",
"236.667 154.333 OFFCURVE",
"219.833 179.333 OFFCURVE",
"207.5 208 CURVE SMOOTH",
"195.167 236.667 OFFCURVE",
"189 267.333 OFFCURVE",
"189 300 CURVE SMOOTH",
"189 332.666 OFFCURVE",
"195.167 363.166 OFFCURVE",
"207.5 391.5 CURVE SMOOTH",
"219.833 419.833 OFFCURVE",
"236.666 444.666 OFFCURVE",
"258 466 CURVE SMOOTH",
"279.333 487.333 OFFCURVE",
"304.333 504.166 OFFCURVE",
"333 516.5 CURVE SMOOTH",
"361.666 528.833 OFFCURVE",
"392.333 535 OFFCURVE",
"425 535 CURVE SMOOTH",
"457.666 535 OFFCURVE",
"488.166 528.833 OFFCURVE",
"516.5 516.5 CURVE SMOOTH",
"544.832 504.167 OFFCURVE",
"569.665 487.334 OFFCURVE",
"591 466 CURVE SMOOTH",
"612.331 444.667 OFFCURVE",
"629.164 419.834 OFFCURVE",
"641.5 391.5 CURVE SMOOTH",
"653.833 363.166 OFFCURVE",
"660 332.666 OFFCURVE",
"660 300 CURVE SMOOTH",
"660 267.333 OFFCURVE",
"653.833 236.667 OFFCURVE",
"641.5 208 CURVE SMOOTH",
"629.166 179.333 OFFCURVE",
"612.333 154.333 OFFCURVE",
"591 133 CURVE SMOOTH",
"569.666 111.667 OFFCURVE",
"544.833 94.8333 OFFCURVE",
"516.5 82.5 CURVE SMOOTH",
"488.166 70.1666 OFFCURVE",
"457.666 64 OFFCURVE",
"425 64 CURVE SMOOTH"
);
},
{
closed = 1;
nodes = (
"372 457 LINE",
"372 274 LINE",
"294 274 LINE",
"425 143 LINE",
"555 274 LINE",
"477 274 LINE",
"477 457 LINE"
);
}
);
width = 850;
}
);
unicode = E005;
},
{
glyphname = appstore;
layers = (
{
layerId = "1285D0D6-ECBB-4398-A306-ABCA7FA13BF2";
name = Regular;
paths = (
{
closed = 1;
nodes = (
"386 437 LINE",
"383.333 438.333 OFFCURVE",
"380.333 438.666 OFFCURVE",
"377 438 CURVE SMOOTH",
"373.672 437.333 OFFCURVE",
"371.339 435.333 OFFCURVE",
"370 432 CURVE",
"227 183 LINE SMOOTH",
"225 179.667 OFFCURVE",
"224.5 176.5 OFFCURVE",
"225.5 173.5 CURVE SMOOTH",
"226.5 170.5 OFFCURVE",
"228.333 168 OFFCURVE",
"231 166 CURVE",
"262 149 LINE",
"268.667 144.332 OFFCURVE",
"274 145.665 OFFCURVE",
"278 153 CURVE SMOOTH",
"422 403 LINE",
"423.333 405.666 OFFCURVE",
"423.666 408.666 OFFCURVE",
"423 412 CURVE SMOOTH",
"422.333 415.333 OFFCURVE",
"420.333 417.666 OFFCURVE",
"417 419 CURVE"
);
},
{
closed = 1;
nodes = (
"221 153 LINE",
"214.333 156.333 OFFCURVE",
"210.333 154.333 OFFCURVE",
"209 147 CURVE",
"204 99.9999 LINE",
"203.333 96.6666 OFFCURVE",
"203.833 94.4999 OFFCURVE",
"205.5 93.4999 CURVE SMOOTH",
"207.167 92.4999 OFFCURVE",
"209.667 92.9999 OFFCURVE",
"213 94.9999 CURVE",
"252 122 LINE",
"259.333 126.667 OFFCURVE",
"259.333 131 OFFCURVE",
"252 135 CURVE SMOOTH"
);
},
{
closed = 1;
nodes = (
"457 349 LINE",
"426 349 LINE",
"359 244 LINE",
"502 244 LINE"
);
},
{
closed = 1;
nodes = (
"229 244 LINE",
"294 349 LINE",
"175 349 LINE SMOOTH",
"171.667 349 OFFCURVE",
"168.833 348.333 OFFCURVE",
"166.5 347 CURVE SMOOTH",
"164.167 345.672 OFFCURVE",
"163 343.338 OFFCURVE",
"163 340 CURVE SMOOTH",
"163 255 LINE SMOOTH",
"163 251.667 OFFCURVE",
"164.167 249 OFFCURVE",
"166.5 247 CURVE SMOOTH",
"168.833 245 OFFCURVE",
"171.666 244 OFFCURVE",
"175 244 CURVE SMOOTH"
);
},
{
closed = 1;
nodes = (
"569 349 LINE",
"622 244 LINE",
"674 244 LINE SMOOTH",
"682 244 OFFCURVE",
"686 247.667 OFFCURVE",
"686 255 CURVE SMOOTH",
"686 340 LINE SMOOTH",
"686 346 OFFCURVE",
"682 349 OFFCURVE",
"674 349 CURVE SMOOTH"
);
},
{
closed = 1;
nodes = (
"588 260.333 OFFCURVE",
"583.166 269.5 OFFCURVE",
"575.5 284.5 CURVE SMOOTH",
"567.833 299.5 OFFCURVE",
"559 316.5 OFFCURVE",
"549 335.5 CURVE SMOOTH",
"539 354.5 OFFCURVE",
"528.666 373.5 OFFCURVE",
"518 392.5 CURVE SMOOTH",
"507.333 411.5 OFFCURVE",
"498.333 427 OFFCURVE",
"491 439 CURVE SMOOTH",
"483.668 450.333 OFFCURVE",
"475.835 463.166 OFFCURVE",
"467.5 477.5 CURVE SMOOTH",
"459.168 491.833 OFFCURVE",
"451.335 505.166 OFFCURVE",
"444 517.5 CURVE SMOOTH",
"436.666 529.833 OFFCURVE",
"430 540 OFFCURVE",
"424 548 CURVE SMOOTH",
"418 556 OFFCURVE",
"413.666 559.333 OFFCURVE",
"411 558 CURVE SMOOTH",
"407 556 OFFCURVE",
"406.5 549.166 OFFCURVE",
"409.5 537.5 CURVE SMOOTH",
"412.5 525.833 OFFCURVE",
"417 512.333 OFFCURVE",
"423 497 CURVE SMOOTH",
"429 481.667 OFFCURVE",
"435.5 466.334 OFFCURVE",
"442.5 451 CURVE SMOOTH",
"449.5 435.668 OFFCURVE",
"455 423.335 OFFCURVE",
"459 414 CURVE SMOOTH",
"463 404.666 OFFCURVE",
"469.333 390 OFFCURVE",
"478 370 CURVE SMOOTH",
"486.665 350 OFFCURVE",
"495.831 329.833 OFFCURVE",
"505.5 309.5 CURVE SMOOTH",
"515.166 289.167 OFFCURVE",
"524 270.834 OFFCURVE",
"532 254.5 CURVE SMOOTH",
"540 238.167 OFFCURVE",
"545.666 229.333 OFFCURVE",
"549 228 CURVE",
"555 224.667 OFFCURVE",
"559.666 223.5 OFFCURVE",
"563 224.5 CURVE SMOOTH",
"566.333 225.5 OFFCURVE",
"570.333 227 OFFCURVE",
"575 229 CURVE",
"579 230.333 OFFCURVE",
"583.5 233.666 OFFCURVE",
"588.5 239 CURVE SMOOTH",
"593.5 244.333 OFFCURVE",
"594 250.333 OFFCURVE",
"590 257 CURVE SMOOTH"
);
},
{
closed = 1;
nodes = (
"620 166 LINE",
"623.333 167.333 OFFCURVE",
"625.5 169.833 OFFCURVE",
"626.5 173.5 CURVE SMOOTH",
"627.5 177.167 OFFCURVE",
"627 180.667 OFFCURVE",
"625 184 CURVE",
"611 212 LINE",
"606.333 220 OFFCURVE",
"600.333 222 OFFCURVE",
"593 218 CURVE",
"575 209 LINE",
"571.666 207.667 OFFCURVE",
"569.666 205.333 OFFCURVE",
"569 202 CURVE SMOOTH",
"568.333 198.667 OFFCURVE",
"569 195.333 OFFCURVE",
"571 192 CURVE",
"590 163 LINE",
"591.333 159.667 OFFCURVE",
"593.833 157.667 OFFCURVE",
"597.5 157 CURVE SMOOTH",
"601.166 156.331 OFFCURVE",
"604.666 156.664 OFFCURVE",
"608 158 CURVE"
);
},
{
closed = 1;
nodes = (
"611.333 148 OFFCURVE",
"608.5 144.333 OFFCURVE",
"605.5 139 CURVE SMOOTH",
"602.5 133.667 OFFCURVE",
"604.333 126.333 OFFCURVE",
"611 117 CURVE SMOOTH",
"614.333 112.333 OFFCURVE",
"618.5 108.667 OFFCURVE",
"623.5 106 CURVE SMOOTH",
"628.5 103.333 OFFCURVE",
"633.333 101 OFFCURVE",
"638 98.9999 CURVE SMOOTH",
"642.666 96.9999 OFFCURVE",
"646.833 94.9999 OFFCURVE",
"650.5 92.9999 CURVE SMOOTH",
"654.166 91 OFFCURVE",
"656.666 88.3333 OFFCURVE",
"658 85 CURVE",
"659.353 102.333 OFFCURVE",
"658.686 117 OFFCURVE",
"656 129 CURVE SMOOTH",
"654 139 OFFCURVE",
"649.833 146.833 OFFCURVE",
"643.5 152.5 CURVE SMOOTH",
"637.166 158.167 OFFCURVE",
"627.333 157.333 OFFCURVE",
"614 150 CURVE"
);
}
);
width = 850;
}
);
unicode = E006;
},
{
glyphname = apple;
layers = (
{
layerId = "1285D0D6-ECBB-4398-A306-ABCA7FA13BF2";
name = Regular;
paths = (
{
closed = 1;
nodes = (
"556 340.666 OFFCURVE",
"558.5 353.666 OFFCURVE",
"563.5 365 CURVE SMOOTH",
"568.5 376.333 OFFCURVE",
"574.333 385.666 OFFCURVE",
"581 393 CURVE SMOOTH",
"587.666 400.333 OFFCURVE",
"593.666 405.833 OFFCURVE",
"599 409.5 CURVE SMOOTH",
"604.333 413.16 OFFCURVE",
"607.333 415.327 OFFCURVE",
"608 416 CURVE",
"600.666 426 OFFCURVE",
"592.833 434 OFFCURVE",
"584.5 440 CURVE SMOOTH",
"576.166 446 OFFCURVE",
"567.833 450.666 OFFCURVE",
"559.5 454 CURVE SMOOTH",
"551.166 457.333 OFFCURVE",
"543.5 459.5 OFFCURVE",
"536.5 460.5 CURVE SMOOTH",
"529.5 461.5 OFFCURVE",
"524 462 OFFCURVE",
"520 462 CURVE",
"510.666 462.666 OFFCURVE",
"501.5 462 OFFCURVE",
"492.5 460 CURVE SMOOTH",
"483.5 458 OFFCURVE",
"475 455.666 OFFCURVE",
"467 453 CURVE SMOOTH",
"459 450.333 OFFCURVE",
"451.666 447.666 OFFCURVE",
"445 445 CURVE SMOOTH",
"438.333 442.333 OFFCURVE",
"432.666 441 OFFCURVE",
"428 441 CURVE SMOOTH",
"423.333 441 OFFCURVE",
"418 442.166 OFFCURVE",
"412 444.5 CURVE SMOOTH",
"406 446.833 OFFCURVE",
"399.666 449.166 OFFCURVE",
"393 451.5 CURVE SMOOTH",
"386.333 453.833 OFFCURVE",
"379.166 456 OFFCURVE",
"371.5 458 CURVE SMOOTH",
"363.833 460 OFFCURVE",
"356 461 OFFCURVE",
"348 461 CURVE SMOOTH",
"327.333 460.333 OFFCURVE",
"308.333 454.833 OFFCURVE",
"291 444.5 CURVE SMOOTH",
"273.667 434.166 OFFCURVE",
"259.667 420 OFFCURVE",
"249 402 CURVE SMOOTH",
"238.333 384 OFFCURVE",
"232 364.166 OFFCURVE",
"230 342.5 CURVE SMOOTH",
"228 320.833 OFFCURVE",
"228.833 299.333 OFFCURVE",
"232.5 278 CURVE SMOOTH",
"236.167 256.667 OFFCURVE",
"242.333 236.167 OFFCURVE",
"251 216.5 CURVE SMOOTH",
"259.667 196.833 OFFCURVE",
"269 179.667 OFFCURVE",
"279 165 CURVE SMOOTH",
"289 150.333 OFFCURVE",
"300.333 136.5 OFFCURVE",
"313 123.5 CURVE SMOOTH",
"325.666 110.5 OFFCURVE",
"339.666 104.333 OFFCURVE",
"355 105 CURVE",
"363 105.667 OFFCURVE",
"369.833 107 OFFCURVE",
"375.5 109 CURVE SMOOTH",
"381.166 111 OFFCURVE",
"386.833 113.167 OFFCURVE",
"392.5 115.5 CURVE SMOOTH",
"398.166 117.833 OFFCURVE",
"404.166 120 OFFCURVE",
"410.5 122 CURVE SMOOTH",
"416.833 124 OFFCURVE",
"424.666 125 OFFCURVE",
"434 125 CURVE SMOOTH",
"443.333 125 OFFCURVE",
"451.166 124 OFFCURVE",
"457.5 122 CURVE SMOOTH",
"463.833 120 OFFCURVE",
"469.833 117.667 OFFCURVE",
"475.5 115 CURVE SMOOTH",
"481.166 112.333 OFFCURVE",
"487 110.167 OFFCURVE",
"493 108.5 CURVE SMOOTH",
"499 106.833 OFFCURVE",
"506 106 OFFCURVE",
"514 106 CURVE",
"530.666 106.666 OFFCURVE",
"544.5 112.833 OFFCURVE",
"555.5 124.5 CURVE SMOOTH",
"566.5 136.167 OFFCURVE",
"577 149.333 OFFCURVE",
"587 164 CURVE SMOOTH",
"599 180.667 OFFCURVE",
"607.5 195.667 OFFCURVE",
"612.5 209 CURVE SMOOTH",
"617.5 222.332 OFFCURVE",
"620.333 229.666 OFFCURVE",
"621 231 CURVE",
"610.5 236 LINE SMOOTH",
"603.5 239.332 OFFCURVE",
"596 244.666 OFFCURVE",
"588 252 CURVE SMOOTH",
"580 259.333 OFFCURVE",
"572.666 269 OFFCURVE",
"566 281 CURVE SMOOTH",
"559.333 293 OFFCURVE",
"556 308 OFFCURVE",
"556 326 CURVE SMOOTH"
);
},
{
closed = 1;
nodes = (
"503.666 511 OFFCURVE",
"510.5 522.5 OFFCURVE",
"515.5 535.5 CURVE SMOOTH",
"520.5 548.5 OFFCURVE",
"522.333 562 OFFCURVE",
"521 576 CURVE",
"508.333 575.342 OFFCURVE",
"495.5 571.675 OFFCURVE",
"482.5 565 CURVE SMOOTH",
"469.5 558.333 OFFCURVE",
"458.666 550 OFFCURVE",
"450 540 CURVE SMOOTH",
"442 531.333 OFFCURVE",
"435.166 520.5 OFFCURVE",
"429.5 507.5 CURVE SMOOTH",
"423.833 494.5 OFFCURVE",
"422 481.333 OFFCURVE",
"424 468 CURVE",
"437.333 466.665 OFFCURVE",
"450.5 469.331 OFFCURVE",
"463.5 476 CURVE SMOOTH",
"476.5 482.666 OFFCURVE",
"487 491 OFFCURVE",
"495 501 CURVE"
);
}
);
width = 850;
}
);
unicode = E007;
},
{
glyphname = bebo;
layers = (
{
layerId = "1285D0D6-ECBB-4398-A306-ABCA7FA13BF2";
name = Regular;
paths = (
{
closed = 1;
nodes = (
"448 92 LINE SMOOTH",
"473.333 92 OFFCURVE",
"497.333 96.4999 OFFCURVE",
"520 105.5 CURVE SMOOTH",
"542.666 114.5 OFFCURVE",
"562.5 126.667 OFFCURVE",
"579.5 142 CURVE SMOOTH",
"596.5 157.333 OFFCURVE",
"609.833 175.333 OFFCURVE",
"619.5 196 CURVE SMOOTH",
"629.166 216.667 OFFCURVE",
"634 238.667 OFFCURVE",
"634 262 CURVE SMOOTH",
"634 286 OFFCURVE",
"630.333 308.333 OFFCURVE",
"623 329 CURVE SMOOTH",
"615.666 349.666 OFFCURVE",
"605.666 367.666 OFFCURVE",
"593 383 CURVE SMOOTH",
"580.333 398.333 OFFCURVE",
"565.5 410.333 OFFCURVE",
"548.5 419 CURVE SMOOTH",
"531.5 427.666 OFFCURVE",
"513.333 432 OFFCURVE",
"494 432 CURVE SMOOTH",
"401 432 LINE SMOOTH",
"388.333 432 OFFCURVE",
"377.5 428.666 OFFCURVE",
"368.5 422 CURVE SMOOTH",
"359.5 415.333 OFFCURVE",
"355 405.666 OFFCURVE",
"355 393 CURVE SMOOTH",
"355 380.333 OFFCURVE",
"359.5 370.666 OFFCURVE",
"368.5 364 CURVE SMOOTH",
"377.5 357.333 OFFCURVE",
"388.333 354 OFFCURVE",
"401 354 CURVE SMOOTH",
"494 354 LINE SMOOTH",
"505.333 354 OFFCURVE",
"516 346.5 OFFCURVE",
"526 331.5 CURVE SMOOTH",
"536 316.5 OFFCURVE",
"541 297.667 OFFCURVE",
"541 275 CURVE SMOOTH",
"541 263.667 OFFCURVE",
"538.5 253.333 OFFCURVE",
"533.5 244 CURVE SMOOTH",
"528.5 234.667 OFFCURVE",
"521.833 226.5 OFFCURVE",
"513.5 219.5 CURVE SMOOTH",
"505.168 212.5 OFFCURVE",
"495.335 207 OFFCURVE",
"484 203 CURVE SMOOTH",
"472.666 199 OFFCURVE",
"460.666 197 OFFCURVE",
"448 197 CURVE SMOOTH",
"401 197 LINE SMOOTH",
"375.667 197 OFFCURVE",
"355.834 204.833 OFFCURVE",
"341.5 220.5 CURVE SMOOTH",
"327.166 236.167 OFFCURVE",
"320 256.667 OFFCURVE",
"320 282 CURVE SMOOTH",
"320 517 LINE SMOOTH",
"320 530.333 OFFCURVE",
"314.5 541.333 OFFCURVE",
"303.5 550 CURVE SMOOTH",
"292.5 558.666 OFFCURVE",
"280.667 563 OFFCURVE",
"268 563 CURVE SMOOTH",
"254.667 563 OFFCURVE",
"242.5 558.666 OFFCURVE",
"231.5 550 CURVE SMOOTH",
"220.5 541.333 OFFCURVE",
"215 530.333 OFFCURVE",
"215 517 CURVE SMOOTH",
"215 282 LINE SMOOTH",
"215 256.667 OFFCURVE",
"219.833 232.5 OFFCURVE",
"229.5 209.5 CURVE SMOOTH",
"239.167 186.5 OFFCURVE",
"252.5 166.333 OFFCURVE",
"269.5 149 CURVE SMOOTH",
"286.5 131.667 OFFCURVE",
"306.333 117.833 OFFCURVE",
"329 107.5 CURVE SMOOTH",
"351.666 97.1666 OFFCURVE",
"375.666 92 OFFCURVE",
"401 92 CURVE SMOOTH"
);
}
);
width = 850;
}
);
unicode = E008;
},
{
glyphname = behance;
layers = (
{
layerId = "1285D0D6-ECBB-4398-A306-ABCA7FA13BF2";
name = Regular;
paths = (
{
closed = 1;
nodes = (
"388 443.333 OFFCURVE",
"363.333 454.666 OFFCURVE",
"328 456 CURVE",
"189 456 LINE",
"189 142 LINE",
"319 142 LINE SMOOTH",
"326.333 142 OFFCURVE",
"333.333 142.333 OFFCURVE",
"340 143 CURVE SMOOTH",
"346.666 143.667 OFFCURVE",
"353 144.667 OFFCURVE",
"359 146 CURVE SMOOTH",
"372.333 149.333 OFFCURVE",
"383.333 154.666 OFFCURVE",
"392 162 CURVE SMOOTH",
"399.333 168 OFFCURVE",
"406 176.333 OFFCURVE",
"412 187 CURVE SMOOTH",
"420.666 202.333 OFFCURVE",
"425 219 OFFCURVE",
"425 237 CURVE SMOOTH",
"425 255 OFFCURVE",
"421 270 OFFCURVE",
"413 282 CURVE",
"406.333 294.667 OFFCURVE",
"395.333 304 OFFCURVE",
"380 310 CURVE",
"385.333 313.333 OFFCURVE",
"389.666 316.333 OFFCURVE",
"393 319 CURVE SMOOTH",
"396.333 321.666 OFFCURVE",
"399.333 324.666 OFFCURVE",
"402 328 CURVE SMOOTH",
"410.666 339.333 OFFCURVE",
"415 354.666 OFFCURVE",
"415 374 CURVE SMOOTH",
"415 393.333 OFFCURVE",
"410.666 409.333 OFFCURVE",
"402 422 CURVE SMOOTH"
);
},
{
closed = 1;
nodes = (
"268 403 LINE",
"309 403 LINE SMOOTH",
"316.333 403 OFFCURVE",
"322.666 402.333 OFFCURVE",
"328 401 CURVE SMOOTH",
"333.333 399.666 OFFCURVE",
"338.333 398 OFFCURVE",
"343 396 CURVE",
"348.333 394 OFFCURVE",
"352.166 390.333 OFFCURVE",
"354.5 385 CURVE SMOOTH",
"356.833 379.667 OFFCURVE",
"358 373.334 OFFCURVE",
"358 366 CURVE SMOOTH",
"358 351.333 OFFCURVE",
"354.333 341.333 OFFCURVE",
"347 336 CURVE",
"343 333.333 OFFCURVE",
"338.5 330.833 OFFCURVE",
"333.5 328.5 CURVE SMOOTH",
"328.5 326.166 OFFCURVE",
"322.666 325 OFFCURVE",
"316 325 CURVE SMOOTH",
"268 325 LINE"
);
},
{
closed = 1;
nodes = (
"268 273 LINE",
"317 273 LINE",
"333.5 273 LINE SMOOTH",
"338.5 273 OFFCURVE",
"342.666 272.333 OFFCURVE",
"346 271 CURVE",
"352 267.669 OFFCURVE",
"356.5 263.835 OFFCURVE",
"359.5 259.5 CURVE SMOOTH",
"362.5 255.167 OFFCURVE",
"364 248.667 OFFCURVE",
"364 240 CURVE SMOOTH",
"364 220.667 OFFCURVE",
"357.666 207.667 OFFCURVE",
"345 201 CURVE",
"337 196.333 OFFCURVE",
"327.333 194 OFFCURVE",
"316 194 CURVE SMOOTH",
"268 194 LINE"
);
},
{
closed = 1;
nodes = (
"594.666 373.666 OFFCURVE",
"579.333 377 OFFCURVE",
"562 377 CURVE SMOOTH",
"532.666 377 OFFCURVE",
"509 367 OFFCURVE",
"491 347 CURVE SMOOTH",
"473 325.666 OFFCURVE",
"464 296 OFFCURVE",
"464 258 CURVE SMOOTH",
"464 217.333 OFFCURVE",
"474 188 OFFCURVE",
"494 170 CURVE SMOOTH",
"514 152 OFFCURVE",
"537.333 143 OFFCURVE",
"564 143 CURVE SMOOTH",
"579.331 143 OFFCURVE",
"593.164 146 OFFCURVE",
"605.5 152 CURVE SMOOTH",
"617.832 158 OFFCURVE",
"628.665 166.333 OFFCURVE",
"638 177 CURVE",
"643.323 184.333 OFFCURVE",
"647.656 191 OFFCURVE",
"651 197 CURVE SMOOTH",
"654.333 203 OFFCURVE",
"656.333 210.667 OFFCURVE",
"657 220 CURVE",
"604 220 LINE",
"602.666 210.667 OFFCURVE",
"601.166 205.833 OFFCURVE",
"599.5 205.5 CURVE SMOOTH",
"597.833 205.167 OFFCURVE",
"596 204 OFFCURVE",
"594 202 CURVE",
"590 198.667 OFFCURVE",
"585.666 195.667 OFFCURVE",
"581 193 CURVE SMOOTH",
"576.333 190.333 OFFCURVE",
"571 189 OFFCURVE",
"565 189 CURVE SMOOTH",
"559.666 189 OFFCURVE",
"554.5 189.833 OFFCURVE",
"549.5 191.5 CURVE SMOOTH",
"544.5 193.167 OFFCURVE",
"540.333 195.333 OFFCURVE",
"537 198 CURVE",
"530.333 202.667 OFFCURVE",
"525.333 208.5 OFFCURVE",
"522 215.5 CURVE SMOOTH",
"518.666 222.5 OFFCURVE",
"516.666 232.667 OFFCURVE",
"516 246 CURVE",
"660 246 LINE",
"659.333 252 OFFCURVE",
"659 258 OFFCURVE",
"659 264 CURVE SMOOTH",
"659 268.664 OFFCURVE",
"658.833 273.331 OFFCURVE",
"658.5 278 CURVE SMOOTH",
"658.166 282.664 OFFCURVE",
"658 286.331 OFFCURVE",
"658 289 CURVE",
"656.666 298.333 OFFCURVE",
"654.666 306.5 OFFCURVE",
"652 313.5 CURVE SMOOTH",
"649.333 320.5 OFFCURVE",
"646 327.333 OFFCURVE",
"642 334 CURVE SMOOTH",
"632.666 349.333 OFFCURVE",
"621.333 360.333 OFFCURVE",
"608 367 CURVE SMOOTH"
);
},
{
closed = 1;
nodes = (
"537.666 320 OFFCURVE",
"548 324 OFFCURVE",
"562 324 CURVE SMOOTH",
"574 324 OFFCURVE",
"584 320 OFFCURVE",
"592 312 CURVE",
"596.666 308 OFFCURVE",
"600 303.833 OFFCURVE",
"602 299.5 CURVE SMOOTH",
"604 295.168 OFFCURVE",
"605.333 286.334 OFFCURVE",
"606 273 CURVE",
"517 273 LINE",
"518.317 286.333 OFFCURVE",
"520.151 295 OFFCURVE",
"522.5 299 CURVE SMOOTH",
"524.825 303 OFFCURVE",
"527.658 307.333 OFFCURVE",
"531 312 CURVE"
);
},
{
closed = 1;
nodes = (
"608 403 LINE",
"608 456 LINE",
"503 456 LINE",
"503 403 LINE"
);
}
);
width = 850;
}
);
unicode = E009;
},
{
glyphname = bing;
layers = (
{
layerId = "1285D0D6-ECBB-4398-A306-ABCA7FA13BF2";
name = Regular;
paths = (
{
closed = 1;
nodes = (
"411 414 OFFCURVE",
"397.666 413.333 OFFCURVE",
"385 412 CURVE SMOOTH",
"372.333 410.666 OFFCURVE",
"359.833 408 OFFCURVE",
"347.5 404 CURVE SMOOTH",
"335.166 400 OFFCURVE",
"322.5 394.666 OFFCURVE",
"309.5 388 CURVE SMOOTH",
"296.5 381.333 OFFCURVE",
"282.667 373 OFFCURVE",
"268 363 CURVE",
"268 552 LINE",
"189 552 LINE",
"189 243 LINE",
"190 243 LINE",
"190.667 220.333 OFFCURVE",
"197.333 199.167 OFFCURVE",
"210 179.5 CURVE SMOOTH",
"222.667 159.833 OFFCURVE",
"239.5 142.667 OFFCURVE",
"260.5 128 CURVE SMOOTH",
"281.5 113.333 OFFCURVE",
"306.167 101.833 OFFCURVE",
"334.5 93.4999 CURVE SMOOTH",
"362.833 85.1666 OFFCURVE",
"393 81 OFFCURVE",
"425 81 CURVE SMOOTH",
"457.666 81 OFFCURVE",
"488.166 85.3333 OFFCURVE",
"516.5 93.9999 CURVE SMOOTH",
"544.832 102.667 OFFCURVE",
"569.665 114.667 OFFCURVE",
"591 130 CURVE SMOOTH",
"612.331 145.333 OFFCURVE",
"629.164 163 OFFCURVE",
"641.5 183 CURVE SMOOTH",
"653.833 203 OFFCURVE",
"660 224.667 OFFCURVE",
"660 248 CURVE SMOOTH",
"660 270.667 OFFCURVE",
"653.833 292.167 OFFCURVE",
"641.5 312.5 CURVE SMOOTH",
"629.166 332.833 OFFCURVE",
"612.333 350.5 OFFCURVE",
"591 365.5 CURVE SMOOTH",
"569.666 380.5 OFFCURVE",
"544.833 392.333 OFFCURVE",
"516.5 401 CURVE SMOOTH",
"488.166 409.666 OFFCURVE",
"457.666 414 OFFCURVE",
"425 414 CURVE SMOOTH"
);
},
{
closed = 1;
nodes = (
"404.333 137 OFFCURVE",
"384.833 140 OFFCURVE",
"366.5 146 CURVE SMOOTH",
"348.167 152 OFFCURVE",
"332.334 160 OFFCURVE",
"319 170 CURVE SMOOTH",
"305.667 180 OFFCURVE",
"295 191.667 OFFCURVE",
"287 205 CURVE SMOOTH",
"279 218.333 OFFCURVE",
"275 232.666 OFFCURVE",
"275 248 CURVE SMOOTH",
"275 263.333 OFFCURVE",
"279 277.667 OFFCURVE",
"287 291 CURVE SMOOTH",
"295 304.333 OFFCURVE",
"305.667 316 OFFCURVE",
"319 326 CURVE SMOOTH",
"332.333 336 OFFCURVE",
"348.166 344 OFFCURVE",
"366.5 350 CURVE SMOOTH",
"384.833 356 OFFCURVE",
"404.333 359 OFFCURVE",
"425 359 CURVE SMOOTH",
"445.666 359 OFFCURVE",
"465 356 OFFCURVE",
"483 350 CURVE SMOOTH",
"500.998 344 OFFCURVE",
"516.664 336 OFFCURVE",
"530 326 CURVE SMOOTH",
"543.333 316 OFFCURVE",
"554 304.333 OFFCURVE",
"562 291 CURVE SMOOTH",
"570 277.667 OFFCURVE",
"574 263.334 OFFCURVE",
"574 248 CURVE SMOOTH",
"574 232.667 OFFCURVE",
"570 218.333 OFFCURVE",
"562 205 CURVE SMOOTH",
"554 191.667 OFFCURVE",
"543.333 180 OFFCURVE",
"530 170 CURVE SMOOTH",
"516.666 160 OFFCURVE",
"501 152 OFFCURVE",
"483 146 CURVE SMOOTH",
"465 140 OFFCURVE",
"445.666 137 OFFCURVE",
"425 137 CURVE SMOOTH"
);
},
{
closed = 1;
nodes = (
"524 269.667 OFFCURVE",
"514.333 287 OFFCURVE",
"495 301 CURVE SMOOTH",
"475.667 315 OFFCURVE",
"452.334 322 OFFCURVE",
"425 322 CURVE SMOOTH",
"397 322 OFFCURVE",
"373.5 315 OFFCURVE",
"354.5 301 CURVE SMOOTH",
"335.5 287 OFFCURVE",
"326 269.667 OFFCURVE",
"326 249 CURVE SMOOTH",
"326 239 OFFCURVE",
"328.5 229.667 OFFCURVE",
"333.5 221 CURVE SMOOTH",
"338.5 212.334 OFFCURVE",
"345.5 204.667 OFFCURVE",
"354.5 198 CURVE SMOOTH",
"363.5 191.334 OFFCURVE",
"374 186.167 OFFCURVE",
"386 182.5 CURVE SMOOTH",
"398 178.833 OFFCURVE",
"411 177 OFFCURVE",
"425 177 CURVE SMOOTH",
"438.333 177 OFFCURVE",
"451 178.833 OFFCURVE",
"463 182.5 CURVE SMOOTH",
"475 186.167 OFFCURVE",
"485.5 191.333 OFFCURVE",
"494.5 198 CURVE SMOOTH",
"503.5 204.667 OFFCURVE",
"510.666 212.333 OFFCURVE",
"516 221 CURVE SMOOTH",
"521.333 229.667 OFFCURVE",
"524 239 OFFCURVE",
"524 249 CURVE SMOOTH"
);
}
);
width = 850;
}
);
unicode = E010;
},
{
glyphname = blip;
layers = (
{
layerId = "1285D0D6-ECBB-4398-A306-ABCA7FA13BF2";
name = Regular;
paths = (
{
closed = 1;
nodes = (
"215 300 LINE",
"243 300 OFFCURVE",
"270 294.667 OFFCURVE",
"296 284 CURVE SMOOTH",
"322 273.333 OFFCURVE",
"344.666 258.333 OFFCURVE",
"364 239 CURVE SMOOTH",
"383.333 219.667 OFFCURVE",
"398.166 197.167 OFFCURVE",
"408.5 171.5 CURVE SMOOTH",
"418.833 145.833 OFFCURVE",
"424 119 OFFCURVE",
"424 91 CURVE",
"510 91 LINE",
"510 131 OFFCURVE",
"502.166 168.833 OFFCURVE",
"486.5 204.5 CURVE SMOOTH",
"470.833 240.167 OFFCURVE",
"449.666 271.333 OFFCURVE",
"423 298 CURVE SMOOTH",
"396.333 324.666 OFFCURVE",
"365 345.833 OFFCURVE",
"329 361.5 CURVE SMOOTH",
"293 377.166 OFFCURVE",
"255 385 OFFCURVE",
"215 385 CURVE"
);
},
{
closed = 1;
nodes = (
"215 450 LINE",
"264.333 450 OFFCURVE",
"310.833 440.5 OFFCURVE",
"354.5 421.5 CURVE SMOOTH",
"398.166 402.5 OFFCURVE",
"436.333 376.833 OFFCURVE",
"469 344.5 CURVE SMOOTH",
"501.666 312.167 OFFCURVE",
"527.5 274.167 OFFCURVE",
"546.5 230.5 CURVE SMOOTH",
"565.5 186.833 OFFCURVE",
"575 140.333 OFFCURVE",
"575 91 CURVE",
"660 91 LINE",
"660 151.667 OFFCURVE",
"648.333 209 OFFCURVE",
"625 263 CURVE SMOOTH",
"601.666 317 OFFCURVE",
"569.666 364.166 OFFCURVE",
"529 404.5 CURVE SMOOTH",
"488.333 444.833 OFFCURVE",
"441 476.666 OFFCURVE",
"387 500 CURVE SMOOTH",
"333 523.333 OFFCURVE",
"275.667 535 OFFCURVE",
"215 535 CURVE"
);
},
{
closed = 1;
nodes = (
"189 117 LINE",
"242 64 LINE",
"268 91 LINE",
"346 91 LINE",
"215 221 LINE",
"215 143 LINE"
);
}
);
width = 850;
}
);
unicode = E011;
},
{
glyphname = blogger;
layers = (
{
layerId = "1285D0D6-ECBB-4398-A306-ABCA7FA13BF2";
name = Regular;
paths = (
{
closed = 1;
nodes = (
"660 330 LINE",
"659 337 LINE",
"655 345 LINE",
"648 350 LINE",
"646 352 OFFCURVE",
"642 353.166 OFFCURVE",
"636 353.5 CURVE SMOOTH",
"630 353.833 OFFCURVE",
"623.666 354 OFFCURVE",
"617 354 CURVE SMOOTH",
"610.333 354 OFFCURVE",
"603.833 354.333 OFFCURVE",
"597.5 355 CURVE SMOOTH",
"591.166 355.656 OFFCURVE",
"586.666 357.322 OFFCURVE",
"584 360 CURVE",
"579.333 364 OFFCURVE",
"576.5 369.5 OFFCURVE",
"575.5 376.5 CURVE SMOOTH",
"572 401 LINE SMOOTH",
"570.666 409.666 OFFCURVE",
"569.5 416.666 OFFCURVE",
"568.5 422 CURVE SMOOTH",
"567.5 427.333 OFFCURVE",
"566.5 431.666 OFFCURVE",
"565.5 435 CURVE SMOOTH",
"564.5 438.333 OFFCURVE",
"563.333 441 OFFCURVE",
"562 443 CURVE SMOOTH",
"560.666 445 OFFCURVE",
"559.333 447.666 OFFCURVE",
"558 451 CURVE",
"552.666 461.665 OFFCURVE",
"545.5 471.831 OFFCURVE",
"536.5 481.5 CURVE SMOOTH",
"527.5 491.166 OFFCURVE",
"517.666 499.5 OFFCURVE",
"507 506.5 CURVE SMOOTH",
"496.333 513.5 OFFCURVE",
"485.333 519.166 OFFCURVE",
"474 523.5 CURVE SMOOTH",
"462.668 527.817 OFFCURVE",
"452.335 530.65 OFFCURVE",
"443 532 CURVE",
"339 532 LINE SMOOTH",
"318.333 532 OFFCURVE",
"299 528 OFFCURVE",
"281 520 CURVE SMOOTH",
"263 512 OFFCURVE",
"247.167 501.333 OFFCURVE",
"233.5 488 CURVE SMOOTH",
"219.833 474.666 OFFCURVE",
"209 459 OFFCURVE",
"201 441 CURVE SMOOTH",
"193 423 OFFCURVE",
"189 403.666 OFFCURVE",
"189 383 CURVE SMOOTH",
"189 210 LINE SMOOTH",
"189 189.333 OFFCURVE",
"193 170 OFFCURVE",
"201 152 CURVE SMOOTH",
"209 134 OFFCURVE",
"219.833 118.333 OFFCURVE",
"233.5 105 CURVE SMOOTH",
"247.167 91.6666 OFFCURVE",
"263 81.1666 OFFCURVE",
"281 73.5 CURVE SMOOTH",
"299 65.8333 OFFCURVE",
"318.333 62 OFFCURVE",
"339 62 CURVE SMOOTH",
"510 62 LINE SMOOTH",
"530.666 61.9998 OFFCURVE",
"550 65.8332 OFFCURVE",
"568 73.5 CURVE SMOOTH",
"586 81.1666 OFFCURVE",
"601.666 91.6666 OFFCURVE",
"615 105 CURVE SMOOTH",
"628.333 118.333 OFFCURVE",
"639 134 OFFCURVE",
"647 152 CURVE SMOOTH",
"655 170 OFFCURVE",
"659 189.333 OFFCURVE",
"659 210 CURVE SMOOTH"
);
},
{
closed = 1;
nodes = (
"423 411 LINE SMOOTH",
"431 411 OFFCURVE",
"437.833 408.166 OFFCURVE",
"443.5 402.5 CURVE SMOOTH",
"449.166 396.833 OFFCURVE",
"452 390 OFFCURVE",
"452 382 CURVE SMOOTH",
"452 374.666 OFFCURVE",
"449.166 368.166 OFFCURVE",
"443.5 362.5 CURVE SMOOTH",
"437.833 356.833 OFFCURVE",
"431 354 OFFCURVE",
"423 354 CURVE SMOOTH",
"341 354 LINE SMOOTH",
"333 354 OFFCURVE",
"326.166 356.833 OFFCURVE",
"320.5 362.5 CURVE SMOOTH",
"314.833 368.166 OFFCURVE",
"312 374.666 OFFCURVE",
"312 382 CURVE SMOOTH",
"312 390 OFFCURVE",
"314.833 396.833 OFFCURVE",
"320.5 402.5 CURVE SMOOTH",
"326.166 408.166 OFFCURVE",
"333 411 OFFCURVE",
"341 411 CURVE SMOOTH"
);
},
{
closed = 1;
nodes = (
"341 184 LINE SMOOTH",
"333 184 OFFCURVE",
"326.166 186.833 OFFCURVE",
"320.5 192.5 CURVE SMOOTH",
"314.833 198.167 OFFCURVE",
"312 204.667 OFFCURVE",
"312 212 CURVE SMOOTH",
"312 220 OFFCURVE",
"314.833 226.833 OFFCURVE",
"320.5 232.5 CURVE SMOOTH",
"326.166 238.167 OFFCURVE",
"333 241 OFFCURVE",
"341 241 CURVE SMOOTH",
"509 241 LINE SMOOTH",
"516.333 241 OFFCURVE",
"522.833 238.167 OFFCURVE",
"528.5 232.5 CURVE SMOOTH",
"534.166 226.833 OFFCURVE",
"537 220 OFFCURVE",
"537 212 CURVE SMOOTH",
"537 204.667 OFFCURVE",
"534.166 198.167 OFFCURVE",
"528.5 192.5 CURVE SMOOTH",
"522.833 186.833 OFFCURVE",
"516.333 184 OFFCURVE",
"509 184 CURVE SMOOTH"
);
}
);
width = 850;
}
);
unicode = E012;
},
